<?xml version="1.0" encoding="utf-8" standalone="no"?>
<!DOCTYPE svg PUBLIC "-//W3C//DTD SVG 1.1//EN"
  "http://www.w3.org/Graphics/SVG/1.1/DTD/svg11.dtd">
<svg xmlns:xlink="http://www.w3.org/1999/xlink" width="856.766875pt" height="568.355063pt" viewBox="0 0 856.766875 568.355063" xmlns="http://www.w3.org/2000/svg" version="1.1">
 <metadata>
  <rdf:RDF xmlns:dc="http://purl.org/dc/elements/1.1/" xmlns:cc="http://creativecommons.org/ns#" xmlns:rdf="http://www.w3.org/1999/02/22-rdf-syntax-ns#">
   <cc:Work>
    <dc:type rdf:resource="http://purl.org/dc/dcmitype/StillImage"/>
    <dc:date>2025-10-31T00:28:39.290441</dc:date>
    <dc:format>image/svg+xml</dc:format>
    <dc:creator>
     <cc:Agent>
      <dc:title>Matplotlib v3.6.2, https://matplotlib.org/</dc:title>
     </cc:Agent>
    </dc:creator>
   </cc:Work>
  </rdf:RDF>
 </metadata>
 <defs>
  <style type="text/css">*{stroke-linejoin: round; stroke-linecap: butt}</style>
 </defs>
 <g id="figure_1">
  <g id="patch_1">
   <path d="M 0 568.355063 
L 856.766875 568.355063 
L 856.766875 0 
L 0 0 
z
" style="fill: #ffffff"/>
  </g>
  <g id="axes_1">
   <g id="patch_2">
    <path d="M 50.836875 526.927563 
L 849.566875 526.927563 
L 849.566875 100.511563 
L 50.836875 100.511563 
z
" style="fill: #ffffff"/>
   </g>
   <g id="patch_3">
    <path d="M 50.836875 251.820466 
L 50.836875 100.511562 
L 849.566875 100.511562 
L 849.566875 251.820466 
z
" clip-path="url(#p88af75fc88)" style="fill: #008000; opacity: 0.15; stroke: #008000; stroke-linejoin: miter"/>
   </g>
   <g id="line2d_1">
    <path d="M 50.836875 251.820466 
L 849.566875 251.820466 
" clip-path="url(#p88af75fc88)" style="fill: none; stroke-dasharray: 7.4,3.2; stroke-dashoffset: 0; stroke: #808080; stroke-opacity: 0.7; stroke-width: 2"/>
   </g>
   <g id="line2d_2">
    <path d="M 50.836875 389.374014 
L 849.566875 389.374014 
" clip-path="url(#p88af75fc88)" style="fill: none; stroke-dasharray: 2,3.3; stroke-dashoffset: 0; stroke: #808080; stroke-opacity: 0.5; stroke-width: 2"/>
   </g>
   <g id="matplotlib.axis_1">
    <g id="xtick_1">
     <g id="line2d_3">
      <path d="M 87.142784 526.927563 
L 87.142784 100.511563 
" clip-path="url(#p88af75fc88)" style="fill: none; stroke-dasharray: 2.96,1.28; stroke-dashoffset: 0; stroke: #b0b0b0; stroke-opacity: 0.3; stroke-width: 0.8"/>
     </g>
     <g id="line2d_4">
      <defs>
       <path id="mc66c5cd22a" d="M 0 0 
L 0 3.5 
" style="stroke: #000000; stroke-width: 0.8"/>
      </defs>
      <g>
       <use xlink:href="#mc66c5cd22a" x="87.142784" y="526.927563" style="stroke: #000000; stroke-width: 0.8"/>
      </g>
     </g>
     <g id="text_1">
      <!-- 0.0 -->
      <g transform="translate(79.191222 541.526) scale(0.1 -0.1)">
       <defs>
        <path id="DejaVuSans-30" d="M 2034 4250 
Q 1547 4250 1301 3770 
Q 1056 3291 1056 2328 
Q 1056 1369 1301 889 
Q 1547 409 2034 409 
Q 2525 409 2770 889 
Q 3016 1369 3016 2328 
Q 3016 3291 2770 3770 
Q 2525 4250 2034 4250 
z
M 2034 4750 
Q 2819 4750 3233 4129 
Q 3647 3509 3647 2328 
Q 3647 1150 3233 529 
Q 2819 -91 2034 -91 
Q 1250 -91 836 529 
Q 422 1150 422 2328 
Q 422 3509 836 4129 
Q 1250 4750 2034 4750 
z
" transform="scale(0.015625)"/>
        <path id="DejaVuSans-2e" d="M 684 794 
L 1344 794 
L 1344 0 
L 684 0 
L 684 794 
z
" transform="scale(0.015625)"/>
       </defs>
       <use xlink:href="#DejaVuSans-30"/>
       <use xlink:href="#DejaVuSans-2e" x="63.623047"/>
       <use xlink:href="#DejaVuSans-30" x="95.410156"/>
      </g>
     </g>
    </g>
    <g id="xtick_2">
     <g id="line2d_5">
      <path d="M 208.162481 526.927563 
L 208.162481 100.511563 
" clip-path="url(#p88af75fc88)" style="fill: none; stroke-dasharray: 2.96,1.28; stroke-dashoffset: 0; stroke: #b0b0b0; stroke-opacity: 0.3; stroke-width: 0.8"/>
     </g>
     <g id="line2d_6">
      <g>
       <use xlink:href="#mc66c5cd22a" x="208.162481" y="526.927563" style="stroke: #000000; stroke-width: 0.8"/>
      </g>
     </g>
     <g id="text_2">
      <!-- 0.5 -->
      <g transform="translate(200.210919 541.526) scale(0.1 -0.1)">
       <defs>
        <path id="DejaVuSans-35" d="M 691 4666 
L 3169 4666 
L 3169 4134 
L 1269 4134 
L 1269 2991 
Q 1406 3038 1543 3061 
Q 1681 3084 1819 3084 
Q 2600 3084 3056 2656 
Q 3513 2228 3513 1497 
Q 3513 744 3044 326 
Q 2575 -91 1722 -91 
Q 1428 -91 1123 -41 
Q 819 9 494 109 
L 494 744 
Q 775 591 1075 516 
Q 1375 441 1709 441 
Q 2250 441 2565 725 
Q 2881 1009 2881 1497 
Q 2881 1984 2565 2268 
Q 2250 2553 1709 2553 
Q 1456 2553 1204 2497 
Q 953 2441 691 2322 
L 691 4666 
z
" transform="scale(0.015625)"/>
       </defs>
       <use xlink:href="#DejaVuSans-30"/>
       <use xlink:href="#DejaVuSans-2e" x="63.623047"/>
       <use xlink:href="#DejaVuSans-35" x="95.410156"/>
      </g>
     </g>
    </g>
    <g id="xtick_3">
     <g id="line2d_7">
      <path d="M 329.182178 526.927563 
L 329.182178 100.511563 
" clip-path="url(#p88af75fc88)" style="fill: none; stroke-dasharray: 2.96,1.28; stroke-dashoffset: 0; stroke: #b0b0b0; stroke-opacity: 0.3; stroke-width: 0.8"/>
     </g>
     <g id="line2d_8">
      <g>
       <use xlink:href="#mc66c5cd22a" x="329.182178" y="526.927563" style="stroke: #000000; stroke-width: 0.8"/>
      </g>
     </g>
     <g id="text_3">
      <!-- 1.0 -->
      <g transform="translate(321.230616 541.526) scale(0.1 -0.1)">
       <defs>
        <path id="DejaVuSans-31" d="M 794 531 
L 1825 531 
L 1825 4091 
L 703 3866 
L 703 4441 
L 1819 4666 
L 2450 4666 
L 2450 531 
L 3481 531 
L 3481 0 
L 794 0 
L 794 531 
z
" transform="scale(0.015625)"/>
       </defs>
       <use xlink:href="#DejaVuSans-31"/>
       <use xlink:href="#DejaVuSans-2e" x="63.623047"/>
       <use xlink:href="#DejaVuSans-30" x="95.410156"/>
      </g>
     </g>
    </g>
    <g id="xtick_4">
     <g id="line2d_9">
      <path d="M 450.201875 526.927563 
L 450.201875 100.511563 
" clip-path="url(#p88af75fc88)" style="fill: none; stroke-dasharray: 2.96,1.28; stroke-dashoffset: 0; stroke: #b0b0b0; stroke-opacity: 0.3; stroke-width: 0.8"/>
     </g>
     <g id="line2d_10">
      <g>
       <use xlink:href="#mc66c5cd22a" x="450.201875" y="526.927563" style="stroke: #000000; stroke-width: 0.8"/>
      </g>
     </g>
     <g id="text_4">
      <!-- 1.5 -->
      <g transform="translate(442.250313 541.526) scale(0.1 -0.1)">
       <use xlink:href="#DejaVuSans-31"/>
       <use xlink:href="#DejaVuSans-2e" x="63.623047"/>
       <use xlink:href="#DejaVuSans-35" x="95.410156"/>
      </g>
     </g>
    </g>
    <g id="xtick_5">
     <g id="line2d_11">
      <path d="M 571.221572 526.927563 
L 571.221572 100.511563 
" clip-path="url(#p88af75fc88)" style="fill: none; stroke-dasharray: 2.96,1.28; stroke-dashoffset: 0; stroke: #b0b0b0; stroke-opacity: 0.3; stroke-width: 0.8"/>
     </g>
     <g id="line2d_12">
      <g>
       <use xlink:href="#mc66c5cd22a" x="571.221572" y="526.927563" style="stroke: #000000; stroke-width: 0.8"/>
      </g>
     </g>
     <g id="text_5">
      <!-- 2.0 -->
      <g transform="translate(563.270009 541.526) scale(0.1 -0.1)">
       <defs>
        <path id="DejaVuSans-32" d="M 1228 531 
L 3431 531 
L 3431 0 
L 469 0 
L 469 531 
Q 828 903 1448 1529 
Q 2069 2156 2228 2338 
Q 2531 2678 2651 2914 
Q 2772 3150 2772 3378 
Q 2772 3750 2511 3984 
Q 2250 4219 1831 4219 
Q 1534 4219 1204 4116 
Q 875 4013 500 3803 
L 500 4441 
Q 881 4594 1212 4672 
Q 1544 4750 1819 4750 
Q 2544 4750 2975 4387 
Q 3406 4025 3406 3419 
Q 3406 3131 3298 2873 
Q 3191 2616 2906 2266 
Q 2828 2175 2409 1742 
Q 1991 1309 1228 531 
z
" transform="scale(0.015625)"/>
       </defs>
       <use xlink:href="#DejaVuSans-32"/>
       <use xlink:href="#DejaVuSans-2e" x="63.623047"/>
       <use xlink:href="#DejaVuSans-30" x="95.410156"/>
      </g>
     </g>
    </g>
    <g id="xtick_6">
     <g id="line2d_13">
      <path d="M 692.241269 526.927563 
L 692.241269 100.511563 
" clip-path="url(#p88af75fc88)" style="fill: none; stroke-dasharray: 2.96,1.28; stroke-dashoffset: 0; stroke: #b0b0b0; stroke-opacity: 0.3; stroke-width: 0.8"/>
     </g>
     <g id="line2d_14">
      <g>
       <use xlink:href="#mc66c5cd22a" x="692.241269" y="526.927563" style="stroke: #000000; stroke-width: 0.8"/>
      </g>
     </g>
     <g id="text_6">
      <!-- 2.5 -->
      <g transform="translate(684.289706 541.526) scale(0.1 -0.1)">
       <use xlink:href="#DejaVuSans-32"/>
       <use xlink:href="#DejaVuSans-2e" x="63.623047"/>
       <use xlink:href="#DejaVuSans-35" x="95.410156"/>
      </g>
     </g>
    </g>
    <g id="xtick_7">
     <g id="line2d_15">
      <path d="M 813.260966 526.927563 
L 813.260966 100.511563 
" clip-path="url(#p88af75fc88)" style="fill: none; stroke-dasharray: 2.96,1.28; stroke-dashoffset: 0; stroke: #b0b0b0; stroke-opacity: 0.3; stroke-width: 0.8"/>
     </g>
     <g id="line2d_16">
      <g>
       <use xlink:href="#mc66c5cd22a" x="813.260966" y="526.927563" style="stroke: #000000; stroke-width: 0.8"/>
      </g>
     </g>
     <g id="text_7">
      <!-- 3.0 -->
      <g transform="translate(805.309403 541.526) scale(0.1 -0.1)">
       <defs>
        <path id="DejaVuSans-33" d="M 2597 2516 
Q 3050 2419 3304 2112 
Q 3559 1806 3559 1356 
Q 3559 666 3084 287 
Q 2609 -91 1734 -91 
Q 1441 -91 1130 -33 
Q 819 25 488 141 
L 488 750 
Q 750 597 1062 519 
Q 1375 441 1716 441 
Q 2309 441 2620 675 
Q 2931 909 2931 1356 
Q 2931 1769 2642 2001 
Q 2353 2234 1838 2234 
L 1294 2234 
L 1294 2753 
L 1863 2753 
Q 2328 2753 2575 2939 
Q 2822 3125 2822 3475 
Q 2822 3834 2567 4026 
Q 2313 4219 1838 4219 
Q 1578 4219 1281 4162 
Q 984 4106 628 3988 
L 628 4550 
Q 988 4650 1302 4700 
Q 1616 4750 1894 4750 
Q 2613 4750 3031 4423 
Q 3450 4097 3450 3541 
Q 3450 3153 3228 2886 
Q 3006 2619 2597 2516 
z
" transform="scale(0.015625)"/>
       </defs>
       <use xlink:href="#DejaVuSans-33"/>
       <use xlink:href="#DejaVuSans-2e" x="63.623047"/>
       <use xlink:href="#DejaVuSans-30" x="95.410156"/>
      </g>
     </g>
    </g>
    <g id="text_8">
     <!-- Prediction Horizon Δt (ms) -->
     <g transform="translate(345.455625 558.2435) scale(0.14 -0.14)">
      <defs>
       <path id="DejaVuSans-Bold-50" d="M 588 4666 
L 2584 4666 
Q 3475 4666 3951 4270 
Q 4428 3875 4428 3144 
Q 4428 2409 3951 2014 
Q 3475 1619 2584 1619 
L 1791 1619 
L 1791 0 
L 588 0 
L 588 4666 
z
M 1791 3794 
L 1791 2491 
L 2456 2491 
Q 2806 2491 2997 2661 
Q 3188 2831 3188 3144 
Q 3188 3456 2997 3625 
Q 2806 3794 2456 3794 
L 1791 3794 
z
" transform="scale(0.015625)"/>
       <path id="DejaVuSans-Bold-72" d="M 3138 2547 
Q 2991 2616 2845 2648 
Q 2700 2681 2553 2681 
Q 2122 2681 1889 2404 
Q 1656 2128 1656 1613 
L 1656 0 
L 538 0 
L 538 3500 
L 1656 3500 
L 1656 2925 
Q 1872 3269 2151 3426 
Q 2431 3584 2822 3584 
Q 2878 3584 2943 3579 
Q 3009 3575 3134 3559 
L 3138 2547 
z
" transform="scale(0.015625)"/>
       <path id="DejaVuSans-Bold-65" d="M 4031 1759 
L 4031 1441 
L 1416 1441 
Q 1456 1047 1700 850 
Q 1944 653 2381 653 
Q 2734 653 3104 758 
Q 3475 863 3866 1075 
L 3866 213 
Q 3469 63 3072 -14 
Q 2675 -91 2278 -91 
Q 1328 -91 801 392 
Q 275 875 275 1747 
Q 275 2603 792 3093 
Q 1309 3584 2216 3584 
Q 3041 3584 3536 3087 
Q 4031 2591 4031 1759 
z
M 2881 2131 
Q 2881 2450 2695 2645 
Q 2509 2841 2209 2841 
Q 1884 2841 1681 2658 
Q 1478 2475 1428 2131 
L 2881 2131 
z
" transform="scale(0.015625)"/>
       <path id="DejaVuSans-Bold-64" d="M 2919 2988 
L 2919 4863 
L 4044 4863 
L 4044 0 
L 2919 0 
L 2919 506 
Q 2688 197 2409 53 
Q 2131 -91 1766 -91 
Q 1119 -91 703 423 
Q 288 938 288 1747 
Q 288 2556 703 3070 
Q 1119 3584 1766 3584 
Q 2128 3584 2408 3439 
Q 2688 3294 2919 2988 
z
M 2181 722 
Q 2541 722 2730 984 
Q 2919 1247 2919 1747 
Q 2919 2247 2730 2509 
Q 2541 2772 2181 2772 
Q 1825 2772 1636 2509 
Q 1447 2247 1447 1747 
Q 1447 1247 1636 984 
Q 1825 722 2181 722 
z
" transform="scale(0.015625)"/>
       <path id="DejaVuSans-Bold-69" d="M 538 3500 
L 1656 3500 
L 1656 0 
L 538 0 
L 538 3500 
z
M 538 4863 
L 1656 4863 
L 1656 3950 
L 538 3950 
L 538 4863 
z
" transform="scale(0.015625)"/>
       <path id="DejaVuSans-Bold-63" d="M 3366 3391 
L 3366 2478 
Q 3138 2634 2908 2709 
Q 2678 2784 2431 2784 
Q 1963 2784 1702 2511 
Q 1441 2238 1441 1747 
Q 1441 1256 1702 982 
Q 1963 709 2431 709 
Q 2694 709 2930 787 
Q 3166 866 3366 1019 
L 3366 103 
Q 3103 6 2833 -42 
Q 2563 -91 2291 -91 
Q 1344 -91 809 395 
Q 275 881 275 1747 
Q 275 2613 809 3098 
Q 1344 3584 2291 3584 
Q 2566 3584 2833 3536 
Q 3100 3488 3366 3391 
z
" transform="scale(0.015625)"/>
       <path id="DejaVuSans-Bold-74" d="M 1759 4494 
L 1759 3500 
L 2913 3500 
L 2913 2700 
L 1759 2700 
L 1759 1216 
Q 1759 972 1856 886 
Q 1953 800 2241 800 
L 2816 800 
L 2816 0 
L 1856 0 
Q 1194 0 917 276 
Q 641 553 641 1216 
L 641 2700 
L 84 2700 
L 84 3500 
L 641 3500 
L 641 4494 
L 1759 4494 
z
" transform="scale(0.015625)"/>
       <path id="DejaVuSans-Bold-6f" d="M 2203 2784 
Q 1831 2784 1636 2517 
Q 1441 2250 1441 1747 
Q 1441 1244 1636 976 
Q 1831 709 2203 709 
Q 2569 709 2762 976 
Q 2956 1244 2956 1747 
Q 2956 2250 2762 2517 
Q 2569 2784 2203 2784 
z
M 2203 3584 
Q 3106 3584 3614 3096 
Q 4122 2609 4122 1747 
Q 4122 884 3614 396 
Q 3106 -91 2203 -91 
Q 1297 -91 786 396 
Q 275 884 275 1747 
Q 275 2609 786 3096 
Q 1297 3584 2203 3584 
z
" transform="scale(0.015625)"/>
       <path id="DejaVuSans-Bold-6e" d="M 4056 2131 
L 4056 0 
L 2931 0 
L 2931 347 
L 2931 1631 
Q 2931 2084 2911 2256 
Q 2891 2428 2841 2509 
Q 2775 2619 2662 2680 
Q 2550 2741 2406 2741 
Q 2056 2741 1856 2470 
Q 1656 2200 1656 1722 
L 1656 0 
L 538 0 
L 538 3500 
L 1656 3500 
L 1656 2988 
Q 1909 3294 2193 3439 
Q 2478 3584 2822 3584 
Q 3428 3584 3742 3212 
Q 4056 2841 4056 2131 
z
" transform="scale(0.015625)"/>
       <path id="DejaVuSans-Bold-20" transform="scale(0.015625)"/>
       <path id="DejaVuSans-Bold-48" d="M 588 4666 
L 1791 4666 
L 1791 2888 
L 3566 2888 
L 3566 4666 
L 4769 4666 
L 4769 0 
L 3566 0 
L 3566 1978 
L 1791 1978 
L 1791 0 
L 588 0 
L 588 4666 
z
" transform="scale(0.015625)"/>
       <path id="DejaVuSans-Bold-7a" d="M 366 3500 
L 3419 3500 
L 3419 2719 
L 1575 800 
L 3419 800 
L 3419 0 
L 288 0 
L 288 781 
L 2131 2700 
L 366 2700 
L 366 3500 
z
" transform="scale(0.015625)"/>
       <path id="DejaVuSans-Bold-394" d="M 4922 0 
L 31 0 
L 1759 4666 
L 3194 4666 
L 4922 0 
z
M 1559 909 
L 3384 909 
L 2478 3572 
L 1559 909 
z
" transform="scale(0.015625)"/>
       <path id="DejaVuSans-Bold-28" d="M 2413 -844 
L 1484 -844 
Q 1006 -72 778 623 
Q 550 1319 550 2003 
Q 550 2688 779 3389 
Q 1009 4091 1484 4856 
L 2413 4856 
Q 2013 4116 1813 3408 
Q 1613 2700 1613 2009 
Q 1613 1319 1811 609 
Q 2009 -100 2413 -844 
z
" transform="scale(0.015625)"/>
       <path id="DejaVuSans-Bold-6d" d="M 3781 2919 
Q 3994 3244 4286 3414 
Q 4578 3584 4928 3584 
Q 5531 3584 5847 3212 
Q 6163 2841 6163 2131 
L 6163 0 
L 5038 0 
L 5038 1825 
Q 5041 1866 5042 1909 
Q 5044 1953 5044 2034 
Q 5044 2406 4934 2573 
Q 4825 2741 4581 2741 
Q 4263 2741 4089 2478 
Q 3916 2216 3909 1719 
L 3909 0 
L 2784 0 
L 2784 1825 
Q 2784 2406 2684 2573 
Q 2584 2741 2328 2741 
Q 2006 2741 1831 2477 
Q 1656 2213 1656 1722 
L 1656 0 
L 531 0 
L 531 3500 
L 1656 3500 
L 1656 2988 
Q 1863 3284 2130 3434 
Q 2397 3584 2719 3584 
Q 3081 3584 3359 3409 
Q 3638 3234 3781 2919 
z
" transform="scale(0.015625)"/>
       <path id="DejaVuSans-Bold-73" d="M 3272 3391 
L 3272 2541 
Q 2913 2691 2578 2766 
Q 2244 2841 1947 2841 
Q 1628 2841 1473 2761 
Q 1319 2681 1319 2516 
Q 1319 2381 1436 2309 
Q 1553 2238 1856 2203 
L 2053 2175 
Q 2913 2066 3209 1816 
Q 3506 1566 3506 1031 
Q 3506 472 3093 190 
Q 2681 -91 1863 -91 
Q 1516 -91 1145 -36 
Q 775 19 384 128 
L 384 978 
Q 719 816 1070 734 
Q 1422 653 1784 653 
Q 2113 653 2278 743 
Q 2444 834 2444 1013 
Q 2444 1163 2330 1236 
Q 2216 1309 1875 1350 
L 1678 1375 
Q 931 1469 631 1722 
Q 331 1975 331 2491 
Q 331 3047 712 3315 
Q 1094 3584 1881 3584 
Q 2191 3584 2531 3537 
Q 2872 3491 3272 3391 
z
" transform="scale(0.015625)"/>
       <path id="DejaVuSans-Bold-29" d="M 513 -844 
Q 913 -100 1113 609 
Q 1313 1319 1313 2009 
Q 1313 2700 1113 3408 
Q 913 4116 513 4856 
L 1441 4856 
Q 1916 4091 2145 3389 
Q 2375 2688 2375 2003 
Q 2375 1319 2147 623 
Q 1919 -72 1441 -844 
L 513 -844 
z
" transform="scale(0.015625)"/>
      </defs>
      <use xlink:href="#DejaVuSans-Bold-50"/>
      <use xlink:href="#DejaVuSans-Bold-72" x="73.291016"/>
      <use xlink:href="#DejaVuSans-Bold-65" x="122.607422"/>
      <use xlink:href="#DejaVuSans-Bold-64" x="190.429688"/>
      <use xlink:href="#DejaVuSans-Bold-69" x="262.011719"/>
      <use xlink:href="#DejaVuSans-Bold-63" x="296.289062"/>
      <use xlink:href="#DejaVuSans-Bold-74" x="355.566406"/>
      <use xlink:href="#DejaVuSans-Bold-69" x="403.369141"/>
      <use xlink:href="#DejaVuSans-Bold-6f" x="437.646484"/>
      <use xlink:href="#DejaVuSans-Bold-6e" x="506.347656"/>
      <use xlink:href="#DejaVuSans-Bold-20" x="577.539062"/>
      <use xlink:href="#DejaVuSans-Bold-48" x="612.353516"/>
      <use xlink:href="#DejaVuSans-Bold-6f" x="696.044922"/>
      <use xlink:href="#DejaVuSans-Bold-72" x="764.746094"/>
      <use xlink:href="#DejaVuSans-Bold-69" x="814.0625"/>
      <use xlink:href="#DejaVuSans-Bold-7a" x="848.339844"/>
      <use xlink:href="#DejaVuSans-Bold-6f" x="906.542969"/>
      <use xlink:href="#DejaVuSans-Bold-6e" x="975.244141"/>
      <use xlink:href="#DejaVuSans-Bold-20" x="1046.435547"/>
      <use xlink:href="#DejaVuSans-Bold-394" x="1081.25"/>
      <use xlink:href="#DejaVuSans-Bold-74" x="1158.642578"/>
      <use xlink:href="#DejaVuSans-Bold-20" x="1206.445312"/>
      <use xlink:href="#DejaVuSans-Bold-28" x="1241.259766"/>
      <use xlink:href="#DejaVuSans-Bold-6d" x="1286.962891"/>
      <use xlink:href="#DejaVuSans-Bold-73" x="1391.162109"/>
      <use xlink:href="#DejaVuSans-Bold-29" x="1450.683594"/>
     </g>
    </g>
   </g>
   <g id="matplotlib.axis_2">
    <g id="ytick_1">
     <g id="line2d_17">
      <path d="M 50.836875 526.927562 
L 849.566875 526.927562 
" clip-path="url(#p88af75fc88)" style="fill: none; stroke-dasharray: 2.96,1.28; stroke-dashoffset: 0; stroke: #b0b0b0; stroke-opacity: 0.3; stroke-width: 0.8"/>
     </g>
     <g id="line2d_18">
      <defs>
       <path id="me3ff6deb4b" d="M 0 0 
L -3.5 0 
" style="stroke: #000000; stroke-width: 0.8"/>
      </defs>
      <g>
       <use xlink:href="#me3ff6deb4b" x="50.836875" y="526.927562" style="stroke: #000000; stroke-width: 0.8"/>
      </g>
     </g>
     <g id="text_9">
      <!-- 70 -->
      <g transform="translate(31.111875 530.726781) scale(0.1 -0.1)">
       <defs>
        <path id="DejaVuSans-37" d="M 525 4666 
L 3525 4666 
L 3525 4397 
L 1831 0 
L 1172 0 
L 2766 4134 
L 525 4134 
L 525 4666 
z
" transform="scale(0.015625)"/>
       </defs>
       <use xlink:href="#DejaVuSans-37"/>
       <use xlink:href="#DejaVuSans-30" x="63.623047"/>
      </g>
     </g>
    </g>
    <g id="ytick_2">
     <g id="line2d_19">
      <path d="M 50.836875 458.150788 
L 849.566875 458.150788 
" clip-path="url(#p88af75fc88)" style="fill: none; stroke-dasharray: 2.96,1.28; stroke-dashoffset: 0; stroke: #b0b0b0; stroke-opacity: 0.3; stroke-width: 0.8"/>
     </g>
     <g id="line2d_20">
      <g>
       <use xlink:href="#me3ff6deb4b" x="50.836875" y="458.150788" style="stroke: #000000; stroke-width: 0.8"/>
      </g>
     </g>
     <g id="text_10">
      <!-- 75 -->
      <g transform="translate(31.111875 461.950007) scale(0.1 -0.1)">
       <use xlink:href="#DejaVuSans-37"/>
       <use xlink:href="#DejaVuSans-35" x="63.623047"/>
      </g>
     </g>
    </g>
    <g id="ytick_3">
     <g id="line2d_21">
      <path d="M 50.836875 389.374014 
L 849.566875 389.374014 
" clip-path="url(#p88af75fc88)" style="fill: none; stroke-dasharray: 2.96,1.28; stroke-dashoffset: 0; stroke: #b0b0b0; stroke-opacity: 0.3; stroke-width: 0.8"/>
     </g>
     <g id="line2d_22">
      <g>
       <use xlink:href="#me3ff6deb4b" x="50.836875" y="389.374014" style="stroke: #000000; stroke-width: 0.8"/>
      </g>
     </g>
     <g id="text_11">
      <!-- 80 -->
      <g transform="translate(31.111875 393.173233) scale(0.1 -0.1)">
       <defs>
        <path id="DejaVuSans-38" d="M 2034 2216 
Q 1584 2216 1326 1975 
Q 1069 1734 1069 1313 
Q 1069 891 1326 650 
Q 1584 409 2034 409 
Q 2484 409 2743 651 
Q 3003 894 3003 1313 
Q 3003 1734 2745 1975 
Q 2488 2216 2034 2216 
z
M 1403 2484 
Q 997 2584 770 2862 
Q 544 3141 544 3541 
Q 544 4100 942 4425 
Q 1341 4750 2034 4750 
Q 2731 4750 3128 4425 
Q 3525 4100 3525 3541 
Q 3525 3141 3298 2862 
Q 3072 2584 2669 2484 
Q 3125 2378 3379 2068 
Q 3634 1759 3634 1313 
Q 3634 634 3220 271 
Q 2806 -91 2034 -91 
Q 1263 -91 848 271 
Q 434 634 434 1313 
Q 434 1759 690 2068 
Q 947 2378 1403 2484 
z
M 1172 3481 
Q 1172 3119 1398 2916 
Q 1625 2713 2034 2713 
Q 2441 2713 2670 2916 
Q 2900 3119 2900 3481 
Q 2900 3844 2670 4047 
Q 2441 4250 2034 4250 
Q 1625 4250 1398 4047 
Q 1172 3844 1172 3481 
z
" transform="scale(0.015625)"/>
       </defs>
       <use xlink:href="#DejaVuSans-38"/>
       <use xlink:href="#DejaVuSans-30" x="63.623047"/>
      </g>
     </g>
    </g>
    <g id="ytick_4">
     <g id="line2d_23">
      <path d="M 50.836875 320.59724 
L 849.566875 320.59724 
" clip-path="url(#p88af75fc88)" style="fill: none; stroke-dasharray: 2.96,1.28; stroke-dashoffset: 0; stroke: #b0b0b0; stroke-opacity: 0.3; stroke-width: 0.8"/>
     </g>
     <g id="line2d_24">
      <g>
       <use xlink:href="#me3ff6deb4b" x="50.836875" y="320.59724" style="stroke: #000000; stroke-width: 0.8"/>
      </g>
     </g>
     <g id="text_12">
      <!-- 85 -->
      <g transform="translate(31.111875 324.396459) scale(0.1 -0.1)">
       <use xlink:href="#DejaVuSans-38"/>
       <use xlink:href="#DejaVuSans-35" x="63.623047"/>
      </g>
     </g>
    </g>
    <g id="ytick_5">
     <g id="line2d_25">
      <path d="M 50.836875 251.820466 
L 849.566875 251.820466 
" clip-path="url(#p88af75fc88)" style="fill: none; stroke-dasharray: 2.96,1.28; stroke-dashoffset: 0; stroke: #b0b0b0; stroke-opacity: 0.3; stroke-width: 0.8"/>
     </g>
     <g id="line2d_26">
      <g>
       <use xlink:href="#me3ff6deb4b" x="50.836875" y="251.820466" style="stroke: #000000; stroke-width: 0.8"/>
      </g>
     </g>
     <g id="text_13">
      <!-- 90 -->
      <g transform="translate(31.111875 255.619684) scale(0.1 -0.1)">
       <defs>
        <path id="DejaVuSans-39" d="M 703 97 
L 703 672 
Q 941 559 1184 500 
Q 1428 441 1663 441 
Q 2288 441 2617 861 
Q 2947 1281 2994 2138 
Q 2813 1869 2534 1725 
Q 2256 1581 1919 1581 
Q 1219 1581 811 2004 
Q 403 2428 403 3163 
Q 403 3881 828 4315 
Q 1253 4750 1959 4750 
Q 2769 4750 3195 4129 
Q 3622 3509 3622 2328 
Q 3622 1225 3098 567 
Q 2575 -91 1691 -91 
Q 1453 -91 1209 -44 
Q 966 3 703 97 
z
M 1959 2075 
Q 2384 2075 2632 2365 
Q 2881 2656 2881 3163 
Q 2881 3666 2632 3958 
Q 2384 4250 1959 4250 
Q 1534 4250 1286 3958 
Q 1038 3666 1038 3163 
Q 1038 2656 1286 2365 
Q 1534 2075 1959 2075 
z
" transform="scale(0.015625)"/>
       </defs>
       <use xlink:href="#DejaVuSans-39"/>
       <use xlink:href="#DejaVuSans-30" x="63.623047"/>
      </g>
     </g>
    </g>
    <g id="ytick_6">
     <g id="line2d_27">
      <path d="M 50.836875 183.043692 
L 849.566875 183.043692 
" clip-path="url(#p88af75fc88)" style="fill: none; stroke-dasharray: 2.96,1.28; stroke-dashoffset: 0; stroke: #b0b0b0; stroke-opacity: 0.3; stroke-width: 0.8"/>
     </g>
     <g id="line2d_28">
      <g>
       <use xlink:href="#me3ff6deb4b" x="50.836875" y="183.043692" style="stroke: #000000; stroke-width: 0.8"/>
      </g>
     </g>
     <g id="text_14">
      <!-- 95 -->
      <g transform="translate(31.111875 186.84291) scale(0.1 -0.1)">
       <use xlink:href="#DejaVuSans-39"/>
       <use xlink:href="#DejaVuSans-35" x="63.623047"/>
      </g>
     </g>
    </g>
    <g id="ytick_7">
     <g id="line2d_29">
      <path d="M 50.836875 114.266917 
L 849.566875 114.266917 
" clip-path="url(#p88af75fc88)" style="fill: none; stroke-dasharray: 2.96,1.28; stroke-dashoffset: 0; stroke: #b0b0b0; stroke-opacity: 0.3; stroke-width: 0.8"/>
     </g>
     <g id="line2d_30">
      <g>
       <use xlink:href="#me3ff6deb4b" x="50.836875" y="114.266917" style="stroke: #000000; stroke-width: 0.8"/>
      </g>
     </g>
     <g id="text_15">
      <!-- 100 -->
      <g transform="translate(24.749375 118.066136) scale(0.1 -0.1)">
       <use xlink:href="#DejaVuSans-31"/>
       <use xlink:href="#DejaVuSans-30" x="63.623047"/>
       <use xlink:href="#DejaVuSans-30" x="127.246094"/>
      </g>
     </g>
    </g>
    <g id="text_16">
     <!-- Cancellation Rate (%) -->
     <g transform="translate(17.837813 399.01675) rotate(-90) scale(0.14 -0.14)">
      <defs>
       <path id="DejaVuSans-Bold-43" d="M 4288 256 
Q 3956 84 3597 -3 
Q 3238 -91 2847 -91 
Q 1681 -91 1000 561 
Q 319 1213 319 2328 
Q 319 3447 1000 4098 
Q 1681 4750 2847 4750 
Q 3238 4750 3597 4662 
Q 3956 4575 4288 4403 
L 4288 3438 
Q 3953 3666 3628 3772 
Q 3303 3878 2944 3878 
Q 2300 3878 1931 3465 
Q 1563 3053 1563 2328 
Q 1563 1606 1931 1193 
Q 2300 781 2944 781 
Q 3303 781 3628 887 
Q 3953 994 4288 1222 
L 4288 256 
z
" transform="scale(0.015625)"/>
       <path id="DejaVuSans-Bold-61" d="M 2106 1575 
Q 1756 1575 1579 1456 
Q 1403 1338 1403 1106 
Q 1403 894 1545 773 
Q 1688 653 1941 653 
Q 2256 653 2472 879 
Q 2688 1106 2688 1447 
L 2688 1575 
L 2106 1575 
z
M 3816 1997 
L 3816 0 
L 2688 0 
L 2688 519 
Q 2463 200 2181 54 
Q 1900 -91 1497 -91 
Q 953 -91 614 226 
Q 275 544 275 1050 
Q 275 1666 698 1953 
Q 1122 2241 2028 2241 
L 2688 2241 
L 2688 2328 
Q 2688 2594 2478 2717 
Q 2269 2841 1825 2841 
Q 1466 2841 1156 2769 
Q 847 2697 581 2553 
L 581 3406 
Q 941 3494 1303 3539 
Q 1666 3584 2028 3584 
Q 2975 3584 3395 3211 
Q 3816 2838 3816 1997 
z
" transform="scale(0.015625)"/>
       <path id="DejaVuSans-Bold-6c" d="M 538 4863 
L 1656 4863 
L 1656 0 
L 538 0 
L 538 4863 
z
" transform="scale(0.015625)"/>
       <path id="DejaVuSans-Bold-52" d="M 2297 2597 
Q 2675 2597 2839 2737 
Q 3003 2878 3003 3200 
Q 3003 3519 2839 3656 
Q 2675 3794 2297 3794 
L 1791 3794 
L 1791 2597 
L 2297 2597 
z
M 1791 1766 
L 1791 0 
L 588 0 
L 588 4666 
L 2425 4666 
Q 3347 4666 3776 4356 
Q 4206 4047 4206 3378 
Q 4206 2916 3982 2619 
Q 3759 2322 3309 2181 
Q 3556 2125 3751 1926 
Q 3947 1728 4147 1325 
L 4800 0 
L 3519 0 
L 2950 1159 
Q 2778 1509 2601 1637 
Q 2425 1766 2131 1766 
L 1791 1766 
z
" transform="scale(0.015625)"/>
       <path id="DejaVuSans-Bold-25" d="M 4959 1925 
Q 4738 1925 4616 1733 
Q 4494 1541 4494 1184 
Q 4494 825 4614 633 
Q 4734 441 4959 441 
Q 5184 441 5303 633 
Q 5422 825 5422 1184 
Q 5422 1541 5301 1733 
Q 5181 1925 4959 1925 
z
M 4959 2450 
Q 5541 2450 5875 2112 
Q 6209 1775 6209 1184 
Q 6209 594 5875 251 
Q 5541 -91 4959 -91 
Q 4378 -91 4042 251 
Q 3706 594 3706 1184 
Q 3706 1772 4042 2111 
Q 4378 2450 4959 2450 
z
M 2094 -91 
L 1403 -91 
L 4319 4750 
L 5013 4750 
L 2094 -91 
z
M 1453 4750 
Q 2034 4750 2367 4411 
Q 2700 4072 2700 3481 
Q 2700 2891 2367 2550 
Q 2034 2209 1453 2209 
Q 872 2209 539 2550 
Q 206 2891 206 3481 
Q 206 4072 539 4411 
Q 872 4750 1453 4750 
z
M 1453 4225 
Q 1228 4225 1106 4031 
Q 984 3838 984 3481 
Q 984 3122 1106 2926 
Q 1228 2731 1453 2731 
Q 1678 2731 1798 2926 
Q 1919 3122 1919 3481 
Q 1919 3838 1797 4031 
Q 1675 4225 1453 4225 
z
" transform="scale(0.015625)"/>
      </defs>
      <use xlink:href="#DejaVuSans-Bold-43"/>
      <use xlink:href="#DejaVuSans-Bold-61" x="73.388672"/>
      <use xlink:href="#DejaVuSans-Bold-6e" x="140.869141"/>
      <use xlink:href="#DejaVuSans-Bold-63" x="212.060547"/>
      <use xlink:href="#DejaVuSans-Bold-65" x="271.337891"/>
      <use xlink:href="#DejaVuSans-Bold-6c" x="339.160156"/>
      <use xlink:href="#DejaVuSans-Bold-6c" x="373.4375"/>
      <use xlink:href="#DejaVuSans-Bold-61" x="407.714844"/>
      <use xlink:href="#DejaVuSans-Bold-74" x="475.195312"/>
      <use xlink:href="#DejaVuSans-Bold-69" x="522.998047"/>
      <use xlink:href="#DejaVuSans-Bold-6f" x="557.275391"/>
      <use xlink:href="#DejaVuSans-Bold-6e" x="625.976562"/>
      <use xlink:href="#DejaVuSans-Bold-20" x="697.167969"/>
      <use xlink:href="#DejaVuSans-Bold-52" x="731.982422"/>
      <use xlink:href="#DejaVuSans-Bold-61" x="808.984375"/>
      <use xlink:href="#DejaVuSans-Bold-74" x="876.464844"/>
      <use xlink:href="#DejaVuSans-Bold-65" x="924.267578"/>
      <use xlink:href="#DejaVuSans-Bold-20" x="992.089844"/>
      <use xlink:href="#DejaVuSans-Bold-28" x="1026.904297"/>
      <use xlink:href="#DejaVuSans-Bold-25" x="1072.607422"/>
      <use xlink:href="#DejaVuSans-Bold-29" x="1172.802734"/>
     </g>
    </g>
   </g>
   <g id="patch_4">
    <path d="M 50.836875 526.927562 
L 50.836875 100.511562 
" style="fill: none; stroke: #000000; stroke-width: 0.8; stroke-linejoin: miter; stroke-linecap: square"/>
   </g>
   <g id="patch_5">
    <path d="M 849.566875 526.927562 
L 849.566875 100.511562 
" style="fill: none; stroke: #000000; stroke-width: 0.8; stroke-linejoin: miter; stroke-linecap: square"/>
   </g>
   <g id="patch_6">
    <path d="M 50.836875 526.927563 
L 849.566875 526.927563 
" style="fill: none; stroke: #000000; stroke-width: 0.8; stroke-linejoin: miter; stroke-linecap: square"/>
   </g>
   <g id="patch_7">
    <path d="M 50.836875 100.511563 
L 849.566875 100.511563 
" style="fill: none; stroke: #000000; stroke-width: 0.8; stroke-linejoin: miter; stroke-linecap: square"/>
   </g>
   <g id="line2d_31">
    <path d="M 87.142784 114.266917 
L 111.346723 114.282608 
L 135.550663 114.31399 
L 159.754602 114.342234 
L 183.958542 114.379892 
L 208.162481 114.423827 
L 232.36642 116.881025 
L 256.57036 129.047768 
L 280.774299 143.910212 
L 304.978239 162.196415 
L 329.182178 182.647966 
L 348.724593 569.355063 
" clip-path="url(#p88af75fc88)" style="fill: none; stroke: #1f77b4; stroke-width: 2.5; stroke-linecap: square"/>
    <defs>
     <path id="m58b10be435" d="M 0 3.5 
C 0.928211 3.5 1.81853 3.131218 2.474874 2.474874 
C 3.131218 1.81853 3.5 0.928211 3.5 0 
C 3.5 -0.928211 3.131218 -1.81853 2.474874 -2.474874 
C 1.81853 -3.131218 0.928211 -3.5 0 -3.5 
C -0.928211 -3.5 -1.81853 -3.131218 -2.474874 -2.474874 
C -3.131218 -1.81853 -3.5 -0.928211 -3.5 0 
C -3.5 0.928211 -3.131218 1.81853 -2.474874 2.474874 
C -1.81853 3.131218 -0.928211 3.5 0 3.5 
z
" style="stroke: #1f77b4"/>
    </defs>
    <g clip-path="url(#p88af75fc88)">
     <use xlink:href="#m58b10be435" x="87.142784" y="114.266917" style="fill: #1f77b4; stroke: #1f77b4"/>
     <use xlink:href="#m58b10be435" x="111.346723" y="114.282608" style="fill: #1f77b4; stroke: #1f77b4"/>
     <use xlink:href="#m58b10be435" x="135.550663" y="114.31399" style="fill: #1f77b4; stroke: #1f77b4"/>
     <use xlink:href="#m58b10be435" x="159.754602" y="114.342234" style="fill: #1f77b4; stroke: #1f77b4"/>
     <use xlink:href="#m58b10be435" x="183.958542" y="114.379892" style="fill: #1f77b4; stroke: #1f77b4"/>
     <use xlink:href="#m58b10be435" x="208.162481" y="114.423827" style="fill: #1f77b4; stroke: #1f77b4"/>
     <use xlink:href="#m58b10be435" x="232.36642" y="116.881025" style="fill: #1f77b4; stroke: #1f77b4"/>
     <use xlink:href="#m58b10be435" x="256.57036" y="129.047768" style="fill: #1f77b4; stroke: #1f77b4"/>
     <use xlink:href="#m58b10be435" x="280.774299" y="143.910212" style="fill: #1f77b4; stroke: #1f77b4"/>
     <use xlink:href="#m58b10be435" x="304.978239" y="162.196415" style="fill: #1f77b4; stroke: #1f77b4"/>
     <use xlink:href="#m58b10be435" x="329.182178" y="182.647966" style="fill: #1f77b4; stroke: #1f77b4"/>
     <use xlink:href="#m58b10be435" x="353.386117" y="661.597747" style="fill: #1f77b4; stroke: #1f77b4"/>
     <use xlink:href="#m58b10be435" x="377.590057" y="664.346797" style="fill: #1f77b4; stroke: #1f77b4"/>
     <use xlink:href="#m58b10be435" x="401.793996" y="667.196268" style="fill: #1f77b4; stroke: #1f77b4"/>
     <use xlink:href="#m58b10be435" x="425.997936" y="668.690044" style="fill: #1f77b4; stroke: #1f77b4"/>
     <use xlink:href="#m58b10be435" x="450.201875" y="670.193235" style="fill: #1f77b4; stroke: #1f77b4"/>
     <use xlink:href="#m58b10be435" x="474.405814" y="670.709167" style="fill: #1f77b4; stroke: #1f77b4"/>
     <use xlink:href="#m58b10be435" x="498.609754" y="672.064866" style="fill: #1f77b4; stroke: #1f77b4"/>
     <use xlink:href="#m58b10be435" x="522.813693" y="673.417427" style="fill: #1f77b4; stroke: #1f77b4"/>
     <use xlink:href="#m58b10be435" x="547.017633" y="673.295037" style="fill: #1f77b4; stroke: #1f77b4"/>
     <use xlink:href="#m58b10be435" x="571.221572" y="672.370544" style="fill: #1f77b4; stroke: #1f77b4"/>
     <use xlink:href="#m58b10be435" x="619.629451" y="669.812911" style="fill: #1f77b4; stroke: #1f77b4"/>
     <use xlink:href="#m58b10be435" x="692.241269" y="667.04502" style="fill: #1f77b4; stroke: #1f77b4"/>
     <use xlink:href="#m58b10be435" x="764.853087" y="662.023901" style="fill: #1f77b4; stroke: #1f77b4"/>
     <use xlink:href="#m58b10be435" x="813.260966" y="658.223542" style="fill: #1f77b4; stroke: #1f77b4"/>
    </g>
   </g>
   <g id="text_17">
    <!-- Early Drop-off Analysis: Cancellation Rate vs Prediction Horizon -->
    <g transform="translate(180.162031 18.597656) scale(0.15 -0.15)">
     <defs>
      <path id="DejaVuSans-Bold-45" d="M 588 4666 
L 3834 4666 
L 3834 3756 
L 1791 3756 
L 1791 2888 
L 3713 2888 
L 3713 1978 
L 1791 1978 
L 1791 909 
L 3903 909 
L 3903 0 
L 588 0 
L 588 4666 
z
" transform="scale(0.015625)"/>
      <path id="DejaVuSans-Bold-79" d="M 78 3500 
L 1197 3500 
L 2138 1125 
L 2938 3500 
L 4056 3500 
L 2584 -331 
Q 2363 -916 2067 -1148 
Q 1772 -1381 1288 -1381 
L 641 -1381 
L 641 -647 
L 991 -647 
Q 1275 -647 1404 -556 
Q 1534 -466 1606 -231 
L 1638 -134 
L 78 3500 
z
" transform="scale(0.015625)"/>
      <path id="DejaVuSans-Bold-44" d="M 1791 3756 
L 1791 909 
L 2222 909 
Q 2959 909 3348 1275 
Q 3738 1641 3738 2338 
Q 3738 3031 3350 3393 
Q 2963 3756 2222 3756 
L 1791 3756 
z
M 588 4666 
L 1856 4666 
Q 2919 4666 3439 4514 
Q 3959 4363 4331 4000 
Q 4659 3684 4818 3271 
Q 4978 2859 4978 2338 
Q 4978 1809 4818 1395 
Q 4659 981 4331 666 
Q 3956 303 3431 151 
Q 2906 0 1856 0 
L 588 0 
L 588 4666 
z
" transform="scale(0.015625)"/>
      <path id="DejaVuSans-Bold-70" d="M 1656 506 
L 1656 -1331 
L 538 -1331 
L 538 3500 
L 1656 3500 
L 1656 2988 
Q 1888 3294 2169 3439 
Q 2450 3584 2816 3584 
Q 3463 3584 3878 3070 
Q 4294 2556 4294 1747 
Q 4294 938 3878 423 
Q 3463 -91 2816 -91 
Q 2450 -91 2169 54 
Q 1888 200 1656 506 
z
M 2400 2772 
Q 2041 2772 1848 2508 
Q 1656 2244 1656 1747 
Q 1656 1250 1848 986 
Q 2041 722 2400 722 
Q 2759 722 2948 984 
Q 3138 1247 3138 1747 
Q 3138 2247 2948 2509 
Q 2759 2772 2400 2772 
z
" transform="scale(0.015625)"/>
      <path id="DejaVuSans-Bold-2d" d="M 347 2297 
L 2309 2297 
L 2309 1388 
L 347 1388 
L 347 2297 
z
" transform="scale(0.015625)"/>
      <path id="DejaVuSans-Bold-66" d="M 2841 4863 
L 2841 4128 
L 2222 4128 
Q 1984 4128 1890 4042 
Q 1797 3956 1797 3744 
L 1797 3500 
L 2753 3500 
L 2753 2700 
L 1797 2700 
L 1797 0 
L 678 0 
L 678 2700 
L 122 2700 
L 122 3500 
L 678 3500 
L 678 3744 
Q 678 4316 997 4589 
Q 1316 4863 1984 4863 
L 2841 4863 
z
" transform="scale(0.015625)"/>
      <path id="DejaVuSans-Bold-41" d="M 3419 850 
L 1538 850 
L 1241 0 
L 31 0 
L 1759 4666 
L 3194 4666 
L 4922 0 
L 3713 0 
L 3419 850 
z
M 1838 1716 
L 3116 1716 
L 2478 3572 
L 1838 1716 
z
" transform="scale(0.015625)"/>
      <path id="DejaVuSans-Bold-3a" d="M 716 3500 
L 1844 3500 
L 1844 2291 
L 716 2291 
L 716 3500 
z
M 716 1209 
L 1844 1209 
L 1844 0 
L 716 0 
L 716 1209 
z
" transform="scale(0.015625)"/>
      <path id="DejaVuSans-Bold-76" d="M 97 3500 
L 1216 3500 
L 2088 1081 
L 2956 3500 
L 4078 3500 
L 2700 0 
L 1472 0 
L 97 3500 
z
" transform="scale(0.015625)"/>
     </defs>
     <use xlink:href="#DejaVuSans-Bold-45"/>
     <use xlink:href="#DejaVuSans-Bold-61" x="68.310547"/>
     <use xlink:href="#DejaVuSans-Bold-72" x="135.791016"/>
     <use xlink:href="#DejaVuSans-Bold-6c" x="185.107422"/>
     <use xlink:href="#DejaVuSans-Bold-79" x="219.384766"/>
     <use xlink:href="#DejaVuSans-Bold-20" x="284.570312"/>
     <use xlink:href="#DejaVuSans-Bold-44" x="319.384766"/>
     <use xlink:href="#DejaVuSans-Bold-72" x="402.392578"/>
     <use xlink:href="#DejaVuSans-Bold-6f" x="451.708984"/>
     <use xlink:href="#DejaVuSans-Bold-70" x="520.410156"/>
     <use xlink:href="#DejaVuSans-Bold-2d" x="591.992188"/>
     <use xlink:href="#DejaVuSans-Bold-6f" x="633.496094"/>
     <use xlink:href="#DejaVuSans-Bold-66" x="702.197266"/>
     <use xlink:href="#DejaVuSans-Bold-66" x="745.703125"/>
     <use xlink:href="#DejaVuSans-Bold-20" x="789.208984"/>
     <use xlink:href="#DejaVuSans-Bold-41" x="824.023438"/>
     <use xlink:href="#DejaVuSans-Bold-6e" x="901.416016"/>
     <use xlink:href="#DejaVuSans-Bold-61" x="972.607422"/>
     <use xlink:href="#DejaVuSans-Bold-6c" x="1040.087891"/>
     <use xlink:href="#DejaVuSans-Bold-79" x="1074.365234"/>
     <use xlink:href="#DejaVuSans-Bold-73" x="1139.550781"/>
     <use xlink:href="#DejaVuSans-Bold-69" x="1199.072266"/>
     <use xlink:href="#DejaVuSans-Bold-73" x="1233.349609"/>
     <use xlink:href="#DejaVuSans-Bold-3a" x="1292.871094"/>
     <use xlink:href="#DejaVuSans-Bold-20" x="1332.861328"/>
     <use xlink:href="#DejaVuSans-Bold-43" x="1367.675781"/>
     <use xlink:href="#DejaVuSans-Bold-61" x="1441.064453"/>
     <use xlink:href="#DejaVuSans-Bold-6e" x="1508.544922"/>
     <use xlink:href="#DejaVuSans-Bold-63" x="1579.736328"/>
     <use xlink:href="#DejaVuSans-Bold-65" x="1639.013672"/>
     <use xlink:href="#DejaVuSans-Bold-6c" x="1706.835938"/>
     <use xlink:href="#DejaVuSans-Bold-6c" x="1741.113281"/>
     <use xlink:href="#DejaVuSans-Bold-61" x="1775.390625"/>
     <use xlink:href="#DejaVuSans-Bold-74" x="1842.871094"/>
     <use xlink:href="#DejaVuSans-Bold-69" x="1890.673828"/>
     <use xlink:href="#DejaVuSans-Bold-6f" x="1924.951172"/>
     <use xlink:href="#DejaVuSans-Bold-6e" x="1993.652344"/>
     <use xlink:href="#DejaVuSans-Bold-20" x="2064.84375"/>
     <use xlink:href="#DejaVuSans-Bold-52" x="2099.658203"/>
     <use xlink:href="#DejaVuSans-Bold-61" x="2176.660156"/>
     <use xlink:href="#DejaVuSans-Bold-74" x="2244.140625"/>
     <use xlink:href="#DejaVuSans-Bold-65" x="2291.943359"/>
     <use xlink:href="#DejaVuSans-Bold-20" x="2359.765625"/>
     <use xlink:href="#DejaVuSans-Bold-76" x="2394.580078"/>
     <use xlink:href="#DejaVuSans-Bold-73" x="2459.765625"/>
     <use xlink:href="#DejaVuSans-Bold-20" x="2519.287109"/>
     <use xlink:href="#DejaVuSans-Bold-50" x="2554.101562"/>
     <use xlink:href="#DejaVuSans-Bold-72" x="2627.392578"/>
     <use xlink:href="#DejaVuSans-Bold-65" x="2676.708984"/>
     <use xlink:href="#DejaVuSans-Bold-64" x="2744.53125"/>
     <use xlink:href="#DejaVuSans-Bold-69" x="2816.113281"/>
     <use xlink:href="#DejaVuSans-Bold-63" x="2850.390625"/>
     <use xlink:href="#DejaVuSans-Bold-74" x="2909.667969"/>
     <use xlink:href="#DejaVuSans-Bold-69" x="2957.470703"/>
     <use xlink:href="#DejaVuSans-Bold-6f" x="2991.748047"/>
     <use xlink:href="#DejaVuSans-Bold-6e" x="3060.449219"/>
     <use xlink:href="#DejaVuSans-Bold-20" x="3131.640625"/>
     <use xlink:href="#DejaVuSans-Bold-48" x="3166.455078"/>
     <use xlink:href="#DejaVuSans-Bold-6f" x="3250.146484"/>
     <use xlink:href="#DejaVuSans-Bold-72" x="3318.847656"/>
     <use xlink:href="#DejaVuSans-Bold-69" x="3368.164062"/>
     <use xlink:href="#DejaVuSans-Bold-7a" x="3402.441406"/>
     <use xlink:href="#DejaVuSans-Bold-6f" x="3460.644531"/>
     <use xlink:href="#DejaVuSans-Bold-6e" x="3529.345703"/>
    </g>
    <!-- (Fine Resolution: 0.1ms steps, 50k event representative sample) -->
    <g transform="translate(175.147578 35.511563) scale(0.15 -0.15)">
     <defs>
      <path id="DejaVuSans-Bold-46" d="M 588 4666 
L 3834 4666 
L 3834 3756 
L 1791 3756 
L 1791 2888 
L 3713 2888 
L 3713 1978 
L 1791 1978 
L 1791 0 
L 588 0 
L 588 4666 
z
" transform="scale(0.015625)"/>
      <path id="DejaVuSans-Bold-75" d="M 500 1363 
L 500 3500 
L 1625 3500 
L 1625 3150 
Q 1625 2866 1622 2436 
Q 1619 2006 1619 1863 
Q 1619 1441 1641 1255 
Q 1663 1069 1716 984 
Q 1784 875 1895 815 
Q 2006 756 2150 756 
Q 2500 756 2700 1025 
Q 2900 1294 2900 1772 
L 2900 3500 
L 4019 3500 
L 4019 0 
L 2900 0 
L 2900 506 
Q 2647 200 2364 54 
Q 2081 -91 1741 -91 
Q 1134 -91 817 281 
Q 500 653 500 1363 
z
" transform="scale(0.015625)"/>
      <path id="DejaVuSans-Bold-30" d="M 2944 2338 
Q 2944 3213 2780 3570 
Q 2616 3928 2228 3928 
Q 1841 3928 1675 3570 
Q 1509 3213 1509 2338 
Q 1509 1453 1675 1090 
Q 1841 728 2228 728 
Q 2613 728 2778 1090 
Q 2944 1453 2944 2338 
z
M 4147 2328 
Q 4147 1169 3647 539 
Q 3147 -91 2228 -91 
Q 1306 -91 806 539 
Q 306 1169 306 2328 
Q 306 3491 806 4120 
Q 1306 4750 2228 4750 
Q 3147 4750 3647 4120 
Q 4147 3491 4147 2328 
z
" transform="scale(0.015625)"/>
      <path id="DejaVuSans-Bold-2e" d="M 653 1209 
L 1778 1209 
L 1778 0 
L 653 0 
L 653 1209 
z
" transform="scale(0.015625)"/>
      <path id="DejaVuSans-Bold-31" d="M 750 831 
L 1813 831 
L 1813 3847 
L 722 3622 
L 722 4441 
L 1806 4666 
L 2950 4666 
L 2950 831 
L 4013 831 
L 4013 0 
L 750 0 
L 750 831 
z
" transform="scale(0.015625)"/>
      <path id="DejaVuSans-Bold-2c" d="M 653 1209 
L 1778 1209 
L 1778 256 
L 1006 -909 
L 341 -909 
L 653 256 
L 653 1209 
z
" transform="scale(0.015625)"/>
      <path id="DejaVuSans-Bold-35" d="M 678 4666 
L 3669 4666 
L 3669 3781 
L 1638 3781 
L 1638 3059 
Q 1775 3097 1914 3117 
Q 2053 3138 2203 3138 
Q 3056 3138 3531 2711 
Q 4006 2284 4006 1522 
Q 4006 766 3489 337 
Q 2972 -91 2053 -91 
Q 1656 -91 1267 -14 
Q 878 63 494 219 
L 494 1166 
Q 875 947 1217 837 
Q 1559 728 1863 728 
Q 2300 728 2551 942 
Q 2803 1156 2803 1522 
Q 2803 1891 2551 2103 
Q 2300 2316 1863 2316 
Q 1603 2316 1309 2248 
Q 1016 2181 678 2041 
L 678 4666 
z
" transform="scale(0.015625)"/>
      <path id="DejaVuSans-Bold-6b" d="M 538 4863 
L 1656 4863 
L 1656 2216 
L 2944 3500 
L 4244 3500 
L 2534 1894 
L 4378 0 
L 3022 0 
L 1656 1459 
L 1656 0 
L 538 0 
L 538 4863 
z
" transform="scale(0.015625)"/>
     </defs>
     <use xlink:href="#DejaVuSans-Bold-28"/>
     <use xlink:href="#DejaVuSans-Bold-46" x="45.703125"/>
     <use xlink:href="#DejaVuSans-Bold-69" x="114.013672"/>
     <use xlink:href="#DejaVuSans-Bold-6e" x="148.291016"/>
     <use xlink:href="#DejaVuSans-Bold-65" x="219.482422"/>
     <use xlink:href="#DejaVuSans-Bold-20" x="287.304688"/>
     <use xlink:href="#DejaVuSans-Bold-52" x="322.119141"/>
     <use xlink:href="#DejaVuSans-Bold-65" x="399.121094"/>
     <use xlink:href="#DejaVuSans-Bold-73" x="466.943359"/>
     <use xlink:href="#DejaVuSans-Bold-6f" x="526.464844"/>
     <use xlink:href="#DejaVuSans-Bold-6c" x="595.166016"/>
     <use xlink:href="#DejaVuSans-Bold-75" x="629.443359"/>
     <use xlink:href="#DejaVuSans-Bold-74" x="700.634766"/>
     <use xlink:href="#DejaVuSans-Bold-69" x="748.4375"/>
     <use xlink:href="#DejaVuSans-Bold-6f" x="782.714844"/>
     <use xlink:href="#DejaVuSans-Bold-6e" x="851.416016"/>
     <use xlink:href="#DejaVuSans-Bold-3a" x="922.607422"/>
     <use xlink:href="#DejaVuSans-Bold-20" x="962.597656"/>
     <use xlink:href="#DejaVuSans-Bold-30" x="997.412109"/>
     <use xlink:href="#DejaVuSans-Bold-2e" x="1066.992188"/>
     <use xlink:href="#DejaVuSans-Bold-31" x="1104.980469"/>
     <use xlink:href="#DejaVuSans-Bold-6d" x="1174.560547"/>
     <use xlink:href="#DejaVuSans-Bold-73" x="1278.759766"/>
     <use xlink:href="#DejaVuSans-Bold-20" x="1338.28125"/>
     <use xlink:href="#DejaVuSans-Bold-73" x="1373.095703"/>
     <use xlink:href="#DejaVuSans-Bold-74" x="1432.617188"/>
     <use xlink:href="#DejaVuSans-Bold-65" x="1480.419922"/>
     <use xlink:href="#DejaVuSans-Bold-70" x="1548.242188"/>
     <use xlink:href="#DejaVuSans-Bold-73" x="1619.824219"/>
     <use xlink:href="#DejaVuSans-Bold-2c" x="1679.345703"/>
     <use xlink:href="#DejaVuSans-Bold-20" x="1717.333984"/>
     <use xlink:href="#DejaVuSans-Bold-35" x="1752.148438"/>
     <use xlink:href="#DejaVuSans-Bold-30" x="1821.728516"/>
     <use xlink:href="#DejaVuSans-Bold-6b" x="1891.308594"/>
     <use xlink:href="#DejaVuSans-Bold-20" x="1957.8125"/>
     <use xlink:href="#DejaVuSans-Bold-65" x="1992.626953"/>
     <use xlink:href="#DejaVuSans-Bold-76" x="2060.449219"/>
     <use xlink:href="#DejaVuSans-Bold-65" x="2125.634766"/>
     <use xlink:href="#DejaVuSans-Bold-6e" x="2193.457031"/>
     <use xlink:href="#DejaVuSans-Bold-74" x="2264.648438"/>
     <use xlink:href="#DejaVuSans-Bold-20" x="2312.451172"/>
     <use xlink:href="#DejaVuSans-Bold-72" x="2347.265625"/>
     <use xlink:href="#DejaVuSans-Bold-65" x="2396.582031"/>
     <use xlink:href="#DejaVuSans-Bold-70" x="2464.404297"/>
     <use xlink:href="#DejaVuSans-Bold-72" x="2535.986328"/>
     <use xlink:href="#DejaVuSans-Bold-65" x="2585.302734"/>
     <use xlink:href="#DejaVuSans-Bold-73" x="2653.125"/>
     <use xlink:href="#DejaVuSans-Bold-65" x="2712.646484"/>
     <use xlink:href="#DejaVuSans-Bold-6e" x="2780.46875"/>
     <use xlink:href="#DejaVuSans-Bold-74" x="2851.660156"/>
     <use xlink:href="#DejaVuSans-Bold-61" x="2899.462891"/>
     <use xlink:href="#DejaVuSans-Bold-74" x="2966.943359"/>
     <use xlink:href="#DejaVuSans-Bold-69" x="3014.746094"/>
     <use xlink:href="#DejaVuSans-Bold-76" x="3049.023438"/>
     <use xlink:href="#DejaVuSans-Bold-65" x="3114.208984"/>
     <use xlink:href="#DejaVuSans-Bold-20" x="3182.03125"/>
     <use xlink:href="#DejaVuSans-Bold-73" x="3216.845703"/>
     <use xlink:href="#DejaVuSans-Bold-61" x="3276.367188"/>
     <use xlink:href="#DejaVuSans-Bold-6d" x="3343.847656"/>
     <use xlink:href="#DejaVuSans-Bold-70" x="3448.046875"/>
     <use xlink:href="#DejaVuSans-Bold-6c" x="3519.628906"/>
     <use xlink:href="#DejaVuSans-Bold-65" x="3553.90625"/>
     <use xlink:href="#DejaVuSans-Bold-29" x="3621.728516"/>
    </g>
   </g>
   <g id="line2d_32">
    <defs>
     <path id="mab6149b614" d="M 0 6 
C 1.591219 6 3.117479 5.367802 4.242641 4.242641 
C 5.367802 3.117479 6 1.591219 6 0 
C 6 -1.591219 5.367802 -3.117479 4.242641 -4.242641 
C 3.117479 -5.367802 1.591219 -6 0 -6 
C -1.591219 -6 -3.117479 -5.367802 -4.242641 -4.242641 
C -5.367802 -3.117479 -6 -1.591219 -6 0 
C -6 1.591219 -5.367802 3.117479 -4.242641 4.242641 
C -3.117479 5.367802 -1.591219 6 0 6 
z
" style="stroke: #ff0000"/>
    </defs>
    <g clip-path="url(#p88af75fc88)">
     <use xlink:href="#mab6149b614" x="353.386117" y="661.597747" style="fill: #ff0000; stroke: #ff0000"/>
    </g>
   </g>
   <g id="legend_1">
    <g id="patch_8">
     <path d="M 58.536875 521.427563 
L 190.583281 521.427563 
Q 192.783281 521.427563 192.783281 519.227562 
L 192.783281 439.597875 
Q 192.783281 437.397875 190.583281 437.397875 
L 58.536875 437.397875 
Q 56.336875 437.397875 56.336875 439.597875 
L 56.336875 519.227562 
Q 56.336875 521.427563 58.536875 521.427563 
z
" style="fill: #ffffff; opacity: 0.95; stroke: #cccccc; stroke-linejoin: miter"/>
    </g>
    <g id="line2d_33">
     <path d="M 60.736875 446.306156 
L 71.736875 446.306156 
L 82.736875 446.306156 
" style="fill: none; stroke: #1f77b4; stroke-width: 2.5; stroke-linecap: square"/>
     <g>
      <use xlink:href="#m58b10be435" x="71.736875" y="446.306156" style="fill: #1f77b4; stroke: #1f77b4"/>
     </g>
    </g>
    <g id="text_18">
     <!-- Cancellation Rate -->
     <g transform="translate(91.536875 450.156156) scale(0.11 -0.11)">
      <defs>
       <path id="DejaVuSans-43" d="M 4122 4306 
L 4122 3641 
Q 3803 3938 3442 4084 
Q 3081 4231 2675 4231 
Q 1875 4231 1450 3742 
Q 1025 3253 1025 2328 
Q 1025 1406 1450 917 
Q 1875 428 2675 428 
Q 3081 428 3442 575 
Q 3803 722 4122 1019 
L 4122 359 
Q 3791 134 3420 21 
Q 3050 -91 2638 -91 
Q 1578 -91 968 557 
Q 359 1206 359 2328 
Q 359 3453 968 4101 
Q 1578 4750 2638 4750 
Q 3056 4750 3426 4639 
Q 3797 4528 4122 4306 
z
" transform="scale(0.015625)"/>
       <path id="DejaVuSans-61" d="M 2194 1759 
Q 1497 1759 1228 1600 
Q 959 1441 959 1056 
Q 959 750 1161 570 
Q 1363 391 1709 391 
Q 2188 391 2477 730 
Q 2766 1069 2766 1631 
L 2766 1759 
L 2194 1759 
z
M 3341 1997 
L 3341 0 
L 2766 0 
L 2766 531 
Q 2569 213 2275 61 
Q 1981 -91 1556 -91 
Q 1019 -91 701 211 
Q 384 513 384 1019 
Q 384 1609 779 1909 
Q 1175 2209 1959 2209 
L 2766 2209 
L 2766 2266 
Q 2766 2663 2505 2880 
Q 2244 3097 1772 3097 
Q 1472 3097 1187 3025 
Q 903 2953 641 2809 
L 641 3341 
Q 956 3463 1253 3523 
Q 1550 3584 1831 3584 
Q 2591 3584 2966 3190 
Q 3341 2797 3341 1997 
z
" transform="scale(0.015625)"/>
       <path id="DejaVuSans-6e" d="M 3513 2113 
L 3513 0 
L 2938 0 
L 2938 2094 
Q 2938 2591 2744 2837 
Q 2550 3084 2163 3084 
Q 1697 3084 1428 2787 
Q 1159 2491 1159 1978 
L 1159 0 
L 581 0 
L 581 3500 
L 1159 3500 
L 1159 2956 
Q 1366 3272 1645 3428 
Q 1925 3584 2291 3584 
Q 2894 3584 3203 3211 
Q 3513 2838 3513 2113 
z
" transform="scale(0.015625)"/>
       <path id="DejaVuSans-63" d="M 3122 3366 
L 3122 2828 
Q 2878 2963 2633 3030 
Q 2388 3097 2138 3097 
Q 1578 3097 1268 2742 
Q 959 2388 959 1747 
Q 959 1106 1268 751 
Q 1578 397 2138 397 
Q 2388 397 2633 464 
Q 2878 531 3122 666 
L 3122 134 
Q 2881 22 2623 -34 
Q 2366 -91 2075 -91 
Q 1284 -91 818 406 
Q 353 903 353 1747 
Q 353 2603 823 3093 
Q 1294 3584 2113 3584 
Q 2378 3584 2631 3529 
Q 2884 3475 3122 3366 
z
" transform="scale(0.015625)"/>
       <path id="DejaVuSans-65" d="M 3597 1894 
L 3597 1613 
L 953 1613 
Q 991 1019 1311 708 
Q 1631 397 2203 397 
Q 2534 397 2845 478 
Q 3156 559 3463 722 
L 3463 178 
Q 3153 47 2828 -22 
Q 2503 -91 2169 -91 
Q 1331 -91 842 396 
Q 353 884 353 1716 
Q 353 2575 817 3079 
Q 1281 3584 2069 3584 
Q 2775 3584 3186 3129 
Q 3597 2675 3597 1894 
z
M 3022 2063 
Q 3016 2534 2758 2815 
Q 2500 3097 2075 3097 
Q 1594 3097 1305 2825 
Q 1016 2553 972 2059 
L 3022 2063 
z
" transform="scale(0.015625)"/>
       <path id="DejaVuSans-6c" d="M 603 4863 
L 1178 4863 
L 1178 0 
L 603 0 
L 603 4863 
z
" transform="scale(0.015625)"/>
       <path id="DejaVuSans-74" d="M 1172 4494 
L 1172 3500 
L 2356 3500 
L 2356 3053 
L 1172 3053 
L 1172 1153 
Q 1172 725 1289 603 
Q 1406 481 1766 481 
L 2356 481 
L 2356 0 
L 1766 0 
Q 1100 0 847 248 
Q 594 497 594 1153 
L 594 3053 
L 172 3053 
L 172 3500 
L 594 3500 
L 594 4494 
L 1172 4494 
z
" transform="scale(0.015625)"/>
       <path id="DejaVuSans-69" d="M 603 3500 
L 1178 3500 
L 1178 0 
L 603 0 
L 603 3500 
z
M 603 4863 
L 1178 4863 
L 1178 4134 
L 603 4134 
L 603 4863 
z
" transform="scale(0.015625)"/>
       <path id="DejaVuSans-6f" d="M 1959 3097 
Q 1497 3097 1228 2736 
Q 959 2375 959 1747 
Q 959 1119 1226 758 
Q 1494 397 1959 397 
Q 2419 397 2687 759 
Q 2956 1122 2956 1747 
Q 2956 2369 2687 2733 
Q 2419 3097 1959 3097 
z
M 1959 3584 
Q 2709 3584 3137 3096 
Q 3566 2609 3566 1747 
Q 3566 888 3137 398 
Q 2709 -91 1959 -91 
Q 1206 -91 779 398 
Q 353 888 353 1747 
Q 353 2609 779 3096 
Q 1206 3584 1959 3584 
z
" transform="scale(0.015625)"/>
       <path id="DejaVuSans-20" transform="scale(0.015625)"/>
       <path id="DejaVuSans-52" d="M 2841 2188 
Q 3044 2119 3236 1894 
Q 3428 1669 3622 1275 
L 4263 0 
L 3584 0 
L 2988 1197 
Q 2756 1666 2539 1819 
Q 2322 1972 1947 1972 
L 1259 1972 
L 1259 0 
L 628 0 
L 628 4666 
L 2053 4666 
Q 2853 4666 3247 4331 
Q 3641 3997 3641 3322 
Q 3641 2881 3436 2590 
Q 3231 2300 2841 2188 
z
M 1259 4147 
L 1259 2491 
L 2053 2491 
Q 2509 2491 2742 2702 
Q 2975 2913 2975 3322 
Q 2975 3731 2742 3939 
Q 2509 4147 2053 4147 
L 1259 4147 
z
" transform="scale(0.015625)"/>
      </defs>
      <use xlink:href="#DejaVuSans-43"/>
      <use xlink:href="#DejaVuSans-61" x="69.824219"/>
      <use xlink:href="#DejaVuSans-6e" x="131.103516"/>
      <use xlink:href="#DejaVuSans-63" x="194.482422"/>
      <use xlink:href="#DejaVuSans-65" x="249.462891"/>
      <use xlink:href="#DejaVuSans-6c" x="310.986328"/>
      <use xlink:href="#DejaVuSans-6c" x="338.769531"/>
      <use xlink:href="#DejaVuSans-61" x="366.552734"/>
      <use xlink:href="#DejaVuSans-74" x="427.832031"/>
      <use xlink:href="#DejaVuSans-69" x="467.041016"/>
      <use xlink:href="#DejaVuSans-6f" x="494.824219"/>
      <use xlink:href="#DejaVuSans-6e" x="556.005859"/>
      <use xlink:href="#DejaVuSans-20" x="619.384766"/>
      <use xlink:href="#DejaVuSans-52" x="651.171875"/>
      <use xlink:href="#DejaVuSans-61" x="718.404297"/>
      <use xlink:href="#DejaVuSans-74" x="779.683594"/>
      <use xlink:href="#DejaVuSans-65" x="818.892578"/>
     </g>
    </g>
    <g id="line2d_34">
     <path d="M 60.736875 462.452094 
L 71.736875 462.452094 
L 82.736875 462.452094 
" style="fill: none; stroke-dasharray: 7.4,3.2; stroke-dashoffset: 0; stroke: #808080; stroke-opacity: 0.7; stroke-width: 2"/>
    </g>
    <g id="text_19">
     <!-- 90% threshold -->
     <g transform="translate(91.536875 466.302094) scale(0.11 -0.11)">
      <defs>
       <path id="DejaVuSans-25" d="M 4653 2053 
Q 4381 2053 4226 1822 
Q 4072 1591 4072 1178 
Q 4072 772 4226 539 
Q 4381 306 4653 306 
Q 4919 306 5073 539 
Q 5228 772 5228 1178 
Q 5228 1588 5073 1820 
Q 4919 2053 4653 2053 
z
M 4653 2450 
Q 5147 2450 5437 2106 
Q 5728 1763 5728 1178 
Q 5728 594 5436 251 
Q 5144 -91 4653 -91 
Q 4153 -91 3862 251 
Q 3572 594 3572 1178 
Q 3572 1766 3864 2108 
Q 4156 2450 4653 2450 
z
M 1428 4353 
Q 1159 4353 1004 4120 
Q 850 3888 850 3481 
Q 850 3069 1003 2837 
Q 1156 2606 1428 2606 
Q 1700 2606 1854 2837 
Q 2009 3069 2009 3481 
Q 2009 3884 1853 4118 
Q 1697 4353 1428 4353 
z
M 4250 4750 
L 4750 4750 
L 1831 -91 
L 1331 -91 
L 4250 4750 
z
M 1428 4750 
Q 1922 4750 2215 4408 
Q 2509 4066 2509 3481 
Q 2509 2891 2217 2550 
Q 1925 2209 1428 2209 
Q 931 2209 642 2551 
Q 353 2894 353 3481 
Q 353 4063 643 4406 
Q 934 4750 1428 4750 
z
" transform="scale(0.015625)"/>
       <path id="DejaVuSans-68" d="M 3513 2113 
L 3513 0 
L 2938 0 
L 2938 2094 
Q 2938 2591 2744 2837 
Q 2550 3084 2163 3084 
Q 1697 3084 1428 2787 
Q 1159 2491 1159 1978 
L 1159 0 
L 581 0 
L 581 4863 
L 1159 4863 
L 1159 2956 
Q 1366 3272 1645 3428 
Q 1925 3584 2291 3584 
Q 2894 3584 3203 3211 
Q 3513 2838 3513 2113 
z
" transform="scale(0.015625)"/>
       <path id="DejaVuSans-72" d="M 2631 2963 
Q 2534 3019 2420 3045 
Q 2306 3072 2169 3072 
Q 1681 3072 1420 2755 
Q 1159 2438 1159 1844 
L 1159 0 
L 581 0 
L 581 3500 
L 1159 3500 
L 1159 2956 
Q 1341 3275 1631 3429 
Q 1922 3584 2338 3584 
Q 2397 3584 2469 3576 
Q 2541 3569 2628 3553 
L 2631 2963 
z
" transform="scale(0.015625)"/>
       <path id="DejaVuSans-73" d="M 2834 3397 
L 2834 2853 
Q 2591 2978 2328 3040 
Q 2066 3103 1784 3103 
Q 1356 3103 1142 2972 
Q 928 2841 928 2578 
Q 928 2378 1081 2264 
Q 1234 2150 1697 2047 
L 1894 2003 
Q 2506 1872 2764 1633 
Q 3022 1394 3022 966 
Q 3022 478 2636 193 
Q 2250 -91 1575 -91 
Q 1294 -91 989 -36 
Q 684 19 347 128 
L 347 722 
Q 666 556 975 473 
Q 1284 391 1588 391 
Q 1994 391 2212 530 
Q 2431 669 2431 922 
Q 2431 1156 2273 1281 
Q 2116 1406 1581 1522 
L 1381 1569 
Q 847 1681 609 1914 
Q 372 2147 372 2553 
Q 372 3047 722 3315 
Q 1072 3584 1716 3584 
Q 2034 3584 2315 3537 
Q 2597 3491 2834 3397 
z
" transform="scale(0.015625)"/>
       <path id="DejaVuSans-64" d="M 2906 2969 
L 2906 4863 
L 3481 4863 
L 3481 0 
L 2906 0 
L 2906 525 
Q 2725 213 2448 61 
Q 2172 -91 1784 -91 
Q 1150 -91 751 415 
Q 353 922 353 1747 
Q 353 2572 751 3078 
Q 1150 3584 1784 3584 
Q 2172 3584 2448 3432 
Q 2725 3281 2906 2969 
z
M 947 1747 
Q 947 1113 1208 752 
Q 1469 391 1925 391 
Q 2381 391 2643 752 
Q 2906 1113 2906 1747 
Q 2906 2381 2643 2742 
Q 2381 3103 1925 3103 
Q 1469 3103 1208 2742 
Q 947 2381 947 1747 
z
" transform="scale(0.015625)"/>
      </defs>
      <use xlink:href="#DejaVuSans-39"/>
      <use xlink:href="#DejaVuSans-30" x="63.623047"/>
      <use xlink:href="#DejaVuSans-25" x="127.246094"/>
      <use xlink:href="#DejaVuSans-20" x="222.265625"/>
      <use xlink:href="#DejaVuSans-74" x="254.052734"/>
      <use xlink:href="#DejaVuSans-68" x="293.261719"/>
      <use xlink:href="#DejaVuSans-72" x="356.640625"/>
      <use xlink:href="#DejaVuSans-65" x="395.503906"/>
      <use xlink:href="#DejaVuSans-73" x="457.027344"/>
      <use xlink:href="#DejaVuSans-68" x="509.126953"/>
      <use xlink:href="#DejaVuSans-6f" x="572.505859"/>
      <use xlink:href="#DejaVuSans-6c" x="633.6875"/>
      <use xlink:href="#DejaVuSans-64" x="661.470703"/>
     </g>
    </g>
    <g id="line2d_35">
     <path d="M 60.736875 478.598031 
L 71.736875 478.598031 
L 82.736875 478.598031 
" style="fill: none; stroke-dasharray: 2,3.3; stroke-dashoffset: 0; stroke: #808080; stroke-opacity: 0.5; stroke-width: 2"/>
    </g>
    <g id="text_20">
     <!-- 80% threshold -->
     <g transform="translate(91.536875 482.448031) scale(0.11 -0.11)">
      <use xlink:href="#DejaVuSans-38"/>
      <use xlink:href="#DejaVuSans-30" x="63.623047"/>
      <use xlink:href="#DejaVuSans-25" x="127.246094"/>
      <use xlink:href="#DejaVuSans-20" x="222.265625"/>
      <use xlink:href="#DejaVuSans-74" x="254.052734"/>
      <use xlink:href="#DejaVuSans-68" x="293.261719"/>
      <use xlink:href="#DejaVuSans-72" x="356.640625"/>
      <use xlink:href="#DejaVuSans-65" x="395.503906"/>
      <use xlink:href="#DejaVuSans-73" x="457.027344"/>
      <use xlink:href="#DejaVuSans-68" x="509.126953"/>
      <use xlink:href="#DejaVuSans-6f" x="572.505859"/>
      <use xlink:href="#DejaVuSans-6c" x="633.6875"/>
      <use xlink:href="#DejaVuSans-64" x="661.470703"/>
     </g>
    </g>
    <g id="patch_9">
     <path d="M 60.736875 498.593969 
L 82.736875 498.593969 
L 82.736875 490.893969 
L 60.736875 490.893969 
z
" style="fill: #008000; opacity: 0.15; stroke: #008000; stroke-linejoin: miter"/>
    </g>
    <g id="text_21">
     <!-- ≥90% Region -->
     <g transform="translate(91.536875 498.593969) scale(0.11 -0.11)">
      <defs>
       <path id="DejaVuSans-2265" d="M 678 3175 
L 678 3725 
L 4684 2578 
L 4684 2047 
L 678 897 
L 678 1453 
L 3681 2309 
L 678 3175 
z
M 4684 531 
L 4684 0 
L 678 0 
L 678 531 
L 4684 531 
z
" transform="scale(0.015625)"/>
       <path id="DejaVuSans-67" d="M 2906 1791 
Q 2906 2416 2648 2759 
Q 2391 3103 1925 3103 
Q 1463 3103 1205 2759 
Q 947 2416 947 1791 
Q 947 1169 1205 825 
Q 1463 481 1925 481 
Q 2391 481 2648 825 
Q 2906 1169 2906 1791 
z
M 3481 434 
Q 3481 -459 3084 -895 
Q 2688 -1331 1869 -1331 
Q 1566 -1331 1297 -1286 
Q 1028 -1241 775 -1147 
L 775 -588 
Q 1028 -725 1275 -790 
Q 1522 -856 1778 -856 
Q 2344 -856 2625 -561 
Q 2906 -266 2906 331 
L 2906 616 
Q 2728 306 2450 153 
Q 2172 0 1784 0 
Q 1141 0 747 490 
Q 353 981 353 1791 
Q 353 2603 747 3093 
Q 1141 3584 1784 3584 
Q 2172 3584 2450 3431 
Q 2728 3278 2906 2969 
L 2906 3500 
L 3481 3500 
L 3481 434 
z
" transform="scale(0.015625)"/>
      </defs>
      <use xlink:href="#DejaVuSans-2265"/>
      <use xlink:href="#DejaVuSans-39" x="83.789062"/>
      <use xlink:href="#DejaVuSans-30" x="147.412109"/>
      <use xlink:href="#DejaVuSans-25" x="211.035156"/>
      <use xlink:href="#DejaVuSans-20" x="306.054688"/>
      <use xlink:href="#DejaVuSans-52" x="337.841797"/>
      <use xlink:href="#DejaVuSans-65" x="402.824219"/>
      <use xlink:href="#DejaVuSans-67" x="464.347656"/>
      <use xlink:href="#DejaVuSans-69" x="527.824219"/>
      <use xlink:href="#DejaVuSans-6f" x="555.607422"/>
      <use xlink:href="#DejaVuSans-6e" x="616.789062"/>
     </g>
    </g>
    <g id="line2d_36">
     <g>
      <use xlink:href="#mab6149b614" x="71.736875" y="510.889906" style="fill: #ff0000; stroke: #ff0000"/>
     </g>
    </g>
    <g id="text_22">
     <!-- Drop-off: 1.1ms -->
     <g transform="translate(91.536875 514.739906) scale(0.11 -0.11)">
      <defs>
       <path id="DejaVuSans-44" d="M 1259 4147 
L 1259 519 
L 2022 519 
Q 2988 519 3436 956 
Q 3884 1394 3884 2338 
Q 3884 3275 3436 3711 
Q 2988 4147 2022 4147 
L 1259 4147 
z
M 628 4666 
L 1925 4666 
Q 3281 4666 3915 4102 
Q 4550 3538 4550 2338 
Q 4550 1131 3912 565 
Q 3275 0 1925 0 
L 628 0 
L 628 4666 
z
" transform="scale(0.015625)"/>
       <path id="DejaVuSans-70" d="M 1159 525 
L 1159 -1331 
L 581 -1331 
L 581 3500 
L 1159 3500 
L 1159 2969 
Q 1341 3281 1617 3432 
Q 1894 3584 2278 3584 
Q 2916 3584 3314 3078 
Q 3713 2572 3713 1747 
Q 3713 922 3314 415 
Q 2916 -91 2278 -91 
Q 1894 -91 1617 61 
Q 1341 213 1159 525 
z
M 3116 1747 
Q 3116 2381 2855 2742 
Q 2594 3103 2138 3103 
Q 1681 3103 1420 2742 
Q 1159 2381 1159 1747 
Q 1159 1113 1420 752 
Q 1681 391 2138 391 
Q 2594 391 2855 752 
Q 3116 1113 3116 1747 
z
" transform="scale(0.015625)"/>
       <path id="DejaVuSans-2d" d="M 313 2009 
L 1997 2009 
L 1997 1497 
L 313 1497 
L 313 2009 
z
" transform="scale(0.015625)"/>
       <path id="DejaVuSans-66" d="M 2375 4863 
L 2375 4384 
L 1825 4384 
Q 1516 4384 1395 4259 
Q 1275 4134 1275 3809 
L 1275 3500 
L 2222 3500 
L 2222 3053 
L 1275 3053 
L 1275 0 
L 697 0 
L 697 3053 
L 147 3053 
L 147 3500 
L 697 3500 
L 697 3744 
Q 697 4328 969 4595 
Q 1241 4863 1831 4863 
L 2375 4863 
z
" transform="scale(0.015625)"/>
       <path id="DejaVuSans-3a" d="M 750 794 
L 1409 794 
L 1409 0 
L 750 0 
L 750 794 
z
M 750 3309 
L 1409 3309 
L 1409 2516 
L 750 2516 
L 750 3309 
z
" transform="scale(0.015625)"/>
       <path id="DejaVuSans-6d" d="M 3328 2828 
Q 3544 3216 3844 3400 
Q 4144 3584 4550 3584 
Q 5097 3584 5394 3201 
Q 5691 2819 5691 2113 
L 5691 0 
L 5113 0 
L 5113 2094 
Q 5113 2597 4934 2840 
Q 4756 3084 4391 3084 
Q 3944 3084 3684 2787 
Q 3425 2491 3425 1978 
L 3425 0 
L 2847 0 
L 2847 2094 
Q 2847 2600 2669 2842 
Q 2491 3084 2119 3084 
Q 1678 3084 1418 2786 
Q 1159 2488 1159 1978 
L 1159 0 
L 581 0 
L 581 3500 
L 1159 3500 
L 1159 2956 
Q 1356 3278 1631 3431 
Q 1906 3584 2284 3584 
Q 2666 3584 2933 3390 
Q 3200 3197 3328 2828 
z
" transform="scale(0.015625)"/>
      </defs>
      <use xlink:href="#DejaVuSans-44"/>
      <use xlink:href="#DejaVuSans-72" x="77.001953"/>
      <use xlink:href="#DejaVuSans-6f" x="115.865234"/>
      <use xlink:href="#DejaVuSans-70" x="177.046875"/>
      <use xlink:href="#DejaVuSans-2d" x="240.523438"/>
      <use xlink:href="#DejaVuSans-6f" x="278.482422"/>
      <use xlink:href="#DejaVuSans-66" x="339.664062"/>
      <use xlink:href="#DejaVuSans-66" x="374.869141"/>
      <use xlink:href="#DejaVuSans-3a" x="406.449219"/>
      <use xlink:href="#DejaVuSans-20" x="440.140625"/>
      <use xlink:href="#DejaVuSans-31" x="471.927734"/>
      <use xlink:href="#DejaVuSans-2e" x="535.550781"/>
      <use xlink:href="#DejaVuSans-31" x="567.337891"/>
      <use xlink:href="#DejaVuSans-6d" x="630.960938"/>
      <use xlink:href="#DejaVuSans-73" x="728.373047"/>
     </g>
    </g>
   </g>
  </g>
  <g id="axes_2">
   <g id="matplotlib.axis_3">
    <g id="xtick_8">
     <g id="line2d_37">
      <defs>
       <path id="mf195d92577" d="M 0 0 
L 0 -3.5 
" style="stroke: #000000; stroke-width: 0.8"/>
      </defs>
      <g>
       <use xlink:href="#mf195d92577" x="50.836875" y="100.511563" style="stroke: #000000; stroke-width: 0.8"/>
      </g>
     </g>
     <g id="text_23">
      <!-- 0.00 -->
      <g style="fill: #555555" transform="translate(38.590781 91.223906) scale(0.11 -0.11)">
       <use xlink:href="#DejaVuSans-30"/>
       <use xlink:href="#DejaVuSans-2e" x="63.623047"/>
       <use xlink:href="#DejaVuSans-30" x="95.410156"/>
       <use xlink:href="#DejaVuSans-30" x="159.033203"/>
      </g>
     </g>
    </g>
    <g id="xtick_9">
     <g id="line2d_38">
      <g>
       <use xlink:href="#mf195d92577" x="143.747028" y="100.511563" style="stroke: #000000; stroke-width: 0.8"/>
      </g>
     </g>
     <g id="text_24">
      <!-- 0.25 -->
      <g style="fill: #555555" transform="translate(131.500934 91.223906) scale(0.11 -0.11)">
       <use xlink:href="#DejaVuSans-30"/>
       <use xlink:href="#DejaVuSans-2e" x="63.623047"/>
       <use xlink:href="#DejaVuSans-32" x="95.410156"/>
       <use xlink:href="#DejaVuSans-35" x="159.033203"/>
      </g>
     </g>
    </g>
    <g id="xtick_10">
     <g id="line2d_39">
      <g>
       <use xlink:href="#mf195d92577" x="236.65718" y="100.511563" style="stroke: #000000; stroke-width: 0.8"/>
      </g>
     </g>
     <g id="text_25">
      <!-- 0.50 -->
      <g style="fill: #555555" transform="translate(224.411086 91.223906) scale(0.11 -0.11)">
       <use xlink:href="#DejaVuSans-30"/>
       <use xlink:href="#DejaVuSans-2e" x="63.623047"/>
       <use xlink:href="#DejaVuSans-35" x="95.410156"/>
       <use xlink:href="#DejaVuSans-30" x="159.033203"/>
      </g>
     </g>
    </g>
    <g id="xtick_11">
     <g id="line2d_40">
      <g>
       <use xlink:href="#mf195d92577" x="329.567333" y="100.511563" style="stroke: #000000; stroke-width: 0.8"/>
      </g>
     </g>
     <g id="text_26">
      <!-- 0.75 -->
      <g style="fill: #555555" transform="translate(317.321239 91.223906) scale(0.11 -0.11)">
       <use xlink:href="#DejaVuSans-30"/>
       <use xlink:href="#DejaVuSans-2e" x="63.623047"/>
       <use xlink:href="#DejaVuSans-37" x="95.410156"/>
       <use xlink:href="#DejaVuSans-35" x="159.033203"/>
      </g>
     </g>
    </g>
    <g id="xtick_12">
     <g id="line2d_41">
      <g>
       <use xlink:href="#mf195d92577" x="422.477485" y="100.511563" style="stroke: #000000; stroke-width: 0.8"/>
      </g>
     </g>
     <g id="text_27">
      <!-- 1.00 -->
      <g style="fill: #555555" transform="translate(410.231392 91.223906) scale(0.11 -0.11)">
       <use xlink:href="#DejaVuSans-31"/>
       <use xlink:href="#DejaVuSans-2e" x="63.623047"/>
       <use xlink:href="#DejaVuSans-30" x="95.410156"/>
       <use xlink:href="#DejaVuSans-30" x="159.033203"/>
      </g>
     </g>
    </g>
    <g id="xtick_13">
     <g id="line2d_42">
      <g>
       <use xlink:href="#mf195d92577" x="515.387638" y="100.511563" style="stroke: #000000; stroke-width: 0.8"/>
      </g>
     </g>
     <g id="text_28">
      <!-- 1.25 -->
      <g style="fill: #555555" transform="translate(503.141544 91.223906) scale(0.11 -0.11)">
       <use xlink:href="#DejaVuSans-31"/>
       <use xlink:href="#DejaVuSans-2e" x="63.623047"/>
       <use xlink:href="#DejaVuSans-32" x="95.410156"/>
       <use xlink:href="#DejaVuSans-35" x="159.033203"/>
      </g>
     </g>
    </g>
    <g id="xtick_14">
     <g id="line2d_43">
      <g>
       <use xlink:href="#mf195d92577" x="608.297791" y="100.511563" style="stroke: #000000; stroke-width: 0.8"/>
      </g>
     </g>
     <g id="text_29">
      <!-- 1.50 -->
      <g style="fill: #555555" transform="translate(596.051697 91.223906) scale(0.11 -0.11)">
       <use xlink:href="#DejaVuSans-31"/>
       <use xlink:href="#DejaVuSans-2e" x="63.623047"/>
       <use xlink:href="#DejaVuSans-35" x="95.410156"/>
       <use xlink:href="#DejaVuSans-30" x="159.033203"/>
      </g>
     </g>
    </g>
    <g id="xtick_15">
     <g id="line2d_44">
      <g>
       <use xlink:href="#mf195d92577" x="701.207943" y="100.511563" style="stroke: #000000; stroke-width: 0.8"/>
      </g>
     </g>
     <g id="text_30">
      <!-- 1.75 -->
      <g style="fill: #555555" transform="translate(688.96185 91.223906) scale(0.11 -0.11)">
       <use xlink:href="#DejaVuSans-31"/>
       <use xlink:href="#DejaVuSans-2e" x="63.623047"/>
       <use xlink:href="#DejaVuSans-37" x="95.410156"/>
       <use xlink:href="#DejaVuSans-35" x="159.033203"/>
      </g>
     </g>
    </g>
    <g id="xtick_16">
     <g id="line2d_45">
      <g>
       <use xlink:href="#mf195d92577" x="794.118096" y="100.511563" style="stroke: #000000; stroke-width: 0.8"/>
      </g>
     </g>
     <g id="text_31">
      <!-- 2.00 -->
      <g style="fill: #555555" transform="translate(781.872002 91.223906) scale(0.11 -0.11)">
       <use xlink:href="#DejaVuSans-32"/>
       <use xlink:href="#DejaVuSans-2e" x="63.623047"/>
       <use xlink:href="#DejaVuSans-30" x="95.410156"/>
       <use xlink:href="#DejaVuSans-30" x="159.033203"/>
      </g>
     </g>
    </g>
    <g id="text_32">
     <!-- Predicted Pixel Displacement (px) -->
     <g style="fill: #555555" transform="translate(335.171563 65.42825) scale(0.12 -0.12)">
      <defs>
       <path id="DejaVuSans-Bold-78" d="M 1422 1791 
L 159 3500 
L 1344 3500 
L 2059 2463 
L 2784 3500 
L 3969 3500 
L 2706 1797 
L 4031 0 
L 2847 0 
L 2059 1106 
L 1281 0 
L 97 0 
L 1422 1791 
z
" transform="scale(0.015625)"/>
      </defs>
      <use xlink:href="#DejaVuSans-Bold-50"/>
      <use xlink:href="#DejaVuSans-Bold-72" x="73.291016"/>
      <use xlink:href="#DejaVuSans-Bold-65" x="122.607422"/>
      <use xlink:href="#DejaVuSans-Bold-64" x="190.429688"/>
      <use xlink:href="#DejaVuSans-Bold-69" x="262.011719"/>
      <use xlink:href="#DejaVuSans-Bold-63" x="296.289062"/>
      <use xlink:href="#DejaVuSans-Bold-74" x="355.566406"/>
      <use xlink:href="#DejaVuSans-Bold-65" x="403.369141"/>
      <use xlink:href="#DejaVuSans-Bold-64" x="471.191406"/>
      <use xlink:href="#DejaVuSans-Bold-20" x="542.773438"/>
      <use xlink:href="#DejaVuSans-Bold-50" x="577.587891"/>
      <use xlink:href="#DejaVuSans-Bold-69" x="650.878906"/>
      <use xlink:href="#DejaVuSans-Bold-78" x="685.15625"/>
      <use xlink:href="#DejaVuSans-Bold-65" x="749.658203"/>
      <use xlink:href="#DejaVuSans-Bold-6c" x="817.480469"/>
      <use xlink:href="#DejaVuSans-Bold-20" x="851.757812"/>
      <use xlink:href="#DejaVuSans-Bold-44" x="886.572266"/>
      <use xlink:href="#DejaVuSans-Bold-69" x="969.580078"/>
      <use xlink:href="#DejaVuSans-Bold-73" x="1003.857422"/>
      <use xlink:href="#DejaVuSans-Bold-70" x="1063.378906"/>
      <use xlink:href="#DejaVuSans-Bold-6c" x="1134.960938"/>
      <use xlink:href="#DejaVuSans-Bold-61" x="1169.238281"/>
      <use xlink:href="#DejaVuSans-Bold-63" x="1236.71875"/>
      <use xlink:href="#DejaVuSans-Bold-65" x="1295.996094"/>
      <use xlink:href="#DejaVuSans-Bold-6d" x="1363.818359"/>
      <use xlink:href="#DejaVuSans-Bold-65" x="1468.017578"/>
      <use xlink:href="#DejaVuSans-Bold-6e" x="1535.839844"/>
      <use xlink:href="#DejaVuSans-Bold-74" x="1607.03125"/>
      <use xlink:href="#DejaVuSans-Bold-20" x="1654.833984"/>
      <use xlink:href="#DejaVuSans-Bold-28" x="1689.648438"/>
      <use xlink:href="#DejaVuSans-Bold-70" x="1735.351562"/>
      <use xlink:href="#DejaVuSans-Bold-78" x="1806.933594"/>
      <use xlink:href="#DejaVuSans-Bold-29" x="1871.435547"/>
     </g>
     <!-- (ω=3.6 rad/s, r≈199px mean) -->
     <g style="fill: #555555" transform="translate(350.917813 78.865625) scale(0.12 -0.12)">
      <defs>
       <path id="DejaVuSans-Bold-3c9" d="M 2781 816 
Q 2675 -81 1656 -84 
Q 275 -88 275 1775 
Q 275 2575 888 3500 
L 1847 3500 
Q 1441 2763 1441 1788 
Q 1441 809 1878 803 
Q 2238 797 2222 2225 
L 3341 2225 
Q 3325 797 3684 803 
Q 4122 809 4122 1788 
Q 4122 2763 3716 3500 
L 4675 3500 
Q 5288 2575 5288 1775 
Q 5288 -88 3906 -84 
Q 2888 -81 2781 816 
z
" transform="scale(0.015625)"/>
       <path id="DejaVuSans-Bold-3d" d="M 678 3084 
L 4684 3084 
L 4684 2350 
L 678 2350 
L 678 3084 
z
M 678 1663 
L 4684 1663 
L 4684 922 
L 678 922 
L 678 1663 
z
" transform="scale(0.015625)"/>
       <path id="DejaVuSans-Bold-33" d="M 2981 2516 
Q 3453 2394 3698 2092 
Q 3944 1791 3944 1325 
Q 3944 631 3412 270 
Q 2881 -91 1863 -91 
Q 1503 -91 1142 -33 
Q 781 25 428 141 
L 428 1069 
Q 766 900 1098 814 
Q 1431 728 1753 728 
Q 2231 728 2486 893 
Q 2741 1059 2741 1369 
Q 2741 1688 2480 1852 
Q 2219 2016 1709 2016 
L 1228 2016 
L 1228 2791 
L 1734 2791 
Q 2188 2791 2409 2933 
Q 2631 3075 2631 3366 
Q 2631 3634 2415 3781 
Q 2200 3928 1806 3928 
Q 1516 3928 1219 3862 
Q 922 3797 628 3669 
L 628 4550 
Q 984 4650 1334 4700 
Q 1684 4750 2022 4750 
Q 2931 4750 3382 4451 
Q 3834 4153 3834 3553 
Q 3834 3144 3618 2883 
Q 3403 2622 2981 2516 
z
" transform="scale(0.015625)"/>
       <path id="DejaVuSans-Bold-36" d="M 2316 2303 
Q 2000 2303 1842 2098 
Q 1684 1894 1684 1484 
Q 1684 1075 1842 870 
Q 2000 666 2316 666 
Q 2634 666 2792 870 
Q 2950 1075 2950 1484 
Q 2950 1894 2792 2098 
Q 2634 2303 2316 2303 
z
M 3803 4544 
L 3803 3681 
Q 3506 3822 3243 3889 
Q 2981 3956 2731 3956 
Q 2194 3956 1894 3657 
Q 1594 3359 1544 2772 
Q 1750 2925 1990 3001 
Q 2231 3078 2516 3078 
Q 3231 3078 3670 2659 
Q 4109 2241 4109 1563 
Q 4109 813 3618 361 
Q 3128 -91 2303 -91 
Q 1394 -91 895 523 
Q 397 1138 397 2266 
Q 397 3422 980 4083 
Q 1563 4744 2578 4744 
Q 2900 4744 3203 4694 
Q 3506 4644 3803 4544 
z
" transform="scale(0.015625)"/>
       <path id="DejaVuSans-Bold-2f" d="M 1644 4666 
L 2338 4666 
L 691 -594 
L 0 -594 
L 1644 4666 
z
" transform="scale(0.015625)"/>
       <path id="DejaVuSans-Bold-2248" d="M 4684 3309 
L 4684 2547 
Q 4353 2297 4073 2189 
Q 3794 2081 3494 2081 
Q 3159 2081 2713 2263 
Q 2669 2281 2644 2291 
Q 2622 2300 2575 2319 
Q 2091 2509 1797 2509 
Q 1522 2509 1253 2389 
Q 984 2269 678 2009 
L 678 2772 
Q 1006 3016 1286 3123 
Q 1566 3231 1869 3231 
Q 2213 3231 2672 3047 
Q 2703 3034 2719 3028 
Q 2744 3019 2788 3000 
Q 3272 2809 3566 2809 
Q 3834 2809 4098 2926 
Q 4363 3044 4684 3309 
z
M 4684 2003 
L 4684 1241 
Q 4353 991 4073 883 
Q 3794 775 3494 775 
Q 3159 775 2713 956 
Q 2669 975 2641 988 
Q 2622 994 2575 1013 
Q 2091 1203 1797 1203 
Q 1522 1203 1253 1084 
Q 984 966 678 703 
L 678 1466 
Q 1013 1716 1291 1823 
Q 1569 1931 1869 1931 
Q 2203 1931 2650 1750 
Q 2697 1731 2719 1722 
Q 2744 1713 2788 1697 
Q 3272 1503 3566 1503 
Q 3834 1503 4098 1620 
Q 4363 1738 4684 2003 
z
" transform="scale(0.015625)"/>
       <path id="DejaVuSans-Bold-39" d="M 641 103 
L 641 966 
Q 928 831 1190 764 
Q 1453 697 1709 697 
Q 2247 697 2547 995 
Q 2847 1294 2900 1881 
Q 2688 1725 2447 1647 
Q 2206 1569 1925 1569 
Q 1209 1569 770 1986 
Q 331 2403 331 3084 
Q 331 3838 820 4291 
Q 1309 4744 2131 4744 
Q 3044 4744 3544 4128 
Q 4044 3513 4044 2388 
Q 4044 1231 3459 570 
Q 2875 -91 1856 -91 
Q 1528 -91 1228 -42 
Q 928 6 641 103 
z
M 2125 2350 
Q 2441 2350 2600 2554 
Q 2759 2759 2759 3169 
Q 2759 3575 2600 3781 
Q 2441 3988 2125 3988 
Q 1809 3988 1650 3781 
Q 1491 3575 1491 3169 
Q 1491 2759 1650 2554 
Q 1809 2350 2125 2350 
z
" transform="scale(0.015625)"/>
      </defs>
      <use xlink:href="#DejaVuSans-Bold-28"/>
      <use xlink:href="#DejaVuSans-Bold-3c9" x="45.703125"/>
      <use xlink:href="#DejaVuSans-Bold-3d" x="132.617188"/>
      <use xlink:href="#DejaVuSans-Bold-33" x="216.40625"/>
      <use xlink:href="#DejaVuSans-Bold-2e" x="285.986328"/>
      <use xlink:href="#DejaVuSans-Bold-36" x="323.974609"/>
      <use xlink:href="#DejaVuSans-Bold-20" x="393.554688"/>
      <use xlink:href="#DejaVuSans-Bold-72" x="428.369141"/>
      <use xlink:href="#DejaVuSans-Bold-61" x="477.685547"/>
      <use xlink:href="#DejaVuSans-Bold-64" x="545.166016"/>
      <use xlink:href="#DejaVuSans-Bold-2f" x="616.748047"/>
      <use xlink:href="#DejaVuSans-Bold-73" x="653.271484"/>
      <use xlink:href="#DejaVuSans-Bold-2c" x="712.792969"/>
      <use xlink:href="#DejaVuSans-Bold-20" x="750.78125"/>
      <use xlink:href="#DejaVuSans-Bold-72" x="785.595703"/>
      <use xlink:href="#DejaVuSans-Bold-2248" x="834.912109"/>
      <use xlink:href="#DejaVuSans-Bold-31" x="918.701172"/>
      <use xlink:href="#DejaVuSans-Bold-39" x="988.28125"/>
      <use xlink:href="#DejaVuSans-Bold-39" x="1057.861328"/>
      <use xlink:href="#DejaVuSans-Bold-70" x="1127.441406"/>
      <use xlink:href="#DejaVuSans-Bold-78" x="1199.023438"/>
      <use xlink:href="#DejaVuSans-Bold-20" x="1263.525391"/>
      <use xlink:href="#DejaVuSans-Bold-6d" x="1298.339844"/>
      <use xlink:href="#DejaVuSans-Bold-65" x="1402.539062"/>
      <use xlink:href="#DejaVuSans-Bold-61" x="1470.361328"/>
      <use xlink:href="#DejaVuSans-Bold-6e" x="1537.841797"/>
      <use xlink:href="#DejaVuSans-Bold-29" x="1609.033203"/>
     </g>
    </g>
   </g>
   <g id="patch_10">
    <path d="M 50.836875 526.927562 
L 50.836875 100.511562 
" style="fill: none; stroke: #000000; stroke-width: 0.8; stroke-linejoin: miter; stroke-linecap: square"/>
   </g>
   <g id="patch_11">
    <path d="M 849.566875 526.927562 
L 849.566875 100.511562 
" style="fill: none; stroke: #000000; stroke-width: 0.8; stroke-linejoin: miter; stroke-linecap: square"/>
   </g>
   <g id="patch_12">
    <path d="M 50.836875 526.927563 
L 849.566875 526.927563 
" style="fill: none; stroke: #000000; stroke-width: 0.8; stroke-linejoin: miter; stroke-linecap: square"/>
   </g>
   <g id="patch_13">
    <path d="M 50.836875 100.511563 
L 849.566875 100.511563 
" style="fill: none; stroke: #000000; stroke-width: 0.8; stroke-linejoin: miter; stroke-linecap: square"/>
   </g>
  </g>
 </g>
 <defs>
  <clipPath id="p88af75fc88">
   <rect x="50.836875" y="100.511563" width="798.73" height="426.416"/>
  </clipPath>
 </defs>
</svg>
