<?xml version="1.0" encoding="utf-8" standalone="no"?>
<!DOCTYPE svg PUBLIC "-//W3C//DTD SVG 1.1//EN"
  "http://www.w3.org/Graphics/SVG/1.1/DTD/svg11.dtd">
<svg xmlns:xlink="http://www.w3.org/1999/xlink" width="854.503125pt" height="711.8575pt" viewBox="0 0 854.503125 711.8575" xmlns="http://www.w3.org/2000/svg" version="1.1">
 <metadata>
  <rdf:RDF xmlns:dc="http://purl.org/dc/elements/1.1/" xmlns:cc="http://creativecommons.org/ns#" xmlns:rdf="http://www.w3.org/1999/02/22-rdf-syntax-ns#">
   <cc:Work>
    <dc:type rdf:resource="http://purl.org/dc/dcmitype/StillImage"/>
    <dc:date>2025-10-31T00:28:39.707740</dc:date>
    <dc:format>image/svg+xml</dc:format>
    <dc:creator>
     <cc:Agent>
      <dc:title>Matplotlib v3.6.2, https://matplotlib.org/</dc:title>
     </cc:Agent>
    </dc:creator>
   </cc:Work>
  </rdf:RDF>
 </metadata>
 <defs>
  <style type="text/css">*{stroke-linejoin: round; stroke-linecap: butt}</style>
 </defs>
 <g id="figure_1">
  <g id="patch_1">
   <path d="M 0 711.8575 
L 854.503125 711.8575 
L 854.503125 0 
L 0 0 
z
" style="fill: #ffffff"/>
  </g>
  <g id="axes_1">
   <g id="patch_2">
    <path d="M 62.829125 436.957812 
L 847.303125 436.957812 
L 847.303125 23.837812 
L 62.829125 23.837812 
z
" style="fill: #ffffff"/>
   </g>
   <g id="patch_3">
    <path d="M 62.829125 170.42878 
L 62.829125 23.837812 
L 847.303125 23.837812 
L 847.303125 170.42878 
z
" clip-path="url(#p0dc3191a69)" style="fill: #008000; opacity: 0.1; stroke: #008000; stroke-linejoin: miter"/>
   </g>
   <g id="patch_4">
    <path d="M 62.829125 303.693296 
L 62.829125 170.42878 
L 847.303125 170.42878 
L 847.303125 303.693296 
z
" clip-path="url(#p0dc3191a69)" style="fill: #ffff00; opacity: 0.1; stroke: #ffff00; stroke-linejoin: miter"/>
   </g>
   <g id="patch_5">
    <path d="M 62.829125 436.957812 
L 62.829125 303.693296 
L 847.303125 303.693296 
L 847.303125 436.957812 
z
" clip-path="url(#p0dc3191a69)" style="fill: #ffa500; opacity: 0.1; stroke: #ffa500; stroke-linejoin: miter"/>
   </g>
   <g id="matplotlib.axis_1">
    <g id="xtick_1">
     <g id="line2d_1">
      <path d="M 98.487034 436.957812 
L 98.487034 23.837812 
" clip-path="url(#p0dc3191a69)" style="fill: none; stroke: #b0b0b0; stroke-opacity: 0.3; stroke-width: 0.8; stroke-linecap: square"/>
     </g>
     <g id="line2d_2">
      <defs>
       <path id="mb4c6c28d54" d="M 0 0 
L 0 3.5 
" style="stroke: #000000; stroke-width: 0.8"/>
      </defs>
      <g>
       <use xlink:href="#mb4c6c28d54" x="98.487034" y="436.957812" style="stroke: #000000; stroke-width: 0.8"/>
      </g>
     </g>
     <g id="text_1">
      <!-- 0.0 -->
      <g transform="translate(90.535472 451.55625) scale(0.1 -0.1)">
       <defs>
        <path id="DejaVuSans-30" d="M 2034 4250 
Q 1547 4250 1301 3770 
Q 1056 3291 1056 2328 
Q 1056 1369 1301 889 
Q 1547 409 2034 409 
Q 2525 409 2770 889 
Q 3016 1369 3016 2328 
Q 3016 3291 2770 3770 
Q 2525 4250 2034 4250 
z
M 2034 4750 
Q 2819 4750 3233 4129 
Q 3647 3509 3647 2328 
Q 3647 1150 3233 529 
Q 2819 -91 2034 -91 
Q 1250 -91 836 529 
Q 422 1150 422 2328 
Q 422 3509 836 4129 
Q 1250 4750 2034 4750 
z
" transform="scale(0.015625)"/>
        <path id="DejaVuSans-2e" d="M 684 794 
L 1344 794 
L 1344 0 
L 684 0 
L 684 794 
z
" transform="scale(0.015625)"/>
       </defs>
       <use xlink:href="#DejaVuSans-30"/>
       <use xlink:href="#DejaVuSans-2e" x="63.623047"/>
       <use xlink:href="#DejaVuSans-30" x="95.410156"/>
      </g>
     </g>
    </g>
    <g id="xtick_2">
     <g id="line2d_3">
      <path d="M 217.346731 436.957812 
L 217.346731 23.837812 
" clip-path="url(#p0dc3191a69)" style="fill: none; stroke: #b0b0b0; stroke-opacity: 0.3; stroke-width: 0.8; stroke-linecap: square"/>
     </g>
     <g id="line2d_4">
      <g>
       <use xlink:href="#mb4c6c28d54" x="217.346731" y="436.957812" style="stroke: #000000; stroke-width: 0.8"/>
      </g>
     </g>
     <g id="text_2">
      <!-- 0.5 -->
      <g transform="translate(209.395169 451.55625) scale(0.1 -0.1)">
       <defs>
        <path id="DejaVuSans-35" d="M 691 4666 
L 3169 4666 
L 3169 4134 
L 1269 4134 
L 1269 2991 
Q 1406 3038 1543 3061 
Q 1681 3084 1819 3084 
Q 2600 3084 3056 2656 
Q 3513 2228 3513 1497 
Q 3513 744 3044 326 
Q 2575 -91 1722 -91 
Q 1428 -91 1123 -41 
Q 819 9 494 109 
L 494 744 
Q 775 591 1075 516 
Q 1375 441 1709 441 
Q 2250 441 2565 725 
Q 2881 1009 2881 1497 
Q 2881 1984 2565 2268 
Q 2250 2553 1709 2553 
Q 1456 2553 1204 2497 
Q 953 2441 691 2322 
L 691 4666 
z
" transform="scale(0.015625)"/>
       </defs>
       <use xlink:href="#DejaVuSans-30"/>
       <use xlink:href="#DejaVuSans-2e" x="63.623047"/>
       <use xlink:href="#DejaVuSans-35" x="95.410156"/>
      </g>
     </g>
    </g>
    <g id="xtick_3">
     <g id="line2d_5">
      <path d="M 336.206428 436.957812 
L 336.206428 23.837812 
" clip-path="url(#p0dc3191a69)" style="fill: none; stroke: #b0b0b0; stroke-opacity: 0.3; stroke-width: 0.8; stroke-linecap: square"/>
     </g>
     <g id="line2d_6">
      <g>
       <use xlink:href="#mb4c6c28d54" x="336.206428" y="436.957812" style="stroke: #000000; stroke-width: 0.8"/>
      </g>
     </g>
     <g id="text_3">
      <!-- 1.0 -->
      <g transform="translate(328.254866 451.55625) scale(0.1 -0.1)">
       <defs>
        <path id="DejaVuSans-31" d="M 794 531 
L 1825 531 
L 1825 4091 
L 703 3866 
L 703 4441 
L 1819 4666 
L 2450 4666 
L 2450 531 
L 3481 531 
L 3481 0 
L 794 0 
L 794 531 
z
" transform="scale(0.015625)"/>
       </defs>
       <use xlink:href="#DejaVuSans-31"/>
       <use xlink:href="#DejaVuSans-2e" x="63.623047"/>
       <use xlink:href="#DejaVuSans-30" x="95.410156"/>
      </g>
     </g>
    </g>
    <g id="xtick_4">
     <g id="line2d_7">
      <path d="M 455.066125 436.957812 
L 455.066125 23.837812 
" clip-path="url(#p0dc3191a69)" style="fill: none; stroke: #b0b0b0; stroke-opacity: 0.3; stroke-width: 0.8; stroke-linecap: square"/>
     </g>
     <g id="line2d_8">
      <g>
       <use xlink:href="#mb4c6c28d54" x="455.066125" y="436.957812" style="stroke: #000000; stroke-width: 0.8"/>
      </g>
     </g>
     <g id="text_4">
      <!-- 1.5 -->
      <g transform="translate(447.114563 451.55625) scale(0.1 -0.1)">
       <use xlink:href="#DejaVuSans-31"/>
       <use xlink:href="#DejaVuSans-2e" x="63.623047"/>
       <use xlink:href="#DejaVuSans-35" x="95.410156"/>
      </g>
     </g>
    </g>
    <g id="xtick_5">
     <g id="line2d_9">
      <path d="M 573.925822 436.957812 
L 573.925822 23.837812 
" clip-path="url(#p0dc3191a69)" style="fill: none; stroke: #b0b0b0; stroke-opacity: 0.3; stroke-width: 0.8; stroke-linecap: square"/>
     </g>
     <g id="line2d_10">
      <g>
       <use xlink:href="#mb4c6c28d54" x="573.925822" y="436.957812" style="stroke: #000000; stroke-width: 0.8"/>
      </g>
     </g>
     <g id="text_5">
      <!-- 2.0 -->
      <g transform="translate(565.974259 451.55625) scale(0.1 -0.1)">
       <defs>
        <path id="DejaVuSans-32" d="M 1228 531 
L 3431 531 
L 3431 0 
L 469 0 
L 469 531 
Q 828 903 1448 1529 
Q 2069 2156 2228 2338 
Q 2531 2678 2651 2914 
Q 2772 3150 2772 3378 
Q 2772 3750 2511 3984 
Q 2250 4219 1831 4219 
Q 1534 4219 1204 4116 
Q 875 4013 500 3803 
L 500 4441 
Q 881 4594 1212 4672 
Q 1544 4750 1819 4750 
Q 2544 4750 2975 4387 
Q 3406 4025 3406 3419 
Q 3406 3131 3298 2873 
Q 3191 2616 2906 2266 
Q 2828 2175 2409 1742 
Q 1991 1309 1228 531 
z
" transform="scale(0.015625)"/>
       </defs>
       <use xlink:href="#DejaVuSans-32"/>
       <use xlink:href="#DejaVuSans-2e" x="63.623047"/>
       <use xlink:href="#DejaVuSans-30" x="95.410156"/>
      </g>
     </g>
    </g>
    <g id="xtick_6">
     <g id="line2d_11">
      <path d="M 692.785519 436.957812 
L 692.785519 23.837812 
" clip-path="url(#p0dc3191a69)" style="fill: none; stroke: #b0b0b0; stroke-opacity: 0.3; stroke-width: 0.8; stroke-linecap: square"/>
     </g>
     <g id="line2d_12">
      <g>
       <use xlink:href="#mb4c6c28d54" x="692.785519" y="436.957812" style="stroke: #000000; stroke-width: 0.8"/>
      </g>
     </g>
     <g id="text_6">
      <!-- 2.5 -->
      <g transform="translate(684.833956 451.55625) scale(0.1 -0.1)">
       <use xlink:href="#DejaVuSans-32"/>
       <use xlink:href="#DejaVuSans-2e" x="63.623047"/>
       <use xlink:href="#DejaVuSans-35" x="95.410156"/>
      </g>
     </g>
    </g>
    <g id="xtick_7">
     <g id="line2d_13">
      <path d="M 811.645216 436.957812 
L 811.645216 23.837812 
" clip-path="url(#p0dc3191a69)" style="fill: none; stroke: #b0b0b0; stroke-opacity: 0.3; stroke-width: 0.8; stroke-linecap: square"/>
     </g>
     <g id="line2d_14">
      <g>
       <use xlink:href="#mb4c6c28d54" x="811.645216" y="436.957812" style="stroke: #000000; stroke-width: 0.8"/>
      </g>
     </g>
     <g id="text_7">
      <!-- 3.0 -->
      <g transform="translate(803.693653 451.55625) scale(0.1 -0.1)">
       <defs>
        <path id="DejaVuSans-33" d="M 2597 2516 
Q 3050 2419 3304 2112 
Q 3559 1806 3559 1356 
Q 3559 666 3084 287 
Q 2609 -91 1734 -91 
Q 1441 -91 1130 -33 
Q 819 25 488 141 
L 488 750 
Q 750 597 1062 519 
Q 1375 441 1716 441 
Q 2309 441 2620 675 
Q 2931 909 2931 1356 
Q 2931 1769 2642 2001 
Q 2353 2234 1838 2234 
L 1294 2234 
L 1294 2753 
L 1863 2753 
Q 2328 2753 2575 2939 
Q 2822 3125 2822 3475 
Q 2822 3834 2567 4026 
Q 2313 4219 1838 4219 
Q 1578 4219 1281 4162 
Q 984 4106 628 3988 
L 628 4550 
Q 988 4650 1302 4700 
Q 1616 4750 1894 4750 
Q 2613 4750 3031 4423 
Q 3450 4097 3450 3541 
Q 3450 3153 3228 2886 
Q 3006 2619 2597 2516 
z
" transform="scale(0.015625)"/>
       </defs>
       <use xlink:href="#DejaVuSans-33"/>
       <use xlink:href="#DejaVuSans-2e" x="63.623047"/>
       <use xlink:href="#DejaVuSans-30" x="95.410156"/>
      </g>
     </g>
    </g>
   </g>
   <g id="matplotlib.axis_2">
    <g id="ytick_1">
     <g id="line2d_15">
      <path d="M 62.829125 436.957812 
L 847.303125 436.957812 
" clip-path="url(#p0dc3191a69)" style="fill: none; stroke: #b0b0b0; stroke-opacity: 0.3; stroke-width: 0.8; stroke-linecap: square"/>
     </g>
     <g id="line2d_16">
      <defs>
       <path id="me3df17d355" d="M 0 0 
L -3.5 0 
" style="stroke: #000000; stroke-width: 0.8"/>
      </defs>
      <g>
       <use xlink:href="#me3df17d355" x="62.829125" y="436.957812" style="stroke: #000000; stroke-width: 0.8"/>
      </g>
     </g>
     <g id="text_8">
      <!-- 70 -->
      <g transform="translate(43.104125 440.757031) scale(0.1 -0.1)">
       <defs>
        <path id="DejaVuSans-37" d="M 525 4666 
L 3525 4666 
L 3525 4397 
L 1831 0 
L 1172 0 
L 2766 4134 
L 525 4134 
L 525 4666 
z
" transform="scale(0.015625)"/>
       </defs>
       <use xlink:href="#DejaVuSans-37"/>
       <use xlink:href="#DejaVuSans-30" x="63.623047"/>
      </g>
     </g>
    </g>
    <g id="ytick_2">
     <g id="line2d_17">
      <path d="M 62.829125 370.325554 
L 847.303125 370.325554 
" clip-path="url(#p0dc3191a69)" style="fill: none; stroke: #b0b0b0; stroke-opacity: 0.3; stroke-width: 0.8; stroke-linecap: square"/>
     </g>
     <g id="line2d_18">
      <g>
       <use xlink:href="#me3df17d355" x="62.829125" y="370.325554" style="stroke: #000000; stroke-width: 0.8"/>
      </g>
     </g>
     <g id="text_9">
      <!-- 75 -->
      <g transform="translate(43.104125 374.124773) scale(0.1 -0.1)">
       <use xlink:href="#DejaVuSans-37"/>
       <use xlink:href="#DejaVuSans-35" x="63.623047"/>
      </g>
     </g>
    </g>
    <g id="ytick_3">
     <g id="line2d_19">
      <path d="M 62.829125 303.693296 
L 847.303125 303.693296 
" clip-path="url(#p0dc3191a69)" style="fill: none; stroke: #b0b0b0; stroke-opacity: 0.3; stroke-width: 0.8; stroke-linecap: square"/>
     </g>
     <g id="line2d_20">
      <g>
       <use xlink:href="#me3df17d355" x="62.829125" y="303.693296" style="stroke: #000000; stroke-width: 0.8"/>
      </g>
     </g>
     <g id="text_10">
      <!-- 80 -->
      <g transform="translate(43.104125 307.492515) scale(0.1 -0.1)">
       <defs>
        <path id="DejaVuSans-38" d="M 2034 2216 
Q 1584 2216 1326 1975 
Q 1069 1734 1069 1313 
Q 1069 891 1326 650 
Q 1584 409 2034 409 
Q 2484 409 2743 651 
Q 3003 894 3003 1313 
Q 3003 1734 2745 1975 
Q 2488 2216 2034 2216 
z
M 1403 2484 
Q 997 2584 770 2862 
Q 544 3141 544 3541 
Q 544 4100 942 4425 
Q 1341 4750 2034 4750 
Q 2731 4750 3128 4425 
Q 3525 4100 3525 3541 
Q 3525 3141 3298 2862 
Q 3072 2584 2669 2484 
Q 3125 2378 3379 2068 
Q 3634 1759 3634 1313 
Q 3634 634 3220 271 
Q 2806 -91 2034 -91 
Q 1263 -91 848 271 
Q 434 634 434 1313 
Q 434 1759 690 2068 
Q 947 2378 1403 2484 
z
M 1172 3481 
Q 1172 3119 1398 2916 
Q 1625 2713 2034 2713 
Q 2441 2713 2670 2916 
Q 2900 3119 2900 3481 
Q 2900 3844 2670 4047 
Q 2441 4250 2034 4250 
Q 1625 4250 1398 4047 
Q 1172 3844 1172 3481 
z
" transform="scale(0.015625)"/>
       </defs>
       <use xlink:href="#DejaVuSans-38"/>
       <use xlink:href="#DejaVuSans-30" x="63.623047"/>
      </g>
     </g>
    </g>
    <g id="ytick_4">
     <g id="line2d_21">
      <path d="M 62.829125 237.061038 
L 847.303125 237.061038 
" clip-path="url(#p0dc3191a69)" style="fill: none; stroke: #b0b0b0; stroke-opacity: 0.3; stroke-width: 0.8; stroke-linecap: square"/>
     </g>
     <g id="line2d_22">
      <g>
       <use xlink:href="#me3df17d355" x="62.829125" y="237.061038" style="stroke: #000000; stroke-width: 0.8"/>
      </g>
     </g>
     <g id="text_11">
      <!-- 85 -->
      <g transform="translate(43.104125 240.860257) scale(0.1 -0.1)">
       <use xlink:href="#DejaVuSans-38"/>
       <use xlink:href="#DejaVuSans-35" x="63.623047"/>
      </g>
     </g>
    </g>
    <g id="ytick_5">
     <g id="line2d_23">
      <path d="M 62.829125 170.42878 
L 847.303125 170.42878 
" clip-path="url(#p0dc3191a69)" style="fill: none; stroke: #b0b0b0; stroke-opacity: 0.3; stroke-width: 0.8; stroke-linecap: square"/>
     </g>
     <g id="line2d_24">
      <g>
       <use xlink:href="#me3df17d355" x="62.829125" y="170.42878" style="stroke: #000000; stroke-width: 0.8"/>
      </g>
     </g>
     <g id="text_12">
      <!-- 90 -->
      <g transform="translate(43.104125 174.227999) scale(0.1 -0.1)">
       <defs>
        <path id="DejaVuSans-39" d="M 703 97 
L 703 672 
Q 941 559 1184 500 
Q 1428 441 1663 441 
Q 2288 441 2617 861 
Q 2947 1281 2994 2138 
Q 2813 1869 2534 1725 
Q 2256 1581 1919 1581 
Q 1219 1581 811 2004 
Q 403 2428 403 3163 
Q 403 3881 828 4315 
Q 1253 4750 1959 4750 
Q 2769 4750 3195 4129 
Q 3622 3509 3622 2328 
Q 3622 1225 3098 567 
Q 2575 -91 1691 -91 
Q 1453 -91 1209 -44 
Q 966 3 703 97 
z
M 1959 2075 
Q 2384 2075 2632 2365 
Q 2881 2656 2881 3163 
Q 2881 3666 2632 3958 
Q 2384 4250 1959 4250 
Q 1534 4250 1286 3958 
Q 1038 3666 1038 3163 
Q 1038 2656 1286 2365 
Q 1534 2075 1959 2075 
z
" transform="scale(0.015625)"/>
       </defs>
       <use xlink:href="#DejaVuSans-39"/>
       <use xlink:href="#DejaVuSans-30" x="63.623047"/>
      </g>
     </g>
    </g>
    <g id="ytick_6">
     <g id="line2d_25">
      <path d="M 62.829125 103.796522 
L 847.303125 103.796522 
" clip-path="url(#p0dc3191a69)" style="fill: none; stroke: #b0b0b0; stroke-opacity: 0.3; stroke-width: 0.8; stroke-linecap: square"/>
     </g>
     <g id="line2d_26">
      <g>
       <use xlink:href="#me3df17d355" x="62.829125" y="103.796522" style="stroke: #000000; stroke-width: 0.8"/>
      </g>
     </g>
     <g id="text_13">
      <!-- 95 -->
      <g transform="translate(43.104125 107.595741) scale(0.1 -0.1)">
       <use xlink:href="#DejaVuSans-39"/>
       <use xlink:href="#DejaVuSans-35" x="63.623047"/>
      </g>
     </g>
    </g>
    <g id="ytick_7">
     <g id="line2d_27">
      <path d="M 62.829125 37.164264 
L 847.303125 37.164264 
" clip-path="url(#p0dc3191a69)" style="fill: none; stroke: #b0b0b0; stroke-opacity: 0.3; stroke-width: 0.8; stroke-linecap: square"/>
     </g>
     <g id="line2d_28">
      <g>
       <use xlink:href="#me3df17d355" x="62.829125" y="37.164264" style="stroke: #000000; stroke-width: 0.8"/>
      </g>
     </g>
     <g id="text_14">
      <!-- 100 -->
      <g transform="translate(36.741625 40.963483) scale(0.1 -0.1)">
       <use xlink:href="#DejaVuSans-31"/>
       <use xlink:href="#DejaVuSans-30" x="63.623047"/>
       <use xlink:href="#DejaVuSans-30" x="127.246094"/>
      </g>
     </g>
    </g>
    <g id="text_15">
     <!-- Cancellation Rate (%) -->
     <g transform="translate(30.038031 309.602344) rotate(-90) scale(0.13 -0.13)">
      <defs>
       <path id="DejaVuSans-Bold-43" d="M 4288 256 
Q 3956 84 3597 -3 
Q 3238 -91 2847 -91 
Q 1681 -91 1000 561 
Q 319 1213 319 2328 
Q 319 3447 1000 4098 
Q 1681 4750 2847 4750 
Q 3238 4750 3597 4662 
Q 3956 4575 4288 4403 
L 4288 3438 
Q 3953 3666 3628 3772 
Q 3303 3878 2944 3878 
Q 2300 3878 1931 3465 
Q 1563 3053 1563 2328 
Q 1563 1606 1931 1193 
Q 2300 781 2944 781 
Q 3303 781 3628 887 
Q 3953 994 4288 1222 
L 4288 256 
z
" transform="scale(0.015625)"/>
       <path id="DejaVuSans-Bold-61" d="M 2106 1575 
Q 1756 1575 1579 1456 
Q 1403 1338 1403 1106 
Q 1403 894 1545 773 
Q 1688 653 1941 653 
Q 2256 653 2472 879 
Q 2688 1106 2688 1447 
L 2688 1575 
L 2106 1575 
z
M 3816 1997 
L 3816 0 
L 2688 0 
L 2688 519 
Q 2463 200 2181 54 
Q 1900 -91 1497 -91 
Q 953 -91 614 226 
Q 275 544 275 1050 
Q 275 1666 698 1953 
Q 1122 2241 2028 2241 
L 2688 2241 
L 2688 2328 
Q 2688 2594 2478 2717 
Q 2269 2841 1825 2841 
Q 1466 2841 1156 2769 
Q 847 2697 581 2553 
L 581 3406 
Q 941 3494 1303 3539 
Q 1666 3584 2028 3584 
Q 2975 3584 3395 3211 
Q 3816 2838 3816 1997 
z
" transform="scale(0.015625)"/>
       <path id="DejaVuSans-Bold-6e" d="M 4056 2131 
L 4056 0 
L 2931 0 
L 2931 347 
L 2931 1631 
Q 2931 2084 2911 2256 
Q 2891 2428 2841 2509 
Q 2775 2619 2662 2680 
Q 2550 2741 2406 2741 
Q 2056 2741 1856 2470 
Q 1656 2200 1656 1722 
L 1656 0 
L 538 0 
L 538 3500 
L 1656 3500 
L 1656 2988 
Q 1909 3294 2193 3439 
Q 2478 3584 2822 3584 
Q 3428 3584 3742 3212 
Q 4056 2841 4056 2131 
z
" transform="scale(0.015625)"/>
       <path id="DejaVuSans-Bold-63" d="M 3366 3391 
L 3366 2478 
Q 3138 2634 2908 2709 
Q 2678 2784 2431 2784 
Q 1963 2784 1702 2511 
Q 1441 2238 1441 1747 
Q 1441 1256 1702 982 
Q 1963 709 2431 709 
Q 2694 709 2930 787 
Q 3166 866 3366 1019 
L 3366 103 
Q 3103 6 2833 -42 
Q 2563 -91 2291 -91 
Q 1344 -91 809 395 
Q 275 881 275 1747 
Q 275 2613 809 3098 
Q 1344 3584 2291 3584 
Q 2566 3584 2833 3536 
Q 3100 3488 3366 3391 
z
" transform="scale(0.015625)"/>
       <path id="DejaVuSans-Bold-65" d="M 4031 1759 
L 4031 1441 
L 1416 1441 
Q 1456 1047 1700 850 
Q 1944 653 2381 653 
Q 2734 653 3104 758 
Q 3475 863 3866 1075 
L 3866 213 
Q 3469 63 3072 -14 
Q 2675 -91 2278 -91 
Q 1328 -91 801 392 
Q 275 875 275 1747 
Q 275 2603 792 3093 
Q 1309 3584 2216 3584 
Q 3041 3584 3536 3087 
Q 4031 2591 4031 1759 
z
M 2881 2131 
Q 2881 2450 2695 2645 
Q 2509 2841 2209 2841 
Q 1884 2841 1681 2658 
Q 1478 2475 1428 2131 
L 2881 2131 
z
" transform="scale(0.015625)"/>
       <path id="DejaVuSans-Bold-6c" d="M 538 4863 
L 1656 4863 
L 1656 0 
L 538 0 
L 538 4863 
z
" transform="scale(0.015625)"/>
       <path id="DejaVuSans-Bold-74" d="M 1759 4494 
L 1759 3500 
L 2913 3500 
L 2913 2700 
L 1759 2700 
L 1759 1216 
Q 1759 972 1856 886 
Q 1953 800 2241 800 
L 2816 800 
L 2816 0 
L 1856 0 
Q 1194 0 917 276 
Q 641 553 641 1216 
L 641 2700 
L 84 2700 
L 84 3500 
L 641 3500 
L 641 4494 
L 1759 4494 
z
" transform="scale(0.015625)"/>
       <path id="DejaVuSans-Bold-69" d="M 538 3500 
L 1656 3500 
L 1656 0 
L 538 0 
L 538 3500 
z
M 538 4863 
L 1656 4863 
L 1656 3950 
L 538 3950 
L 538 4863 
z
" transform="scale(0.015625)"/>
       <path id="DejaVuSans-Bold-6f" d="M 2203 2784 
Q 1831 2784 1636 2517 
Q 1441 2250 1441 1747 
Q 1441 1244 1636 976 
Q 1831 709 2203 709 
Q 2569 709 2762 976 
Q 2956 1244 2956 1747 
Q 2956 2250 2762 2517 
Q 2569 2784 2203 2784 
z
M 2203 3584 
Q 3106 3584 3614 3096 
Q 4122 2609 4122 1747 
Q 4122 884 3614 396 
Q 3106 -91 2203 -91 
Q 1297 -91 786 396 
Q 275 884 275 1747 
Q 275 2609 786 3096 
Q 1297 3584 2203 3584 
z
" transform="scale(0.015625)"/>
       <path id="DejaVuSans-Bold-20" transform="scale(0.015625)"/>
       <path id="DejaVuSans-Bold-52" d="M 2297 2597 
Q 2675 2597 2839 2737 
Q 3003 2878 3003 3200 
Q 3003 3519 2839 3656 
Q 2675 3794 2297 3794 
L 1791 3794 
L 1791 2597 
L 2297 2597 
z
M 1791 1766 
L 1791 0 
L 588 0 
L 588 4666 
L 2425 4666 
Q 3347 4666 3776 4356 
Q 4206 4047 4206 3378 
Q 4206 2916 3982 2619 
Q 3759 2322 3309 2181 
Q 3556 2125 3751 1926 
Q 3947 1728 4147 1325 
L 4800 0 
L 3519 0 
L 2950 1159 
Q 2778 1509 2601 1637 
Q 2425 1766 2131 1766 
L 1791 1766 
z
" transform="scale(0.015625)"/>
       <path id="DejaVuSans-Bold-28" d="M 2413 -844 
L 1484 -844 
Q 1006 -72 778 623 
Q 550 1319 550 2003 
Q 550 2688 779 3389 
Q 1009 4091 1484 4856 
L 2413 4856 
Q 2013 4116 1813 3408 
Q 1613 2700 1613 2009 
Q 1613 1319 1811 609 
Q 2009 -100 2413 -844 
z
" transform="scale(0.015625)"/>
       <path id="DejaVuSans-Bold-25" d="M 4959 1925 
Q 4738 1925 4616 1733 
Q 4494 1541 4494 1184 
Q 4494 825 4614 633 
Q 4734 441 4959 441 
Q 5184 441 5303 633 
Q 5422 825 5422 1184 
Q 5422 1541 5301 1733 
Q 5181 1925 4959 1925 
z
M 4959 2450 
Q 5541 2450 5875 2112 
Q 6209 1775 6209 1184 
Q 6209 594 5875 251 
Q 5541 -91 4959 -91 
Q 4378 -91 4042 251 
Q 3706 594 3706 1184 
Q 3706 1772 4042 2111 
Q 4378 2450 4959 2450 
z
M 2094 -91 
L 1403 -91 
L 4319 4750 
L 5013 4750 
L 2094 -91 
z
M 1453 4750 
Q 2034 4750 2367 4411 
Q 2700 4072 2700 3481 
Q 2700 2891 2367 2550 
Q 2034 2209 1453 2209 
Q 872 2209 539 2550 
Q 206 2891 206 3481 
Q 206 4072 539 4411 
Q 872 4750 1453 4750 
z
M 1453 4225 
Q 1228 4225 1106 4031 
Q 984 3838 984 3481 
Q 984 3122 1106 2926 
Q 1228 2731 1453 2731 
Q 1678 2731 1798 2926 
Q 1919 3122 1919 3481 
Q 1919 3838 1797 4031 
Q 1675 4225 1453 4225 
z
" transform="scale(0.015625)"/>
       <path id="DejaVuSans-Bold-29" d="M 513 -844 
Q 913 -100 1113 609 
Q 1313 1319 1313 2009 
Q 1313 2700 1113 3408 
Q 913 4116 513 4856 
L 1441 4856 
Q 1916 4091 2145 3389 
Q 2375 2688 2375 2003 
Q 2375 1319 2147 623 
Q 1919 -72 1441 -844 
L 513 -844 
z
" transform="scale(0.015625)"/>
      </defs>
      <use xlink:href="#DejaVuSans-Bold-43"/>
      <use xlink:href="#DejaVuSans-Bold-61" x="73.388672"/>
      <use xlink:href="#DejaVuSans-Bold-6e" x="140.869141"/>
      <use xlink:href="#DejaVuSans-Bold-63" x="212.060547"/>
      <use xlink:href="#DejaVuSans-Bold-65" x="271.337891"/>
      <use xlink:href="#DejaVuSans-Bold-6c" x="339.160156"/>
      <use xlink:href="#DejaVuSans-Bold-6c" x="373.4375"/>
      <use xlink:href="#DejaVuSans-Bold-61" x="407.714844"/>
      <use xlink:href="#DejaVuSans-Bold-74" x="475.195312"/>
      <use xlink:href="#DejaVuSans-Bold-69" x="522.998047"/>
      <use xlink:href="#DejaVuSans-Bold-6f" x="557.275391"/>
      <use xlink:href="#DejaVuSans-Bold-6e" x="625.976562"/>
      <use xlink:href="#DejaVuSans-Bold-20" x="697.167969"/>
      <use xlink:href="#DejaVuSans-Bold-52" x="731.982422"/>
      <use xlink:href="#DejaVuSans-Bold-61" x="808.984375"/>
      <use xlink:href="#DejaVuSans-Bold-74" x="876.464844"/>
      <use xlink:href="#DejaVuSans-Bold-65" x="924.267578"/>
      <use xlink:href="#DejaVuSans-Bold-20" x="992.089844"/>
      <use xlink:href="#DejaVuSans-Bold-28" x="1026.904297"/>
      <use xlink:href="#DejaVuSans-Bold-25" x="1072.607422"/>
      <use xlink:href="#DejaVuSans-Bold-29" x="1172.802734"/>
     </g>
    </g>
   </g>
   <g id="line2d_29">
    <path d="M 98.487034 37.164264 
L 122.258973 37.179466 
L 146.030913 37.209869 
L 169.802852 37.237232 
L 193.574792 37.273716 
L 217.346731 37.316281 
L 241.11867 39.696862 
L 264.89061 51.484236 
L 288.662549 65.883257 
L 312.434489 83.599281 
L 336.206428 103.413136 
L 359.978367 567.42887 
L 383.750307 570.092202 
L 407.522246 572.852825 
L 431.294186 574.300024 
L 455.066125 575.756344 
L 478.838064 576.256189 
L 502.610004 577.569616 
L 526.381943 578.880003 
L 550.153883 578.761429 
L 573.925822 577.865763 
L 621.469701 575.387879 
L 692.785519 572.706293 
L 764.101337 567.841736 
L 811.645216 564.159876 
" clip-path="url(#p0dc3191a69)" style="fill: none; stroke: #1f77b4; stroke-width: 2.5; stroke-linecap: square"/>
    <defs>
     <path id="mdd2b09b4cb" d="M 0 3 
C 0.795609 3 1.55874 2.683901 2.12132 2.12132 
C 2.683901 1.55874 3 0.795609 3 0 
C 3 -0.795609 2.683901 -1.55874 2.12132 -2.12132 
C 1.55874 -2.683901 0.795609 -3 0 -3 
C -0.795609 -3 -1.55874 -2.683901 -2.12132 -2.12132 
C -2.683901 -1.55874 -3 -0.795609 -3 0 
C -3 0.795609 -2.683901 1.55874 -2.12132 2.12132 
C -1.55874 2.683901 -0.795609 3 0 3 
z
" style="stroke: #1f77b4"/>
    </defs>
    <g clip-path="url(#p0dc3191a69)">
     <use xlink:href="#mdd2b09b4cb" x="98.487034" y="37.164264" style="fill: #1f77b4; stroke: #1f77b4"/>
     <use xlink:href="#mdd2b09b4cb" x="122.258973" y="37.179466" style="fill: #1f77b4; stroke: #1f77b4"/>
     <use xlink:href="#mdd2b09b4cb" x="146.030913" y="37.209869" style="fill: #1f77b4; stroke: #1f77b4"/>
     <use xlink:href="#mdd2b09b4cb" x="169.802852" y="37.237232" style="fill: #1f77b4; stroke: #1f77b4"/>
     <use xlink:href="#mdd2b09b4cb" x="193.574792" y="37.273716" style="fill: #1f77b4; stroke: #1f77b4"/>
     <use xlink:href="#mdd2b09b4cb" x="217.346731" y="37.316281" style="fill: #1f77b4; stroke: #1f77b4"/>
     <use xlink:href="#mdd2b09b4cb" x="241.11867" y="39.696862" style="fill: #1f77b4; stroke: #1f77b4"/>
     <use xlink:href="#mdd2b09b4cb" x="264.89061" y="51.484236" style="fill: #1f77b4; stroke: #1f77b4"/>
     <use xlink:href="#mdd2b09b4cb" x="288.662549" y="65.883257" style="fill: #1f77b4; stroke: #1f77b4"/>
     <use xlink:href="#mdd2b09b4cb" x="312.434489" y="83.599281" style="fill: #1f77b4; stroke: #1f77b4"/>
     <use xlink:href="#mdd2b09b4cb" x="336.206428" y="103.413136" style="fill: #1f77b4; stroke: #1f77b4"/>
     <use xlink:href="#mdd2b09b4cb" x="359.978367" y="567.42887" style="fill: #1f77b4; stroke: #1f77b4"/>
     <use xlink:href="#mdd2b09b4cb" x="383.750307" y="570.092202" style="fill: #1f77b4; stroke: #1f77b4"/>
     <use xlink:href="#mdd2b09b4cb" x="407.522246" y="572.852825" style="fill: #1f77b4; stroke: #1f77b4"/>
     <use xlink:href="#mdd2b09b4cb" x="431.294186" y="574.300024" style="fill: #1f77b4; stroke: #1f77b4"/>
     <use xlink:href="#mdd2b09b4cb" x="455.066125" y="575.756344" style="fill: #1f77b4; stroke: #1f77b4"/>
     <use xlink:href="#mdd2b09b4cb" x="478.838064" y="576.256189" style="fill: #1f77b4; stroke: #1f77b4"/>
     <use xlink:href="#mdd2b09b4cb" x="502.610004" y="577.569616" style="fill: #1f77b4; stroke: #1f77b4"/>
     <use xlink:href="#mdd2b09b4cb" x="526.381943" y="578.880003" style="fill: #1f77b4; stroke: #1f77b4"/>
     <use xlink:href="#mdd2b09b4cb" x="550.153883" y="578.761429" style="fill: #1f77b4; stroke: #1f77b4"/>
     <use xlink:href="#mdd2b09b4cb" x="573.925822" y="577.865763" style="fill: #1f77b4; stroke: #1f77b4"/>
     <use xlink:href="#mdd2b09b4cb" x="621.469701" y="575.387879" style="fill: #1f77b4; stroke: #1f77b4"/>
     <use xlink:href="#mdd2b09b4cb" x="692.785519" y="572.706293" style="fill: #1f77b4; stroke: #1f77b4"/>
     <use xlink:href="#mdd2b09b4cb" x="764.101337" y="567.841736" style="fill: #1f77b4; stroke: #1f77b4"/>
     <use xlink:href="#mdd2b09b4cb" x="811.645216" y="564.159876" style="fill: #1f77b4; stroke: #1f77b4"/>
    </g>
   </g>
   <g id="line2d_30">
    <path d="M 62.829125 170.42878 
L 847.303125 170.42878 
" clip-path="url(#p0dc3191a69)" style="fill: none; stroke-dasharray: 5.55,2.4; stroke-dashoffset: 0; stroke: #008000; stroke-opacity: 0.7; stroke-width: 1.5"/>
   </g>
   <g id="line2d_31">
    <path d="M 62.829125 303.693296 
L 847.303125 303.693296 
" clip-path="url(#p0dc3191a69)" style="fill: none; stroke-dasharray: 5.55,2.4; stroke-dashoffset: 0; stroke: #ffa500; stroke-opacity: 0.7; stroke-width: 1.5"/>
   </g>
   <g id="patch_6">
    <path d="M 62.829125 436.957812 
L 62.829125 23.837812 
" style="fill: none; stroke: #000000; stroke-width: 0.8; stroke-linejoin: miter; stroke-linecap: square"/>
   </g>
   <g id="patch_7">
    <path d="M 847.303125 436.957812 
L 847.303125 23.837812 
" style="fill: none; stroke: #000000; stroke-width: 0.8; stroke-linejoin: miter; stroke-linecap: square"/>
   </g>
   <g id="patch_8">
    <path d="M 62.829125 436.957812 
L 847.303125 436.957812 
" style="fill: none; stroke: #000000; stroke-width: 0.8; stroke-linejoin: miter; stroke-linecap: square"/>
   </g>
   <g id="patch_9">
    <path d="M 62.829125 23.837812 
L 847.303125 23.837812 
" style="fill: none; stroke: #000000; stroke-width: 0.8; stroke-linejoin: miter; stroke-linecap: square"/>
   </g>
   <g id="text_16">
    <!-- Cancellation Rate and Decay Rate Analysis -->
    <g transform="translate(286.349719 17.837812) scale(0.14 -0.14)">
     <defs>
      <path id="DejaVuSans-Bold-64" d="M 2919 2988 
L 2919 4863 
L 4044 4863 
L 4044 0 
L 2919 0 
L 2919 506 
Q 2688 197 2409 53 
Q 2131 -91 1766 -91 
Q 1119 -91 703 423 
Q 288 938 288 1747 
Q 288 2556 703 3070 
Q 1119 3584 1766 3584 
Q 2128 3584 2408 3439 
Q 2688 3294 2919 2988 
z
M 2181 722 
Q 2541 722 2730 984 
Q 2919 1247 2919 1747 
Q 2919 2247 2730 2509 
Q 2541 2772 2181 2772 
Q 1825 2772 1636 2509 
Q 1447 2247 1447 1747 
Q 1447 1247 1636 984 
Q 1825 722 2181 722 
z
" transform="scale(0.015625)"/>
      <path id="DejaVuSans-Bold-44" d="M 1791 3756 
L 1791 909 
L 2222 909 
Q 2959 909 3348 1275 
Q 3738 1641 3738 2338 
Q 3738 3031 3350 3393 
Q 2963 3756 2222 3756 
L 1791 3756 
z
M 588 4666 
L 1856 4666 
Q 2919 4666 3439 4514 
Q 3959 4363 4331 4000 
Q 4659 3684 4818 3271 
Q 4978 2859 4978 2338 
Q 4978 1809 4818 1395 
Q 4659 981 4331 666 
Q 3956 303 3431 151 
Q 2906 0 1856 0 
L 588 0 
L 588 4666 
z
" transform="scale(0.015625)"/>
      <path id="DejaVuSans-Bold-79" d="M 78 3500 
L 1197 3500 
L 2138 1125 
L 2938 3500 
L 4056 3500 
L 2584 -331 
Q 2363 -916 2067 -1148 
Q 1772 -1381 1288 -1381 
L 641 -1381 
L 641 -647 
L 991 -647 
Q 1275 -647 1404 -556 
Q 1534 -466 1606 -231 
L 1638 -134 
L 78 3500 
z
" transform="scale(0.015625)"/>
      <path id="DejaVuSans-Bold-41" d="M 3419 850 
L 1538 850 
L 1241 0 
L 31 0 
L 1759 4666 
L 3194 4666 
L 4922 0 
L 3713 0 
L 3419 850 
z
M 1838 1716 
L 3116 1716 
L 2478 3572 
L 1838 1716 
z
" transform="scale(0.015625)"/>
      <path id="DejaVuSans-Bold-73" d="M 3272 3391 
L 3272 2541 
Q 2913 2691 2578 2766 
Q 2244 2841 1947 2841 
Q 1628 2841 1473 2761 
Q 1319 2681 1319 2516 
Q 1319 2381 1436 2309 
Q 1553 2238 1856 2203 
L 2053 2175 
Q 2913 2066 3209 1816 
Q 3506 1566 3506 1031 
Q 3506 472 3093 190 
Q 2681 -91 1863 -91 
Q 1516 -91 1145 -36 
Q 775 19 384 128 
L 384 978 
Q 719 816 1070 734 
Q 1422 653 1784 653 
Q 2113 653 2278 743 
Q 2444 834 2444 1013 
Q 2444 1163 2330 1236 
Q 2216 1309 1875 1350 
L 1678 1375 
Q 931 1469 631 1722 
Q 331 1975 331 2491 
Q 331 3047 712 3315 
Q 1094 3584 1881 3584 
Q 2191 3584 2531 3537 
Q 2872 3491 3272 3391 
z
" transform="scale(0.015625)"/>
     </defs>
     <use xlink:href="#DejaVuSans-Bold-43"/>
     <use xlink:href="#DejaVuSans-Bold-61" x="73.388672"/>
     <use xlink:href="#DejaVuSans-Bold-6e" x="140.869141"/>
     <use xlink:href="#DejaVuSans-Bold-63" x="212.060547"/>
     <use xlink:href="#DejaVuSans-Bold-65" x="271.337891"/>
     <use xlink:href="#DejaVuSans-Bold-6c" x="339.160156"/>
     <use xlink:href="#DejaVuSans-Bold-6c" x="373.4375"/>
     <use xlink:href="#DejaVuSans-Bold-61" x="407.714844"/>
     <use xlink:href="#DejaVuSans-Bold-74" x="475.195312"/>
     <use xlink:href="#DejaVuSans-Bold-69" x="522.998047"/>
     <use xlink:href="#DejaVuSans-Bold-6f" x="557.275391"/>
     <use xlink:href="#DejaVuSans-Bold-6e" x="625.976562"/>
     <use xlink:href="#DejaVuSans-Bold-20" x="697.167969"/>
     <use xlink:href="#DejaVuSans-Bold-52" x="731.982422"/>
     <use xlink:href="#DejaVuSans-Bold-61" x="808.984375"/>
     <use xlink:href="#DejaVuSans-Bold-74" x="876.464844"/>
     <use xlink:href="#DejaVuSans-Bold-65" x="924.267578"/>
     <use xlink:href="#DejaVuSans-Bold-20" x="992.089844"/>
     <use xlink:href="#DejaVuSans-Bold-61" x="1026.904297"/>
     <use xlink:href="#DejaVuSans-Bold-6e" x="1094.384766"/>
     <use xlink:href="#DejaVuSans-Bold-64" x="1165.576172"/>
     <use xlink:href="#DejaVuSans-Bold-20" x="1237.158203"/>
     <use xlink:href="#DejaVuSans-Bold-44" x="1271.972656"/>
     <use xlink:href="#DejaVuSans-Bold-65" x="1354.980469"/>
     <use xlink:href="#DejaVuSans-Bold-63" x="1422.802734"/>
     <use xlink:href="#DejaVuSans-Bold-61" x="1482.080078"/>
     <use xlink:href="#DejaVuSans-Bold-79" x="1546.435547"/>
     <use xlink:href="#DejaVuSans-Bold-20" x="1611.621094"/>
     <use xlink:href="#DejaVuSans-Bold-52" x="1646.435547"/>
     <use xlink:href="#DejaVuSans-Bold-61" x="1723.4375"/>
     <use xlink:href="#DejaVuSans-Bold-74" x="1790.917969"/>
     <use xlink:href="#DejaVuSans-Bold-65" x="1838.720703"/>
     <use xlink:href="#DejaVuSans-Bold-20" x="1906.542969"/>
     <use xlink:href="#DejaVuSans-Bold-41" x="1941.357422"/>
     <use xlink:href="#DejaVuSans-Bold-6e" x="2018.75"/>
     <use xlink:href="#DejaVuSans-Bold-61" x="2089.941406"/>
     <use xlink:href="#DejaVuSans-Bold-6c" x="2157.421875"/>
     <use xlink:href="#DejaVuSans-Bold-79" x="2191.699219"/>
     <use xlink:href="#DejaVuSans-Bold-73" x="2256.884766"/>
     <use xlink:href="#DejaVuSans-Bold-69" x="2316.40625"/>
     <use xlink:href="#DejaVuSans-Bold-73" x="2350.683594"/>
    </g>
   </g>
   <g id="legend_1">
    <g id="patch_10">
     <path d="M 719.154688 75.872187 
L 840.303125 75.872187 
Q 842.303125 75.872187 842.303125 73.872187 
L 842.303125 30.837812 
Q 842.303125 28.837812 840.303125 28.837812 
L 719.154688 28.837812 
Q 717.154688 28.837812 717.154688 30.837812 
L 717.154688 73.872187 
Q 717.154688 75.872187 719.154688 75.872187 
z
" style="fill: #ffffff; opacity: 0.8; stroke: #cccccc; stroke-linejoin: miter"/>
    </g>
    <g id="patch_11">
     <path d="M 721.154688 40.43625 
L 741.154688 40.43625 
L 741.154688 33.43625 
L 721.154688 33.43625 
z
" style="fill: #008000; opacity: 0.1; stroke: #008000; stroke-linejoin: miter"/>
    </g>
    <g id="text_17">
     <!-- Excellent (≥90%) -->
     <g transform="translate(749.154688 40.43625) scale(0.1 -0.1)">
      <defs>
       <path id="DejaVuSans-45" d="M 628 4666 
L 3578 4666 
L 3578 4134 
L 1259 4134 
L 1259 2753 
L 3481 2753 
L 3481 2222 
L 1259 2222 
L 1259 531 
L 3634 531 
L 3634 0 
L 628 0 
L 628 4666 
z
" transform="scale(0.015625)"/>
       <path id="DejaVuSans-78" d="M 3513 3500 
L 2247 1797 
L 3578 0 
L 2900 0 
L 1881 1375 
L 863 0 
L 184 0 
L 1544 1831 
L 300 3500 
L 978 3500 
L 1906 2253 
L 2834 3500 
L 3513 3500 
z
" transform="scale(0.015625)"/>
       <path id="DejaVuSans-63" d="M 3122 3366 
L 3122 2828 
Q 2878 2963 2633 3030 
Q 2388 3097 2138 3097 
Q 1578 3097 1268 2742 
Q 959 2388 959 1747 
Q 959 1106 1268 751 
Q 1578 397 2138 397 
Q 2388 397 2633 464 
Q 2878 531 3122 666 
L 3122 134 
Q 2881 22 2623 -34 
Q 2366 -91 2075 -91 
Q 1284 -91 818 406 
Q 353 903 353 1747 
Q 353 2603 823 3093 
Q 1294 3584 2113 3584 
Q 2378 3584 2631 3529 
Q 2884 3475 3122 3366 
z
" transform="scale(0.015625)"/>
       <path id="DejaVuSans-65" d="M 3597 1894 
L 3597 1613 
L 953 1613 
Q 991 1019 1311 708 
Q 1631 397 2203 397 
Q 2534 397 2845 478 
Q 3156 559 3463 722 
L 3463 178 
Q 3153 47 2828 -22 
Q 2503 -91 2169 -91 
Q 1331 -91 842 396 
Q 353 884 353 1716 
Q 353 2575 817 3079 
Q 1281 3584 2069 3584 
Q 2775 3584 3186 3129 
Q 3597 2675 3597 1894 
z
M 3022 2063 
Q 3016 2534 2758 2815 
Q 2500 3097 2075 3097 
Q 1594 3097 1305 2825 
Q 1016 2553 972 2059 
L 3022 2063 
z
" transform="scale(0.015625)"/>
       <path id="DejaVuSans-6c" d="M 603 4863 
L 1178 4863 
L 1178 0 
L 603 0 
L 603 4863 
z
" transform="scale(0.015625)"/>
       <path id="DejaVuSans-6e" d="M 3513 2113 
L 3513 0 
L 2938 0 
L 2938 2094 
Q 2938 2591 2744 2837 
Q 2550 3084 2163 3084 
Q 1697 3084 1428 2787 
Q 1159 2491 1159 1978 
L 1159 0 
L 581 0 
L 581 3500 
L 1159 3500 
L 1159 2956 
Q 1366 3272 1645 3428 
Q 1925 3584 2291 3584 
Q 2894 3584 3203 3211 
Q 3513 2838 3513 2113 
z
" transform="scale(0.015625)"/>
       <path id="DejaVuSans-74" d="M 1172 4494 
L 1172 3500 
L 2356 3500 
L 2356 3053 
L 1172 3053 
L 1172 1153 
Q 1172 725 1289 603 
Q 1406 481 1766 481 
L 2356 481 
L 2356 0 
L 1766 0 
Q 1100 0 847 248 
Q 594 497 594 1153 
L 594 3053 
L 172 3053 
L 172 3500 
L 594 3500 
L 594 4494 
L 1172 4494 
z
" transform="scale(0.015625)"/>
       <path id="DejaVuSans-20" transform="scale(0.015625)"/>
       <path id="DejaVuSans-28" d="M 1984 4856 
Q 1566 4138 1362 3434 
Q 1159 2731 1159 2009 
Q 1159 1288 1364 580 
Q 1569 -128 1984 -844 
L 1484 -844 
Q 1016 -109 783 600 
Q 550 1309 550 2009 
Q 550 2706 781 3412 
Q 1013 4119 1484 4856 
L 1984 4856 
z
" transform="scale(0.015625)"/>
       <path id="DejaVuSans-2265" d="M 678 3175 
L 678 3725 
L 4684 2578 
L 4684 2047 
L 678 897 
L 678 1453 
L 3681 2309 
L 678 3175 
z
M 4684 531 
L 4684 0 
L 678 0 
L 678 531 
L 4684 531 
z
" transform="scale(0.015625)"/>
       <path id="DejaVuSans-25" d="M 4653 2053 
Q 4381 2053 4226 1822 
Q 4072 1591 4072 1178 
Q 4072 772 4226 539 
Q 4381 306 4653 306 
Q 4919 306 5073 539 
Q 5228 772 5228 1178 
Q 5228 1588 5073 1820 
Q 4919 2053 4653 2053 
z
M 4653 2450 
Q 5147 2450 5437 2106 
Q 5728 1763 5728 1178 
Q 5728 594 5436 251 
Q 5144 -91 4653 -91 
Q 4153 -91 3862 251 
Q 3572 594 3572 1178 
Q 3572 1766 3864 2108 
Q 4156 2450 4653 2450 
z
M 1428 4353 
Q 1159 4353 1004 4120 
Q 850 3888 850 3481 
Q 850 3069 1003 2837 
Q 1156 2606 1428 2606 
Q 1700 2606 1854 2837 
Q 2009 3069 2009 3481 
Q 2009 3884 1853 4118 
Q 1697 4353 1428 4353 
z
M 4250 4750 
L 4750 4750 
L 1831 -91 
L 1331 -91 
L 4250 4750 
z
M 1428 4750 
Q 1922 4750 2215 4408 
Q 2509 4066 2509 3481 
Q 2509 2891 2217 2550 
Q 1925 2209 1428 2209 
Q 931 2209 642 2551 
Q 353 2894 353 3481 
Q 353 4063 643 4406 
Q 934 4750 1428 4750 
z
" transform="scale(0.015625)"/>
       <path id="DejaVuSans-29" d="M 513 4856 
L 1013 4856 
Q 1481 4119 1714 3412 
Q 1947 2706 1947 2009 
Q 1947 1309 1714 600 
Q 1481 -109 1013 -844 
L 513 -844 
Q 928 -128 1133 580 
Q 1338 1288 1338 2009 
Q 1338 2731 1133 3434 
Q 928 4138 513 4856 
z
" transform="scale(0.015625)"/>
      </defs>
      <use xlink:href="#DejaVuSans-45"/>
      <use xlink:href="#DejaVuSans-78" x="63.183594"/>
      <use xlink:href="#DejaVuSans-63" x="120.613281"/>
      <use xlink:href="#DejaVuSans-65" x="175.59375"/>
      <use xlink:href="#DejaVuSans-6c" x="237.117188"/>
      <use xlink:href="#DejaVuSans-6c" x="264.900391"/>
      <use xlink:href="#DejaVuSans-65" x="292.683594"/>
      <use xlink:href="#DejaVuSans-6e" x="354.207031"/>
      <use xlink:href="#DejaVuSans-74" x="417.585938"/>
      <use xlink:href="#DejaVuSans-20" x="456.794922"/>
      <use xlink:href="#DejaVuSans-28" x="488.582031"/>
      <use xlink:href="#DejaVuSans-2265" x="527.595703"/>
      <use xlink:href="#DejaVuSans-39" x="611.384766"/>
      <use xlink:href="#DejaVuSans-30" x="675.007812"/>
      <use xlink:href="#DejaVuSans-25" x="738.630859"/>
      <use xlink:href="#DejaVuSans-29" x="833.650391"/>
     </g>
    </g>
    <g id="patch_12">
     <path d="M 721.154688 55.114375 
L 741.154688 55.114375 
L 741.154688 48.114375 
L 721.154688 48.114375 
z
" style="fill: #ffff00; opacity: 0.1; stroke: #ffff00; stroke-linejoin: miter"/>
    </g>
    <g id="text_18">
     <!-- Good (80-90%) -->
     <g transform="translate(749.154688 55.114375) scale(0.1 -0.1)">
      <defs>
       <path id="DejaVuSans-47" d="M 3809 666 
L 3809 1919 
L 2778 1919 
L 2778 2438 
L 4434 2438 
L 4434 434 
Q 4069 175 3628 42 
Q 3188 -91 2688 -91 
Q 1594 -91 976 548 
Q 359 1188 359 2328 
Q 359 3472 976 4111 
Q 1594 4750 2688 4750 
Q 3144 4750 3555 4637 
Q 3966 4525 4313 4306 
L 4313 3634 
Q 3963 3931 3569 4081 
Q 3175 4231 2741 4231 
Q 1884 4231 1454 3753 
Q 1025 3275 1025 2328 
Q 1025 1384 1454 906 
Q 1884 428 2741 428 
Q 3075 428 3337 486 
Q 3600 544 3809 666 
z
" transform="scale(0.015625)"/>
       <path id="DejaVuSans-6f" d="M 1959 3097 
Q 1497 3097 1228 2736 
Q 959 2375 959 1747 
Q 959 1119 1226 758 
Q 1494 397 1959 397 
Q 2419 397 2687 759 
Q 2956 1122 2956 1747 
Q 2956 2369 2687 2733 
Q 2419 3097 1959 3097 
z
M 1959 3584 
Q 2709 3584 3137 3096 
Q 3566 2609 3566 1747 
Q 3566 888 3137 398 
Q 2709 -91 1959 -91 
Q 1206 -91 779 398 
Q 353 888 353 1747 
Q 353 2609 779 3096 
Q 1206 3584 1959 3584 
z
" transform="scale(0.015625)"/>
       <path id="DejaVuSans-64" d="M 2906 2969 
L 2906 4863 
L 3481 4863 
L 3481 0 
L 2906 0 
L 2906 525 
Q 2725 213 2448 61 
Q 2172 -91 1784 -91 
Q 1150 -91 751 415 
Q 353 922 353 1747 
Q 353 2572 751 3078 
Q 1150 3584 1784 3584 
Q 2172 3584 2448 3432 
Q 2725 3281 2906 2969 
z
M 947 1747 
Q 947 1113 1208 752 
Q 1469 391 1925 391 
Q 2381 391 2643 752 
Q 2906 1113 2906 1747 
Q 2906 2381 2643 2742 
Q 2381 3103 1925 3103 
Q 1469 3103 1208 2742 
Q 947 2381 947 1747 
z
" transform="scale(0.015625)"/>
       <path id="DejaVuSans-2d" d="M 313 2009 
L 1997 2009 
L 1997 1497 
L 313 1497 
L 313 2009 
z
" transform="scale(0.015625)"/>
      </defs>
      <use xlink:href="#DejaVuSans-47"/>
      <use xlink:href="#DejaVuSans-6f" x="77.490234"/>
      <use xlink:href="#DejaVuSans-6f" x="138.671875"/>
      <use xlink:href="#DejaVuSans-64" x="199.853516"/>
      <use xlink:href="#DejaVuSans-20" x="263.330078"/>
      <use xlink:href="#DejaVuSans-28" x="295.117188"/>
      <use xlink:href="#DejaVuSans-38" x="334.130859"/>
      <use xlink:href="#DejaVuSans-30" x="397.753906"/>
      <use xlink:href="#DejaVuSans-2d" x="461.376953"/>
      <use xlink:href="#DejaVuSans-39" x="497.460938"/>
      <use xlink:href="#DejaVuSans-30" x="561.083984"/>
      <use xlink:href="#DejaVuSans-25" x="624.707031"/>
      <use xlink:href="#DejaVuSans-29" x="719.726562"/>
     </g>
    </g>
    <g id="patch_13">
     <path d="M 721.154688 69.7925 
L 741.154688 69.7925 
L 741.154688 62.7925 
L 721.154688 62.7925 
z
" style="fill: #ffa500; opacity: 0.1; stroke: #ffa500; stroke-linejoin: miter"/>
    </g>
    <g id="text_19">
     <!-- Moderate (&lt;80%) -->
     <g transform="translate(749.154688 69.7925) scale(0.1 -0.1)">
      <defs>
       <path id="DejaVuSans-4d" d="M 628 4666 
L 1569 4666 
L 2759 1491 
L 3956 4666 
L 4897 4666 
L 4897 0 
L 4281 0 
L 4281 4097 
L 3078 897 
L 2444 897 
L 1241 4097 
L 1241 0 
L 628 0 
L 628 4666 
z
" transform="scale(0.015625)"/>
       <path id="DejaVuSans-72" d="M 2631 2963 
Q 2534 3019 2420 3045 
Q 2306 3072 2169 3072 
Q 1681 3072 1420 2755 
Q 1159 2438 1159 1844 
L 1159 0 
L 581 0 
L 581 3500 
L 1159 3500 
L 1159 2956 
Q 1341 3275 1631 3429 
Q 1922 3584 2338 3584 
Q 2397 3584 2469 3576 
Q 2541 3569 2628 3553 
L 2631 2963 
z
" transform="scale(0.015625)"/>
       <path id="DejaVuSans-61" d="M 2194 1759 
Q 1497 1759 1228 1600 
Q 959 1441 959 1056 
Q 959 750 1161 570 
Q 1363 391 1709 391 
Q 2188 391 2477 730 
Q 2766 1069 2766 1631 
L 2766 1759 
L 2194 1759 
z
M 3341 1997 
L 3341 0 
L 2766 0 
L 2766 531 
Q 2569 213 2275 61 
Q 1981 -91 1556 -91 
Q 1019 -91 701 211 
Q 384 513 384 1019 
Q 384 1609 779 1909 
Q 1175 2209 1959 2209 
L 2766 2209 
L 2766 2266 
Q 2766 2663 2505 2880 
Q 2244 3097 1772 3097 
Q 1472 3097 1187 3025 
Q 903 2953 641 2809 
L 641 3341 
Q 956 3463 1253 3523 
Q 1550 3584 1831 3584 
Q 2591 3584 2966 3190 
Q 3341 2797 3341 1997 
z
" transform="scale(0.015625)"/>
       <path id="DejaVuSans-3c" d="M 4684 3150 
L 1459 2003 
L 4684 863 
L 4684 294 
L 678 1747 
L 678 2266 
L 4684 3719 
L 4684 3150 
z
" transform="scale(0.015625)"/>
      </defs>
      <use xlink:href="#DejaVuSans-4d"/>
      <use xlink:href="#DejaVuSans-6f" x="86.279297"/>
      <use xlink:href="#DejaVuSans-64" x="147.460938"/>
      <use xlink:href="#DejaVuSans-65" x="210.9375"/>
      <use xlink:href="#DejaVuSans-72" x="272.460938"/>
      <use xlink:href="#DejaVuSans-61" x="313.574219"/>
      <use xlink:href="#DejaVuSans-74" x="374.853516"/>
      <use xlink:href="#DejaVuSans-65" x="414.0625"/>
      <use xlink:href="#DejaVuSans-20" x="475.585938"/>
      <use xlink:href="#DejaVuSans-28" x="507.373047"/>
      <use xlink:href="#DejaVuSans-3c" x="546.386719"/>
      <use xlink:href="#DejaVuSans-38" x="630.175781"/>
      <use xlink:href="#DejaVuSans-30" x="693.798828"/>
      <use xlink:href="#DejaVuSans-25" x="757.421875"/>
      <use xlink:href="#DejaVuSans-29" x="852.441406"/>
     </g>
    </g>
   </g>
  </g>
  <g id="axes_2">
   <g id="patch_14">
    <path d="M 62.829125 671.397812 
L 847.303125 671.397812 
L 847.303125 464.837812 
L 62.829125 464.837812 
z
" style="fill: #ffffff"/>
   </g>
   <g id="PolyCollection_1">
    <defs>
     <path id="mc60e2fe602" d="M 98.487034 -40.472045 
L 98.487034 -40.459688 
L 122.258973 -40.459688 
L 146.030913 -40.459688 
L 169.802852 -40.459688 
L 193.574792 -40.459688 
L 217.346731 -40.459688 
L 241.11867 -40.459688 
L 264.89061 -40.459688 
L 288.662549 -40.459688 
L 312.434489 -40.459688 
L 336.206428 -40.459688 
L 359.978367 -40.459688 
L 383.750307 -40.459688 
L 407.522246 -40.459688 
L 431.294186 -40.459688 
L 455.066125 -40.459688 
L 478.838064 -40.459688 
L 502.610004 -40.459688 
L 526.381943 -40.459688 
L 550.153883 -40.459688 
L 573.925822 -40.459688 
L 621.469701 -40.459688 
L 692.785519 -40.459688 
L 764.101337 -40.459688 
L 811.645216 -40.459688 
L 811.645216 -38.963195 
L 811.645216 -38.963195 
L 764.101337 -39.034539 
L 692.785519 -39.437311 
L 621.469701 -39.564758 
L 573.925822 -39.638584 
L 550.153883 -40.04745 
L 526.381943 -40.9441 
L 502.610004 -41.526137 
L 478.838064 -41.196692 
L 455.066125 -41.254771 
L 431.294186 -41.639823 
L 407.522246 -42.169957 
L 383.750307 -42.664254 
L 359.978367 -230.141405 
L 336.206428 -237.112235 
L 312.434489 -55.713708 
L 288.662549 -53.512848 
L 264.89061 -51.103148 
L 241.11867 -46.218253 
L 217.346731 -41.444575 
L 193.574792 -40.491817 
L 169.802852 -40.485638 
L 146.030913 -40.483167 
L 122.258973 -40.478224 
L 98.487034 -40.472045 
z
" style="stroke: #ff0000; stroke-opacity: 0.3"/>
    </defs>
    <g clip-path="url(#p7c4dfdf9f0)">
     <use xlink:href="#mc60e2fe602" x="0" y="711.8575" style="fill: #ff0000; fill-opacity: 0.3; stroke: #ff0000; stroke-opacity: 0.3"/>
    </g>
   </g>
   <g id="matplotlib.axis_3">
    <g id="xtick_8">
     <g id="line2d_32">
      <path d="M 98.487034 671.397812 
L 98.487034 464.837812 
" clip-path="url(#p7c4dfdf9f0)" style="fill: none; stroke: #b0b0b0; stroke-opacity: 0.3; stroke-width: 0.8; stroke-linecap: square"/>
     </g>
     <g id="line2d_33">
      <g>
       <use xlink:href="#mb4c6c28d54" x="98.487034" y="671.397812" style="stroke: #000000; stroke-width: 0.8"/>
      </g>
     </g>
     <g id="text_20">
      <!-- 0.0 -->
      <g transform="translate(90.535472 685.99625) scale(0.1 -0.1)">
       <use xlink:href="#DejaVuSans-30"/>
       <use xlink:href="#DejaVuSans-2e" x="63.623047"/>
       <use xlink:href="#DejaVuSans-30" x="95.410156"/>
      </g>
     </g>
    </g>
    <g id="xtick_9">
     <g id="line2d_34">
      <path d="M 217.346731 671.397812 
L 217.346731 464.837812 
" clip-path="url(#p7c4dfdf9f0)" style="fill: none; stroke: #b0b0b0; stroke-opacity: 0.3; stroke-width: 0.8; stroke-linecap: square"/>
     </g>
     <g id="line2d_35">
      <g>
       <use xlink:href="#mb4c6c28d54" x="217.346731" y="671.397812" style="stroke: #000000; stroke-width: 0.8"/>
      </g>
     </g>
     <g id="text_21">
      <!-- 0.5 -->
      <g transform="translate(209.395169 685.99625) scale(0.1 -0.1)">
       <use xlink:href="#DejaVuSans-30"/>
       <use xlink:href="#DejaVuSans-2e" x="63.623047"/>
       <use xlink:href="#DejaVuSans-35" x="95.410156"/>
      </g>
     </g>
    </g>
    <g id="xtick_10">
     <g id="line2d_36">
      <path d="M 336.206428 671.397812 
L 336.206428 464.837812 
" clip-path="url(#p7c4dfdf9f0)" style="fill: none; stroke: #b0b0b0; stroke-opacity: 0.3; stroke-width: 0.8; stroke-linecap: square"/>
     </g>
     <g id="line2d_37">
      <g>
       <use xlink:href="#mb4c6c28d54" x="336.206428" y="671.397812" style="stroke: #000000; stroke-width: 0.8"/>
      </g>
     </g>
     <g id="text_22">
      <!-- 1.0 -->
      <g transform="translate(328.254866 685.99625) scale(0.1 -0.1)">
       <use xlink:href="#DejaVuSans-31"/>
       <use xlink:href="#DejaVuSans-2e" x="63.623047"/>
       <use xlink:href="#DejaVuSans-30" x="95.410156"/>
      </g>
     </g>
    </g>
    <g id="xtick_11">
     <g id="line2d_38">
      <path d="M 455.066125 671.397812 
L 455.066125 464.837812 
" clip-path="url(#p7c4dfdf9f0)" style="fill: none; stroke: #b0b0b0; stroke-opacity: 0.3; stroke-width: 0.8; stroke-linecap: square"/>
     </g>
     <g id="line2d_39">
      <g>
       <use xlink:href="#mb4c6c28d54" x="455.066125" y="671.397812" style="stroke: #000000; stroke-width: 0.8"/>
      </g>
     </g>
     <g id="text_23">
      <!-- 1.5 -->
      <g transform="translate(447.114563 685.99625) scale(0.1 -0.1)">
       <use xlink:href="#DejaVuSans-31"/>
       <use xlink:href="#DejaVuSans-2e" x="63.623047"/>
       <use xlink:href="#DejaVuSans-35" x="95.410156"/>
      </g>
     </g>
    </g>
    <g id="xtick_12">
     <g id="line2d_40">
      <path d="M 573.925822 671.397812 
L 573.925822 464.837812 
" clip-path="url(#p7c4dfdf9f0)" style="fill: none; stroke: #b0b0b0; stroke-opacity: 0.3; stroke-width: 0.8; stroke-linecap: square"/>
     </g>
     <g id="line2d_41">
      <g>
       <use xlink:href="#mb4c6c28d54" x="573.925822" y="671.397812" style="stroke: #000000; stroke-width: 0.8"/>
      </g>
     </g>
     <g id="text_24">
      <!-- 2.0 -->
      <g transform="translate(565.974259 685.99625) scale(0.1 -0.1)">
       <use xlink:href="#DejaVuSans-32"/>
       <use xlink:href="#DejaVuSans-2e" x="63.623047"/>
       <use xlink:href="#DejaVuSans-30" x="95.410156"/>
      </g>
     </g>
    </g>
    <g id="xtick_13">
     <g id="line2d_42">
      <path d="M 692.785519 671.397812 
L 692.785519 464.837812 
" clip-path="url(#p7c4dfdf9f0)" style="fill: none; stroke: #b0b0b0; stroke-opacity: 0.3; stroke-width: 0.8; stroke-linecap: square"/>
     </g>
     <g id="line2d_43">
      <g>
       <use xlink:href="#mb4c6c28d54" x="692.785519" y="671.397812" style="stroke: #000000; stroke-width: 0.8"/>
      </g>
     </g>
     <g id="text_25">
      <!-- 2.5 -->
      <g transform="translate(684.833956 685.99625) scale(0.1 -0.1)">
       <use xlink:href="#DejaVuSans-32"/>
       <use xlink:href="#DejaVuSans-2e" x="63.623047"/>
       <use xlink:href="#DejaVuSans-35" x="95.410156"/>
      </g>
     </g>
    </g>
    <g id="xtick_14">
     <g id="line2d_44">
      <path d="M 811.645216 671.397812 
L 811.645216 464.837812 
" clip-path="url(#p7c4dfdf9f0)" style="fill: none; stroke: #b0b0b0; stroke-opacity: 0.3; stroke-width: 0.8; stroke-linecap: square"/>
     </g>
     <g id="line2d_45">
      <g>
       <use xlink:href="#mb4c6c28d54" x="811.645216" y="671.397812" style="stroke: #000000; stroke-width: 0.8"/>
      </g>
     </g>
     <g id="text_26">
      <!-- 3.0 -->
      <g transform="translate(803.693653 685.99625) scale(0.1 -0.1)">
       <use xlink:href="#DejaVuSans-33"/>
       <use xlink:href="#DejaVuSans-2e" x="63.623047"/>
       <use xlink:href="#DejaVuSans-30" x="95.410156"/>
      </g>
     </g>
    </g>
    <g id="text_27">
     <!-- Prediction Horizon Δt (ms) -->
     <g transform="translate(357.80175 701.953906) scale(0.13 -0.13)">
      <defs>
       <path id="DejaVuSans-Bold-50" d="M 588 4666 
L 2584 4666 
Q 3475 4666 3951 4270 
Q 4428 3875 4428 3144 
Q 4428 2409 3951 2014 
Q 3475 1619 2584 1619 
L 1791 1619 
L 1791 0 
L 588 0 
L 588 4666 
z
M 1791 3794 
L 1791 2491 
L 2456 2491 
Q 2806 2491 2997 2661 
Q 3188 2831 3188 3144 
Q 3188 3456 2997 3625 
Q 2806 3794 2456 3794 
L 1791 3794 
z
" transform="scale(0.015625)"/>
       <path id="DejaVuSans-Bold-72" d="M 3138 2547 
Q 2991 2616 2845 2648 
Q 2700 2681 2553 2681 
Q 2122 2681 1889 2404 
Q 1656 2128 1656 1613 
L 1656 0 
L 538 0 
L 538 3500 
L 1656 3500 
L 1656 2925 
Q 1872 3269 2151 3426 
Q 2431 3584 2822 3584 
Q 2878 3584 2943 3579 
Q 3009 3575 3134 3559 
L 3138 2547 
z
" transform="scale(0.015625)"/>
       <path id="DejaVuSans-Bold-48" d="M 588 4666 
L 1791 4666 
L 1791 2888 
L 3566 2888 
L 3566 4666 
L 4769 4666 
L 4769 0 
L 3566 0 
L 3566 1978 
L 1791 1978 
L 1791 0 
L 588 0 
L 588 4666 
z
" transform="scale(0.015625)"/>
       <path id="DejaVuSans-Bold-7a" d="M 366 3500 
L 3419 3500 
L 3419 2719 
L 1575 800 
L 3419 800 
L 3419 0 
L 288 0 
L 288 781 
L 2131 2700 
L 366 2700 
L 366 3500 
z
" transform="scale(0.015625)"/>
       <path id="DejaVuSans-Bold-394" d="M 4922 0 
L 31 0 
L 1759 4666 
L 3194 4666 
L 4922 0 
z
M 1559 909 
L 3384 909 
L 2478 3572 
L 1559 909 
z
" transform="scale(0.015625)"/>
       <path id="DejaVuSans-Bold-6d" d="M 3781 2919 
Q 3994 3244 4286 3414 
Q 4578 3584 4928 3584 
Q 5531 3584 5847 3212 
Q 6163 2841 6163 2131 
L 6163 0 
L 5038 0 
L 5038 1825 
Q 5041 1866 5042 1909 
Q 5044 1953 5044 2034 
Q 5044 2406 4934 2573 
Q 4825 2741 4581 2741 
Q 4263 2741 4089 2478 
Q 3916 2216 3909 1719 
L 3909 0 
L 2784 0 
L 2784 1825 
Q 2784 2406 2684 2573 
Q 2584 2741 2328 2741 
Q 2006 2741 1831 2477 
Q 1656 2213 1656 1722 
L 1656 0 
L 531 0 
L 531 3500 
L 1656 3500 
L 1656 2988 
Q 1863 3284 2130 3434 
Q 2397 3584 2719 3584 
Q 3081 3584 3359 3409 
Q 3638 3234 3781 2919 
z
" transform="scale(0.015625)"/>
      </defs>
      <use xlink:href="#DejaVuSans-Bold-50"/>
      <use xlink:href="#DejaVuSans-Bold-72" x="73.291016"/>
      <use xlink:href="#DejaVuSans-Bold-65" x="122.607422"/>
      <use xlink:href="#DejaVuSans-Bold-64" x="190.429688"/>
      <use xlink:href="#DejaVuSans-Bold-69" x="262.011719"/>
      <use xlink:href="#DejaVuSans-Bold-63" x="296.289062"/>
      <use xlink:href="#DejaVuSans-Bold-74" x="355.566406"/>
      <use xlink:href="#DejaVuSans-Bold-69" x="403.369141"/>
      <use xlink:href="#DejaVuSans-Bold-6f" x="437.646484"/>
      <use xlink:href="#DejaVuSans-Bold-6e" x="506.347656"/>
      <use xlink:href="#DejaVuSans-Bold-20" x="577.539062"/>
      <use xlink:href="#DejaVuSans-Bold-48" x="612.353516"/>
      <use xlink:href="#DejaVuSans-Bold-6f" x="696.044922"/>
      <use xlink:href="#DejaVuSans-Bold-72" x="764.746094"/>
      <use xlink:href="#DejaVuSans-Bold-69" x="814.0625"/>
      <use xlink:href="#DejaVuSans-Bold-7a" x="848.339844"/>
      <use xlink:href="#DejaVuSans-Bold-6f" x="906.542969"/>
      <use xlink:href="#DejaVuSans-Bold-6e" x="975.244141"/>
      <use xlink:href="#DejaVuSans-Bold-20" x="1046.435547"/>
      <use xlink:href="#DejaVuSans-Bold-394" x="1081.25"/>
      <use xlink:href="#DejaVuSans-Bold-74" x="1158.642578"/>
      <use xlink:href="#DejaVuSans-Bold-20" x="1206.445312"/>
      <use xlink:href="#DejaVuSans-Bold-28" x="1241.259766"/>
      <use xlink:href="#DejaVuSans-Bold-6d" x="1286.962891"/>
      <use xlink:href="#DejaVuSans-Bold-73" x="1391.162109"/>
      <use xlink:href="#DejaVuSans-Bold-29" x="1450.683594"/>
     </g>
    </g>
   </g>
   <g id="matplotlib.axis_4">
    <g id="ytick_8">
     <g id="line2d_46">
      <path d="M 62.829125 671.397812 
L 847.303125 671.397812 
" clip-path="url(#p7c4dfdf9f0)" style="fill: none; stroke: #b0b0b0; stroke-opacity: 0.3; stroke-width: 0.8; stroke-linecap: square"/>
     </g>
     <g id="line2d_47">
      <g>
       <use xlink:href="#me3df17d355" x="62.829125" y="671.397812" style="stroke: #000000; stroke-width: 0.8"/>
      </g>
     </g>
     <g id="text_28">
      <!-- 0 -->
      <g transform="translate(49.466625 675.197031) scale(0.1 -0.1)">
       <use xlink:href="#DejaVuSans-30"/>
      </g>
     </g>
    </g>
    <g id="ytick_9">
     <g id="line2d_48">
      <path d="M 62.829125 644.31513 
L 847.303125 644.31513 
" clip-path="url(#p7c4dfdf9f0)" style="fill: none; stroke: #b0b0b0; stroke-opacity: 0.3; stroke-width: 0.8; stroke-linecap: square"/>
     </g>
     <g id="line2d_49">
      <g>
       <use xlink:href="#me3df17d355" x="62.829125" y="644.31513" style="stroke: #000000; stroke-width: 0.8"/>
      </g>
     </g>
     <g id="text_29">
      <!-- 25 -->
      <g transform="translate(43.104125 648.114348) scale(0.1 -0.1)">
       <use xlink:href="#DejaVuSans-32"/>
       <use xlink:href="#DejaVuSans-35" x="63.623047"/>
      </g>
     </g>
    </g>
    <g id="ytick_10">
     <g id="line2d_50">
      <path d="M 62.829125 617.232447 
L 847.303125 617.232447 
" clip-path="url(#p7c4dfdf9f0)" style="fill: none; stroke: #b0b0b0; stroke-opacity: 0.3; stroke-width: 0.8; stroke-linecap: square"/>
     </g>
     <g id="line2d_51">
      <g>
       <use xlink:href="#me3df17d355" x="62.829125" y="617.232447" style="stroke: #000000; stroke-width: 0.8"/>
      </g>
     </g>
     <g id="text_30">
      <!-- 50 -->
      <g transform="translate(43.104125 621.031665) scale(0.1 -0.1)">
       <use xlink:href="#DejaVuSans-35"/>
       <use xlink:href="#DejaVuSans-30" x="63.623047"/>
      </g>
     </g>
    </g>
    <g id="ytick_11">
     <g id="line2d_52">
      <path d="M 62.829125 590.149764 
L 847.303125 590.149764 
" clip-path="url(#p7c4dfdf9f0)" style="fill: none; stroke: #b0b0b0; stroke-opacity: 0.3; stroke-width: 0.8; stroke-linecap: square"/>
     </g>
     <g id="line2d_53">
      <g>
       <use xlink:href="#me3df17d355" x="62.829125" y="590.149764" style="stroke: #000000; stroke-width: 0.8"/>
      </g>
     </g>
     <g id="text_31">
      <!-- 75 -->
      <g transform="translate(43.104125 593.948983) scale(0.1 -0.1)">
       <use xlink:href="#DejaVuSans-37"/>
       <use xlink:href="#DejaVuSans-35" x="63.623047"/>
      </g>
     </g>
    </g>
    <g id="ytick_12">
     <g id="line2d_54">
      <path d="M 62.829125 563.067081 
L 847.303125 563.067081 
" clip-path="url(#p7c4dfdf9f0)" style="fill: none; stroke: #b0b0b0; stroke-opacity: 0.3; stroke-width: 0.8; stroke-linecap: square"/>
     </g>
     <g id="line2d_55">
      <g>
       <use xlink:href="#me3df17d355" x="62.829125" y="563.067081" style="stroke: #000000; stroke-width: 0.8"/>
      </g>
     </g>
     <g id="text_32">
      <!-- 100 -->
      <g transform="translate(36.741625 566.8663) scale(0.1 -0.1)">
       <use xlink:href="#DejaVuSans-31"/>
       <use xlink:href="#DejaVuSans-30" x="63.623047"/>
       <use xlink:href="#DejaVuSans-30" x="127.246094"/>
      </g>
     </g>
    </g>
    <g id="ytick_13">
     <g id="line2d_56">
      <path d="M 62.829125 535.984398 
L 847.303125 535.984398 
" clip-path="url(#p7c4dfdf9f0)" style="fill: none; stroke: #b0b0b0; stroke-opacity: 0.3; stroke-width: 0.8; stroke-linecap: square"/>
     </g>
     <g id="line2d_57">
      <g>
       <use xlink:href="#me3df17d355" x="62.829125" y="535.984398" style="stroke: #000000; stroke-width: 0.8"/>
      </g>
     </g>
     <g id="text_33">
      <!-- 125 -->
      <g transform="translate(36.741625 539.783617) scale(0.1 -0.1)">
       <use xlink:href="#DejaVuSans-31"/>
       <use xlink:href="#DejaVuSans-32" x="63.623047"/>
       <use xlink:href="#DejaVuSans-35" x="127.246094"/>
      </g>
     </g>
    </g>
    <g id="ytick_14">
     <g id="line2d_58">
      <path d="M 62.829125 508.901715 
L 847.303125 508.901715 
" clip-path="url(#p7c4dfdf9f0)" style="fill: none; stroke: #b0b0b0; stroke-opacity: 0.3; stroke-width: 0.8; stroke-linecap: square"/>
     </g>
     <g id="line2d_59">
      <g>
       <use xlink:href="#me3df17d355" x="62.829125" y="508.901715" style="stroke: #000000; stroke-width: 0.8"/>
      </g>
     </g>
     <g id="text_34">
      <!-- 150 -->
      <g transform="translate(36.741625 512.700934) scale(0.1 -0.1)">
       <use xlink:href="#DejaVuSans-31"/>
       <use xlink:href="#DejaVuSans-35" x="63.623047"/>
       <use xlink:href="#DejaVuSans-30" x="127.246094"/>
      </g>
     </g>
    </g>
    <g id="ytick_15">
     <g id="line2d_60">
      <path d="M 62.829125 481.819032 
L 847.303125 481.819032 
" clip-path="url(#p7c4dfdf9f0)" style="fill: none; stroke: #b0b0b0; stroke-opacity: 0.3; stroke-width: 0.8; stroke-linecap: square"/>
     </g>
     <g id="line2d_61">
      <g>
       <use xlink:href="#me3df17d355" x="62.829125" y="481.819032" style="stroke: #000000; stroke-width: 0.8"/>
      </g>
     </g>
     <g id="text_35">
      <!-- 175 -->
      <g transform="translate(36.741625 485.618251) scale(0.1 -0.1)">
       <use xlink:href="#DejaVuSans-31"/>
       <use xlink:href="#DejaVuSans-37" x="63.623047"/>
       <use xlink:href="#DejaVuSans-35" x="127.246094"/>
      </g>
     </g>
    </g>
    <g id="text_36">
     <!-- Performance Decay Rate -->
     <g transform="translate(16.318125 651.598437) rotate(-90) scale(0.12 -0.12)">
      <defs>
       <path id="DejaVuSans-Bold-66" d="M 2841 4863 
L 2841 4128 
L 2222 4128 
Q 1984 4128 1890 4042 
Q 1797 3956 1797 3744 
L 1797 3500 
L 2753 3500 
L 2753 2700 
L 1797 2700 
L 1797 0 
L 678 0 
L 678 2700 
L 122 2700 
L 122 3500 
L 678 3500 
L 678 3744 
Q 678 4316 997 4589 
Q 1316 4863 1984 4863 
L 2841 4863 
z
" transform="scale(0.015625)"/>
      </defs>
      <use xlink:href="#DejaVuSans-Bold-50"/>
      <use xlink:href="#DejaVuSans-Bold-65" x="73.291016"/>
      <use xlink:href="#DejaVuSans-Bold-72" x="141.113281"/>
      <use xlink:href="#DejaVuSans-Bold-66" x="190.429688"/>
      <use xlink:href="#DejaVuSans-Bold-6f" x="233.935547"/>
      <use xlink:href="#DejaVuSans-Bold-72" x="302.636719"/>
      <use xlink:href="#DejaVuSans-Bold-6d" x="351.953125"/>
      <use xlink:href="#DejaVuSans-Bold-61" x="456.152344"/>
      <use xlink:href="#DejaVuSans-Bold-6e" x="523.632812"/>
      <use xlink:href="#DejaVuSans-Bold-63" x="594.824219"/>
      <use xlink:href="#DejaVuSans-Bold-65" x="654.101562"/>
      <use xlink:href="#DejaVuSans-Bold-20" x="721.923828"/>
      <use xlink:href="#DejaVuSans-Bold-44" x="756.738281"/>
      <use xlink:href="#DejaVuSans-Bold-65" x="839.746094"/>
      <use xlink:href="#DejaVuSans-Bold-63" x="907.568359"/>
      <use xlink:href="#DejaVuSans-Bold-61" x="966.845703"/>
      <use xlink:href="#DejaVuSans-Bold-79" x="1031.201172"/>
      <use xlink:href="#DejaVuSans-Bold-20" x="1096.386719"/>
      <use xlink:href="#DejaVuSans-Bold-52" x="1131.201172"/>
      <use xlink:href="#DejaVuSans-Bold-61" x="1208.203125"/>
      <use xlink:href="#DejaVuSans-Bold-74" x="1275.683594"/>
      <use xlink:href="#DejaVuSans-Bold-65" x="1323.486328"/>
     </g>
     <!-- |dCR/dΔt| (%/ms) -->
     <g transform="translate(29.91225 625.417812) rotate(-90) scale(0.12 -0.12)">
      <defs>
       <path id="DejaVuSans-Bold-7c" d="M 1522 4891 
L 1522 -1509 
L 813 -1509 
L 813 4891 
L 1522 4891 
z
" transform="scale(0.015625)"/>
       <path id="DejaVuSans-Bold-2f" d="M 1644 4666 
L 2338 4666 
L 691 -594 
L 0 -594 
L 1644 4666 
z
" transform="scale(0.015625)"/>
      </defs>
      <use xlink:href="#DejaVuSans-Bold-7c"/>
      <use xlink:href="#DejaVuSans-Bold-64" x="36.523438"/>
      <use xlink:href="#DejaVuSans-Bold-43" x="108.105469"/>
      <use xlink:href="#DejaVuSans-Bold-52" x="181.494141"/>
      <use xlink:href="#DejaVuSans-Bold-2f" x="258.496094"/>
      <use xlink:href="#DejaVuSans-Bold-64" x="295.019531"/>
      <use xlink:href="#DejaVuSans-Bold-394" x="366.601562"/>
      <use xlink:href="#DejaVuSans-Bold-74" x="443.994141"/>
      <use xlink:href="#DejaVuSans-Bold-7c" x="491.796875"/>
      <use xlink:href="#DejaVuSans-Bold-20" x="528.320312"/>
      <use xlink:href="#DejaVuSans-Bold-28" x="563.134766"/>
      <use xlink:href="#DejaVuSans-Bold-25" x="608.837891"/>
      <use xlink:href="#DejaVuSans-Bold-2f" x="709.033203"/>
      <use xlink:href="#DejaVuSans-Bold-6d" x="745.556641"/>
      <use xlink:href="#DejaVuSans-Bold-73" x="849.755859"/>
      <use xlink:href="#DejaVuSans-Bold-29" x="909.277344"/>
     </g>
    </g>
   </g>
   <g id="line2d_62">
    <path d="M 98.487034 671.385455 
L 122.258973 671.379276 
L 146.030913 671.374333 
L 169.802852 671.371862 
L 193.574792 671.365683 
L 217.346731 670.412925 
L 241.11867 665.639247 
L 264.89061 660.754352 
L 288.662549 658.344652 
L 312.434489 656.143792 
L 336.206428 474.745265 
L 359.978367 481.716095 
L 383.750307 669.193246 
L 407.522246 669.687543 
L 431.294186 670.217677 
L 455.066125 670.602729 
L 478.838064 670.660808 
L 502.610004 670.331363 
L 526.381943 670.9134 
L 550.153883 671.81005 
L 573.925822 672.218916 
L 621.469701 672.292742 
L 692.785519 672.420189 
L 764.101337 672.822961 
L 811.645216 672.894305 
" clip-path="url(#p7c4dfdf9f0)" style="fill: none; stroke: #ff0000; stroke-width: 2; stroke-linecap: square"/>
    <defs>
     <path id="m5560322cfe" d="M 0 2.5 
C 0.663008 2.5 1.29895 2.236584 1.767767 1.767767 
C 2.236584 1.29895 2.5 0.663008 2.5 0 
C 2.5 -0.663008 2.236584 -1.29895 1.767767 -1.767767 
C 1.29895 -2.236584 0.663008 -2.5 0 -2.5 
C -0.663008 -2.5 -1.29895 -2.236584 -1.767767 -1.767767 
C -2.236584 -1.29895 -2.5 -0.663008 -2.5 0 
C -2.5 0.663008 -2.236584 1.29895 -1.767767 1.767767 
C -1.29895 2.236584 -0.663008 2.5 0 2.5 
z
" style="stroke: #ff0000"/>
    </defs>
    <g clip-path="url(#p7c4dfdf9f0)">
     <use xlink:href="#m5560322cfe" x="98.487034" y="671.385455" style="fill: #ff0000; stroke: #ff0000"/>
     <use xlink:href="#m5560322cfe" x="122.258973" y="671.379276" style="fill: #ff0000; stroke: #ff0000"/>
     <use xlink:href="#m5560322cfe" x="146.030913" y="671.374333" style="fill: #ff0000; stroke: #ff0000"/>
     <use xlink:href="#m5560322cfe" x="169.802852" y="671.371862" style="fill: #ff0000; stroke: #ff0000"/>
     <use xlink:href="#m5560322cfe" x="193.574792" y="671.365683" style="fill: #ff0000; stroke: #ff0000"/>
     <use xlink:href="#m5560322cfe" x="217.346731" y="670.412925" style="fill: #ff0000; stroke: #ff0000"/>
     <use xlink:href="#m5560322cfe" x="241.11867" y="665.639247" style="fill: #ff0000; stroke: #ff0000"/>
     <use xlink:href="#m5560322cfe" x="264.89061" y="660.754352" style="fill: #ff0000; stroke: #ff0000"/>
     <use xlink:href="#m5560322cfe" x="288.662549" y="658.344652" style="fill: #ff0000; stroke: #ff0000"/>
     <use xlink:href="#m5560322cfe" x="312.434489" y="656.143792" style="fill: #ff0000; stroke: #ff0000"/>
     <use xlink:href="#m5560322cfe" x="336.206428" y="474.745265" style="fill: #ff0000; stroke: #ff0000"/>
     <use xlink:href="#m5560322cfe" x="359.978367" y="481.716095" style="fill: #ff0000; stroke: #ff0000"/>
     <use xlink:href="#m5560322cfe" x="383.750307" y="669.193246" style="fill: #ff0000; stroke: #ff0000"/>
     <use xlink:href="#m5560322cfe" x="407.522246" y="669.687543" style="fill: #ff0000; stroke: #ff0000"/>
     <use xlink:href="#m5560322cfe" x="431.294186" y="670.217677" style="fill: #ff0000; stroke: #ff0000"/>
     <use xlink:href="#m5560322cfe" x="455.066125" y="670.602729" style="fill: #ff0000; stroke: #ff0000"/>
     <use xlink:href="#m5560322cfe" x="478.838064" y="670.660808" style="fill: #ff0000; stroke: #ff0000"/>
     <use xlink:href="#m5560322cfe" x="502.610004" y="670.331363" style="fill: #ff0000; stroke: #ff0000"/>
     <use xlink:href="#m5560322cfe" x="526.381943" y="670.9134" style="fill: #ff0000; stroke: #ff0000"/>
     <use xlink:href="#m5560322cfe" x="550.153883" y="671.81005" style="fill: #ff0000; stroke: #ff0000"/>
     <use xlink:href="#m5560322cfe" x="573.925822" y="672.218916" style="fill: #ff0000; stroke: #ff0000"/>
     <use xlink:href="#m5560322cfe" x="621.469701" y="672.292742" style="fill: #ff0000; stroke: #ff0000"/>
     <use xlink:href="#m5560322cfe" x="692.785519" y="672.420189" style="fill: #ff0000; stroke: #ff0000"/>
     <use xlink:href="#m5560322cfe" x="764.101337" y="672.822961" style="fill: #ff0000; stroke: #ff0000"/>
     <use xlink:href="#m5560322cfe" x="811.645216" y="672.894305" style="fill: #ff0000; stroke: #ff0000"/>
    </g>
   </g>
   <g id="line2d_63">
    <defs>
     <path id="m264f270365" d="M -0 7.071068 
L 7.071068 0 
L 0 -7.071068 
L -7.071068 -0 
z
" style="stroke: #8b0000; stroke-linejoin: miter"/>
    </defs>
    <g clip-path="url(#p7c4dfdf9f0)">
     <use xlink:href="#m264f270365" x="336.206428" y="474.745265" style="fill: #8b0000; stroke: #8b0000; stroke-linejoin: miter"/>
    </g>
   </g>
   <g id="patch_15">
    <path d="M 62.829125 671.397812 
L 62.829125 464.837812 
" style="fill: none; stroke: #000000; stroke-width: 0.8; stroke-linejoin: miter; stroke-linecap: square"/>
   </g>
   <g id="patch_16">
    <path d="M 847.303125 671.397812 
L 847.303125 464.837812 
" style="fill: none; stroke: #000000; stroke-width: 0.8; stroke-linejoin: miter; stroke-linecap: square"/>
   </g>
   <g id="patch_17">
    <path d="M 62.829125 671.397812 
L 847.303125 671.397812 
" style="fill: none; stroke: #000000; stroke-width: 0.8; stroke-linejoin: miter; stroke-linecap: square"/>
   </g>
   <g id="patch_18">
    <path d="M 62.829125 464.837812 
L 847.303125 464.837812 
" style="fill: none; stroke: #000000; stroke-width: 0.8; stroke-linejoin: miter; stroke-linecap: square"/>
   </g>
   <g id="legend_2">
    <g id="patch_19">
     <path d="M 688.004688 487.515937 
L 840.303125 487.515937 
Q 842.303125 487.515937 842.303125 485.515937 
L 842.303125 471.837812 
Q 842.303125 469.837812 840.303125 469.837812 
L 688.004688 469.837812 
Q 686.004688 469.837812 686.004688 471.837812 
L 686.004688 485.515937 
Q 686.004688 487.515937 688.004688 487.515937 
z
" style="fill: #ffffff; opacity: 0.8; stroke: #cccccc; stroke-linejoin: miter"/>
    </g>
    <g id="line2d_64">
     <g>
      <use xlink:href="#m264f270365" x="700.004688" y="477.93625" style="fill: #8b0000; stroke: #8b0000; stroke-linejoin: miter"/>
     </g>
    </g>
    <g id="text_37">
     <!-- Max decay at Δt=1.0ms -->
     <g transform="translate(718.004688 481.43625) scale(0.1 -0.1)">
      <defs>
       <path id="DejaVuSans-79" d="M 2059 -325 
Q 1816 -950 1584 -1140 
Q 1353 -1331 966 -1331 
L 506 -1331 
L 506 -850 
L 844 -850 
Q 1081 -850 1212 -737 
Q 1344 -625 1503 -206 
L 1606 56 
L 191 3500 
L 800 3500 
L 1894 763 
L 2988 3500 
L 3597 3500 
L 2059 -325 
z
" transform="scale(0.015625)"/>
       <path id="DejaVuSans-394" d="M 2188 4044 
L 906 525 
L 3472 525 
L 2188 4044 
z
M 50 0 
L 1831 4666 
L 2547 4666 
L 4325 0 
L 50 0 
z
" transform="scale(0.015625)"/>
       <path id="DejaVuSans-3d" d="M 678 2906 
L 4684 2906 
L 4684 2381 
L 678 2381 
L 678 2906 
z
M 678 1631 
L 4684 1631 
L 4684 1100 
L 678 1100 
L 678 1631 
z
" transform="scale(0.015625)"/>
       <path id="DejaVuSans-6d" d="M 3328 2828 
Q 3544 3216 3844 3400 
Q 4144 3584 4550 3584 
Q 5097 3584 5394 3201 
Q 5691 2819 5691 2113 
L 5691 0 
L 5113 0 
L 5113 2094 
Q 5113 2597 4934 2840 
Q 4756 3084 4391 3084 
Q 3944 3084 3684 2787 
Q 3425 2491 3425 1978 
L 3425 0 
L 2847 0 
L 2847 2094 
Q 2847 2600 2669 2842 
Q 2491 3084 2119 3084 
Q 1678 3084 1418 2786 
Q 1159 2488 1159 1978 
L 1159 0 
L 581 0 
L 581 3500 
L 1159 3500 
L 1159 2956 
Q 1356 3278 1631 3431 
Q 1906 3584 2284 3584 
Q 2666 3584 2933 3390 
Q 3200 3197 3328 2828 
z
" transform="scale(0.015625)"/>
       <path id="DejaVuSans-73" d="M 2834 3397 
L 2834 2853 
Q 2591 2978 2328 3040 
Q 2066 3103 1784 3103 
Q 1356 3103 1142 2972 
Q 928 2841 928 2578 
Q 928 2378 1081 2264 
Q 1234 2150 1697 2047 
L 1894 2003 
Q 2506 1872 2764 1633 
Q 3022 1394 3022 966 
Q 3022 478 2636 193 
Q 2250 -91 1575 -91 
Q 1294 -91 989 -36 
Q 684 19 347 128 
L 347 722 
Q 666 556 975 473 
Q 1284 391 1588 391 
Q 1994 391 2212 530 
Q 2431 669 2431 922 
Q 2431 1156 2273 1281 
Q 2116 1406 1581 1522 
L 1381 1569 
Q 847 1681 609 1914 
Q 372 2147 372 2553 
Q 372 3047 722 3315 
Q 1072 3584 1716 3584 
Q 2034 3584 2315 3537 
Q 2597 3491 2834 3397 
z
" transform="scale(0.015625)"/>
      </defs>
      <use xlink:href="#DejaVuSans-4d"/>
      <use xlink:href="#DejaVuSans-61" x="86.279297"/>
      <use xlink:href="#DejaVuSans-78" x="147.558594"/>
      <use xlink:href="#DejaVuSans-20" x="206.738281"/>
      <use xlink:href="#DejaVuSans-64" x="238.525391"/>
      <use xlink:href="#DejaVuSans-65" x="302.001953"/>
      <use xlink:href="#DejaVuSans-63" x="363.525391"/>
      <use xlink:href="#DejaVuSans-61" x="418.505859"/>
      <use xlink:href="#DejaVuSans-79" x="479.785156"/>
      <use xlink:href="#DejaVuSans-20" x="538.964844"/>
      <use xlink:href="#DejaVuSans-61" x="570.751953"/>
      <use xlink:href="#DejaVuSans-74" x="632.03125"/>
      <use xlink:href="#DejaVuSans-20" x="671.240234"/>
      <use xlink:href="#DejaVuSans-394" x="703.027344"/>
      <use xlink:href="#DejaVuSans-74" x="771.435547"/>
      <use xlink:href="#DejaVuSans-3d" x="810.644531"/>
      <use xlink:href="#DejaVuSans-31" x="894.433594"/>
      <use xlink:href="#DejaVuSans-2e" x="958.056641"/>
      <use xlink:href="#DejaVuSans-30" x="989.84375"/>
      <use xlink:href="#DejaVuSans-6d" x="1053.466797"/>
      <use xlink:href="#DejaVuSans-73" x="1150.878906"/>
     </g>
    </g>
   </g>
  </g>
 </g>
 <defs>
  <clipPath id="p0dc3191a69">
   <rect x="62.829125" y="23.837812" width="784.474" height="413.12"/>
  </clipPath>
  <clipPath id="p7c4dfdf9f0">
   <rect x="62.829125" y="464.837812" width="784.474" height="206.56"/>
  </clipPath>
 </defs>
</svg>
